<?xml version="1.0" standalone="no"?>
<!DOCTYPE svg PUBLIC "-//W3C//DTD SVG 1.1//EN" "http://www.w3.org/Graphics/SVG/1.1/DTD/svg11.dtd" >
<svg xmlns="http://www.w3.org/2000/svg" xmlns:xlink="http://www.w3.org/1999/xlink" version="1.1">
<metadata></metadata>
<defs>
<font id="als_malinaregular" horiz-adv-x="1163" >
<font-face units-per-em="1792" ascent="1290" descent="-502" />
<missing-glyph horiz-adv-x="381" />
<glyph horiz-adv-x="0" />
<glyph unicode="&#xd;" horiz-adv-x="596" />
<glyph unicode=" "  horiz-adv-x="381" />
<glyph unicode="&#x09;" horiz-adv-x="381" />
<glyph unicode="&#xa0;" horiz-adv-x="381" />
<glyph unicode="!" horiz-adv-x="485" d="M22 142q0 79 60 139q63 63 164 63q93 0 141 -45t48 -120q0 -80 -60 -140q-61 -61 -164 -61v-5q-91 0 -141 47q-48 45 -48 122zM30 993q0 195 216 195q106 0 220 -43h-4q-20 -37 -30 -147q-17 -173 -31 -356q-1 -7 -1 -33v-30q0 -25 -2 -36q-13 -131 -151 -131 q-63 0 -177 34q3 52 -18 280q-22 239 -22 267z" />
<glyph unicode="&#x22;" horiz-adv-x="835" d="M29 1030q0 78 52 133q51 54 148 54q94 0 162 -41l-24 -359q-7 -141 -150 -141q-86 0 -172 32zM446 1029q0 77 52 132q51 54 149 54q93 0 161 -41l-21 -359q-7 -141 -151 -141q-86 0 -172 32z" />
<glyph unicode="#" horiz-adv-x="992" d="M18 358q0 62 41 92t145 30h500q127 0 194 25q25 -73 25 -150q0 -60 -40 -93q-41 -33 -145 -33h-23l-30 -147q-19 -96 -140 -96q-68 0 -102 46l37 197h-79l-28 -147q-21 -96 -142 -96q-67 0 -102 46l39 197q-76 -3 -123 -21q-27 75 -27 150zM72 683q0 61 41 91 q42 31 145 31h27l20 113q19 98 123 98q37 0 70 -12q37 -13 54 -38l-36 -165h81l25 117q19 98 122 98q37 0 70 -12q38 -14 52 -38l-33 -163q62 3 119 25q23 -75 23 -151q0 -61 -40 -91t-145 -30h-498q-128 0 -193 -24q-27 72 -27 151z" />
<glyph unicode="$" horiz-adv-x="1128" d="M124 206q0 110 91 167q135 -99 299 -99h43q15 0 36 6q22 6 32 16q11 11 11 30q0 30 -50 43q-49 13 -124 27q-82 15 -145 39q-72 27 -123 97q-51 71 -54 179q0 141 97 232q96 90 281 114v11q0 102 -9 143q59 42 124 42q116 0 116 -153v-41q140 -14 213 -68q74 -56 74 -140 q0 -111 -126 -156q-134 90 -317 90q-107 0 -107 -45q0 -24 57 -43q47 -16 138 -38q94 -23 161 -50q84 -34 138 -98q58 -69 58 -167q-10 -274 -293 -339l-3 -16q0 -102 9 -143q-58 -41 -124 -41q-116 0 -116 152v23q-387 8 -387 226z" />
<glyph unicode="%" horiz-adv-x="1822" d="M16 715q0 155 92 258q92 102 259 102q250 0 312 -188q20 -5 49 -5q52 0 87 18q19 7 33 32q91 193 285 193q74 0 134 -32q62 -33 82 -93q-100 -65 -145 -188l-202 -613q-45 -141 -122 -197q-75 -54 -185 -54q-75 0 -131 23q-59 24 -80 70q85 70 136 213l165 502 q-18 -5 -52 -5q-25 0 -32 2q-3 -149 -92 -249t-252 -103q-175 0 -258 83t-83 231zM280 733v2q0 -41 19 -70t58 -29q35 0 59 27q23 26 23 74q0 46 -21 73t-56 27q-36 0 -59 -29t-23 -75zM1124 360q0 155 91 256q92 103 260 103q166 0 249 -83q82 -82 82 -227q0 -157 -87 -257 q-88 -101 -255 -104v-3q-174 0 -258 84q-82 82 -82 231zM1389 378v2q0 -39 20 -70q19 -29 57 -29q35 0 59 27q23 26 23 74q0 46 -21 73t-56 27q-36 0 -59 -29t-23 -75z" />
<glyph unicode="&#x26;" horiz-adv-x="1304" d="M23 330q0 109 58 188q57 78 166 97q-147 67 -147 225q0 159 133 244q130 83 366 83q178 0 284 -65t106 -165q0 -86 -77 -136q-115 61 -258 61q-165 0 -165 -104q0 -93 102 -93l370 2q191 3 247 59q82 -60 82 -162q0 -66 -46 -112q-47 -47 -135 -47h-12h-11 q39 -43 39 -113q0 -147 -145 -231q-146 -84 -407 -84q-266 0 -408 91t-142 262zM480 339q0 -44 40 -63q42 -20 96 -20q66 0 119 31q50 29 50 80q0 35 -27 43l-179 -3q-99 0 -99 -68z" />
<glyph unicode="'" horiz-adv-x="424" d="M25 1030q0 79 54 133t152 54t169 -41l-25 -359q-7 -141 -155 -141q-85 0 -177 32z" />
<glyph unicode="(" horiz-adv-x="691" d="M22 539q0 93 10 180q10 88 41 199q28 102 76 188q45 81 129 138q81 55 188 55q82 0 140 -45q59 -45 59 -123q0 -23 -6 -56q-272 -72 -272 -537v1q0 -437 272 -509q6 -33 6 -55q0 -81 -59 -126q-57 -44 -142 -44q-101 0 -184 52q-81 51 -129 129q-47 77 -78 181 q-31 105 -41 193q-10 87 -10 179z" />
<glyph unicode=")" horiz-adv-x="691" d="M27 -27q0 28 5 56q273 72 273 509v-6q0 466 -273 538q-5 28 -5 55q0 79 59 124q61 47 140 47q105 0 188 -56q86 -58 129 -136q46 -82 75 -188q31 -111 41 -199q11 -96 11 -179q0 -84 -11 -180q-10 -88 -41 -193q-31 -107 -77 -181q-48 -78 -129 -129q-83 -52 -184 -52 q-84 0 -142 45q-59 45 -59 125z" />
<glyph unicode="*" horiz-adv-x="885" d="M-34 1104q0 58 38 102q37 43 100 43q84 0 220 -88q-53 107 -53 183q0 122 152 129l-2 -4q154 -8 154 -129q0 -66 -54 -182q130 87 221 87q67 0 104 -43t37 -102q0 -129 -181 -129q-46 0 -125 11q85 -46 100 -54q37 -20 72 -59q34 -37 34 -75q0 -61 -50 -104t-113 -43 q-75 0 -118 64t-76 172q-67 -238 -193 -238q-63 0 -113 43t-50 106q0 56 54 100q58 47 150 92q-79 -11 -125 -11q-183 0 -183 129z" />
<glyph unicode="+" horiz-adv-x="939" d="M27 514q0 74 43 111q44 38 159 38l63 -4q19 0 27 8q7 7 7 27v32q0 143 -12 188q83 52 175 52q75 0 118 -43t43 -152v-110h70q126 0 194 33q41 -100 41 -176q0 -72 -43 -109q-44 -38 -158 -38h-66q-20 0 -27 -7t-7 -27v-48q0 -140 13 -189q-83 -52 -176 -52q-75 0 -118 43 t-43 155v125h-68q-129 0 -194 -32q-41 100 -41 175z" />
<glyph unicode="," horiz-adv-x="503" d="M16 -111v-4q120 56 120 156q0 35 -23 81t-23 75q0 65 59 106t132 41q100 0 151 -68q52 -69 52 -156q0 -129 -88 -226q-87 -96 -220 -96q-120 0 -160 91z" />
<glyph unicode="-" horiz-adv-x="802" d="M22 541q0 89 48 122t154 36h323q123 0 191 32q40 -98 40 -204q0 -86 -47 -120q-42 -31 -150 -34l-328 -4q-124 0 -192 -32q-39 95 -39 204z" />
<glyph unicode="." horiz-adv-x="456" d="M22 142q0 79 60 139q63 63 164 63q93 0 141 -45t48 -120q0 -80 -60 -140q-61 -61 -164 -61v-5q-91 0 -141 47q-48 45 -48 122z" />
<glyph unicode="/" horiz-adv-x="765" d="M7 13q26 54 65 145l381 924q45 110 156 110q44 0 86 -18q46 -20 65 -49q-26 -54 -65 -145l-381 -926q-45 -110 -156 -110q-40 0 -86 20t-65 49z" />
<glyph unicode="0" horiz-adv-x="1041" d="M23 487q0 248 129 407q130 160 380 160q488 0 488 -507q0 -241 -122 -404q-120 -160 -364 -163l-2 -2q-509 0 -509 509zM400 511h1q0 -81 36 -142q35 -59 111 -59q68 0 108 54q41 55 41 156q0 99 -38 154q-37 54 -100 54q-71 0 -115 -56t-44 -161z" />
<glyph unicode="1" horiz-adv-x="960" d="M23 896q79 25 167 59q111 43 186 65q84 25 135 25h75q67 0 97 -34q28 -32 28 -108v-604l198 2q34 -71 34 -150q0 -149 -147 -149h-717q-34 77 -34 152q0 147 147 147h93v401q-110 0 -174 43t-88 151z" />
<glyph unicode="2" horiz-adv-x="1001" d="M29 821q0 110 116 172q115 61 312 61q217 0 331 -77q117 -79 117 -232q0 -283 -459 -412l158 -7q163 0 238 81q62 -30 102 -88t40 -125q0 -87 -61 -144t-194 -57h-652q-47 99 -47 168q0 154 164 226q193 84 241 124q51 43 51 98q0 40 -31 68q-30 27 -91 27 q-122 0 -226 -70q-109 85 -109 187z" />
<glyph unicode="3" horiz-adv-x="973" d="M23 228q0 111 79 170q130 -93 290 -93q131 0 131 75q0 39 -39 52q-42 14 -140 14q-64 0 -64 56v25q0 49 57 73l224 99h-294q-89 0 -140 61q-52 63 -52 145q0 94 65 156q72 -27 215 -27h439q130 0 124 -140l-2 -32q-6 -77 -29 -118q-24 -44 -93 -76l-190 -89 q184 -7 265 -75t81 -194q0 -337 -489 -337q-198 0 -319 63q-119 62 -119 192z" />
<glyph unicode="4" horiz-adv-x="1087" d="M7 383q0 74 50 130l391 435q95 100 194 100h157q67 0 97 -34q29 -33 29 -107l-2 -446l116 7q27 -48 27 -97q0 -47 -30 -81t-86 -34h-27v-234q-93 -35 -197 -35q-228 0 -228 158v111h-141q-165 0 -300 -5q-50 57 -50 132zM272 461h226v261z" />
<glyph unicode="5" horiz-adv-x="974" d="M20 228q0 117 77 173q122 -89 315 -89q108 0 108 79q0 26 -7 41q-7 14 -33 21q-24 6 -45 6h-69h-15h-138q-56 0 -93 34q-38 35 -32 107l45 298q21 140 121 140h391q146 0 215 26q66 -66 66 -155q0 -76 -52 -131q-51 -54 -139 -54h-341l-16 -100q87 44 199 44 q173 0 271 -80t98 -228q0 -180 -123 -279t-380 -99q-69 0 -140 11q-60 9 -135 36q-66 24 -107 75q-41 52 -41 124z" />
<glyph unicode="6" horiz-adv-x="1007" d="M22 448q0 133 28 231q30 104 90 192q59 87 166 134q110 49 251 49q104 0 183 -16q80 -16 138 -65q57 -48 57 -120q0 -101 -80 -145q-101 52 -201 52q-202 0 -202 -178l-4 -5q64 88 210 88q156 0 240 -86q84 -85 84 -226q0 -180 -125 -278q-127 -100 -361 -100 q-474 0 -474 473zM410 430q0 -186 108 -186q39 0 70 25q30 24 30 75q0 65 -43 95q-45 31 -163 31z" />
<glyph unicode="7" horiz-adv-x="908" d="M22 891q0 108 64 172q70 -25 215 -25h457q75 0 106 -36q30 -34 30 -117l2 -88q0 -153 -88 -231q-119 -106 -174 -193q-53 -84 -53 -190q0 -77 37 -110q-57 -89 -242 -89q-103 0 -172 63q-68 62 -68 177q0 254 402 478h-319q-95 0 -146 54t-51 135z" />
<glyph unicode="8" horiz-adv-x="1037" d="M20 290q0 103 55 165q58 65 145 95q-150 72 -150 215q0 145 131 219q132 75 317 75q210 0 330 -73q118 -72 118 -210q0 -153 -161 -220q207 -68 207 -255q0 -164 -139 -242q-138 -77 -360 -77q-219 0 -355 75t-136 230zM389 312q0 -95 127 -95q48 0 83 20q34 19 34 57 q0 68 -129 127q-53 -19 -86 -46q-29 -23 -29 -63zM430 772q0 -57 104 -105q88 40 88 104q0 28 -25 48t-74 20q-38 0 -64 -16q-27 -17 -27 -52z" />
<glyph unicode="9" horiz-adv-x="1001" d="M20 668q0 184 131 285q132 102 370 102q457 0 457 -464q0 -613 -526 -613q-364 0 -364 199q0 84 63 142q96 -50 211 -50q181 0 188 179l-2 2q-75 -88 -213 -88q-147 0 -231 86t-84 220zM380 679q0 -61 43 -91q45 -31 161 -31v36q0 190 -97 190q-42 0 -75 -27 q-32 -26 -32 -77z" />
<glyph unicode=":" horiz-adv-x="456" d="M22 142q0 79 60 139q63 63 164 63q93 0 141 -45t48 -120q0 -80 -60 -140q-61 -61 -164 -61v-5q-91 0 -141 47q-48 45 -48 122zM22 742q0 80 60 140q62 62 164 62q94 0 141 -44q48 -45 48 -120q0 -80 -60 -140q-61 -61 -164 -61v-6q-91 0 -141 47q-48 45 -48 122z" />
<glyph unicode=";" horiz-adv-x="512" d="M16 -111v-4q120 56 120 156q0 35 -23 81t-23 75q0 65 59 106t132 41q100 0 151 -68q52 -69 52 -156q0 -129 -88 -226q-87 -96 -220 -96q-120 0 -160 91zM77 744q0 78 61 139q63 63 163 63q94 0 142 -45t48 -120q0 -78 -61 -139t-163 -61v-6q-92 0 -142 47q-48 45 -48 122 z" />
<glyph unicode="&#x3c;" horiz-adv-x="702" d="M9 468q0 94 68 139l432 300q74 -20 118 -76q47 -60 47 -123q0 -70 -58 -108l-254 -122l253 -125q62 -35 62 -113q0 -68 -50 -124t-123 -73l-422 283q-73 52 -73 142z" />
<glyph unicode="=" horiz-adv-x="885" d="M22 301q0 74 43 111q44 38 159 38h398q128 0 193 32q42 -103 42 -181q0 -72 -43 -109q-44 -38 -158 -38l-400 -2q-128 0 -193 -32q-41 100 -41 181zM23 679q0 74 43 111q44 38 160 38h398q128 0 193 32q41 -100 41 -181q0 -72 -43 -109q-44 -38 -157 -38l-400 -2 q-128 0 -193 -32q-42 103 -42 181z" />
<glyph unicode="&#x3e;" horiz-adv-x="702" d="M25 240q0 78 63 113l252 125l-254 122q-57 38 -57 108q0 65 46 123q44 56 119 76l431 -300q69 -46 69 -139q0 -90 -74 -142l-421 -283q-74 17 -124 73t-50 124z" />
<glyph unicode="?" horiz-adv-x="883" d="M16 980q0 110 100 169t285 59h-5q85 0 154 -13q78 -15 149 -43q76 -30 120 -91q45 -61 48 -151q0 -77 -28 -132q-32 -63 -72 -97q-55 -47 -86 -72q-42 -33 -72 -77q-28 -41 -28 -93q-67 -48 -194 -48q-87 0 -145 37q-59 38 -59 113q0 59 41 108q39 46 90 75t89 54 q41 27 41 46q0 34 -91 34q-115 0 -228 -48q-109 64 -109 170zM201 142q0 78 61 139q63 63 163 63q93 0 141 -45q49 -46 49 -120q0 -79 -61 -140t-163 -61v-5q-92 0 -142 47q-48 45 -48 122z" />
<glyph unicode="@" horiz-adv-x="1630" d="M18 355q0 195 64 344q65 151 180 242q117 93 265 140q150 48 328 48q354 0 554 -190t200 -495q0 -192 -102 -329t-297 -137q-100 0 -167 27t-108 108l-1 -7q-85 -128 -253 -128q-105 0 -177 58q-70 57 -70 156q0 109 87 165q89 57 210 57q109 0 183 -31v27q0 42 -32 65 q-34 25 -67 32q-32 7 -70 7q-98 0 -198 -44q-51 57 -51 107q0 75 97 118q96 43 230 43q179 0 275 -73q94 -72 94 -210v-226q0 -59 48 -59q108 0 108 278q0 219 -144 328q-141 107 -369 107q-252 0 -396 -125q-145 -126 -145 -371q0 -503 441 -503q143 0 211 39 q49 -49 49 -106q0 -163 -307 -163q-320 0 -494 197q-176 199 -176 504zM724 228q0 -24 16 -40t43 -16q39 0 81 25q41 25 52 70l2 27q-28 5 -76 5q-64 0 -91 -21t-27 -50z" />
<glyph unicode="A" horiz-adv-x="1200" d="M48 122q3 44 25 98l228 543q40 90 75 142l-1 -5q-83 -3 -131 -9q-45 94 -45 168q0 152 249 152h323q93 0 143 -37q51 -37 84 -133l265 -797q32 -105 76 -196q-202 -66 -301 -66q-62 0 -104 36q-39 33 -70 124l-24 71h-392l-82 -215h-198q-63 0 -93 38q-27 35 -27 77v9z M557 507q-7 -30 22 -30h172l-92 294z" />
<glyph unicode="B" horiz-adv-x="1216" d="M11 1054q0 52 21 86q21 35 61 48q42 14 79 20q31 5 90 5h421q512 0 512 -315q0 -80 -37 -144q-36 -62 -110 -96q105 -24 160 -97q54 -72 54 -170q0 -78 -31 -145q-29 -63 -75 -104q-43 -39 -118 -70q-59 -25 -135 -45q-56 -15 -150 -23q-106 -9 -144 -9h-132l-2 -6 q-67 0 -108 6q-46 7 -82 23q-42 19 -61 59q-20 42 -20 108v709q-55 0 -136 -9q-57 84 -57 169zM633 276q32 -4 59 -4q154 0 154 113q0 102 -133 102h-80v-211zM633 695h61q130 0 130 111q0 94 -120 94h-71v-205z" />
<glyph unicode="C" horiz-adv-x="1145" d="M84 556q0 297 156 480t475 183q87 0 159 -13q78 -14 140 -43q64 -30 102 -84q38 -55 38 -127q0 -66 -38 -121q-37 -53 -104 -77q-162 90 -284 90q-212 0 -212 -244q0 -108 54 -166q54 -59 165 -59q155 0 319 100q53 -31 79 -83t26 -114q0 -82 -44 -142q-42 -58 -119 -93 q-66 -30 -150 -48q-80 -17 -158 -17l2 -7q-305 3 -455 156q-151 154 -151 429z" />
<glyph unicode="D" horiz-adv-x="1292" d="M14 1055q0 51 22 87q21 35 61 48q42 14 79 20q31 5 89 5h375q345 0 516 -151q168 -149 168 -421q0 -332 -193 -491q-191 -157 -534 -157h-169q-57 0 -96 16q-45 18 -63 39q-20 23 -34 65q-13 39 -16 73q-3 33 -6 81l-7 627q-53 0 -134 -9q-58 85 -58 168zM642 290h26 l-1 2q120 0 182 95q61 94 61 226q0 144 -61 215q-61 72 -168 72h-39v-610z" />
<glyph unicode="E" horiz-adv-x="1145" d="M13 1055q0 69 48 113q47 43 140 43h672q123 0 188 18q55 -72 55 -177q0 -54 -21 -88q-21 -35 -61 -48q-39 -13 -72 -16q-44 -4 -82 -4h-244v-113q0 -19 6 -25q5 -5 21 -5h310q23 -56 23 -120q0 -169 -224 -169h-136v-116q0 -19 6 -25t21 -6l219 -5q103 0 188 23 q55 -72 55 -183q0 -52 -21 -87q-22 -36 -61 -49t-72 -16q-44 -4 -82 -4h-486q-95 0 -147 38q-50 37 -50 154v708q-55 0 -136 -9q-57 84 -57 168z" />
<glyph unicode="F" horiz-adv-x="1136" d="M13 1057q0 69 48 113q47 43 140 43h677q123 0 188 18q56 -74 56 -177q0 -52 -22 -88q-21 -35 -61 -48q-44 -14 -71 -17q-33 -3 -83 -3h-247v-151q0 -20 5 -25t22 -5l290 -2q23 -55 23 -124q0 -168 -224 -168h-116v-113q8 -138 48 -253q-297 -73 -337 -73q-45 0 -75 21 q-29 20 -43 65q-11 34 -18 84q-3 20 -7 102v642q-55 0 -136 -9q-57 84 -57 168z" />
<glyph unicode="G" horiz-adv-x="1257" d="M84 559q0 297 156 480t475 183q121 0 220 -21q100 -21 172 -83q74 -63 74 -152q0 -60 -38 -115q-37 -53 -98 -77q-129 74 -301 74q-230 0 -230 -251q0 -274 230 -274q156 0 156 52v35l-11 -3q-169 0 -169 138q0 51 24 116h329q112 0 151 -39t39 -172v-436 q-61 -37 -141 -37q-64 0 -111 32q-48 33 -67 97q-121 -131 -338 -131q-137 0 -242 48t-163 131t-88 185q-29 99 -29 220z" />
<glyph unicode="H" horiz-adv-x="1392" d="M14 1100q0 33 6 63q70 5 161 14q22 2 48.5 5.5t59.5 8t53 6.5q48 6 144 16q36 0 59 -16q28 -19 36 -34q12 -23 19 -54q9 -41 9 -59v-64v-196q0 -19 6 -25q5 -5 21 -5h269l-2 127q-8 138 -48 253q297 73 342 73t75 -21q29 -20 43 -65q15 -48 20 -82q3 -20 7 -102v-635 q7 -133 49 -252q-301 -74 -343 -74q-44 0 -75 22q-30 21 -43 64q-11 34 -18 84q-3 20 -7 102v155q0 20 -5 26q-6 8 -20 8h-271v-137q7 -133 49 -252q-301 -74 -337 -74q-44 0 -75 22t-44 64q-8 27 -17 85q-5 30 -8 102v611q-83 13 -123 80t-40 156z" />
<glyph unicode="I" horiz-adv-x="863" d="M52 1061q0 69 48 113q47 43 140 43h353q123 0 188 18q56 -74 56 -178q0 -131 -140 -139q-20 -3 -20 -24v-595q54 0 135 9q57 -84 57 -161q0 -67 -48 -108q-46 -39 -142 -39h-541q-56 74 -56 159q0 132 140 140q20 3 20 24l4 596q-56 0 -137 -9q-57 84 -57 151z" />
<glyph unicode="J" horiz-adv-x="709" d="M20 -54q0 48 12 81q40 -4 43 -4q96 0 133 61t43 169v613q-84 14 -124 80q-39 65 -39 156q0 38 5 63q70 5 161 14q22 2 48.5 5.5t60 8t53.5 6.5q54 7 143 16q36 0 59 -16q28 -19 36 -34q14 -26 20 -54q9 -41 9 -59v-65l-4 -750q0 -109 -21 -201q-20 -87 -68 -167 q-44 -73 -124 -118q-77 -43 -183 -43q-115 0 -188 66q-75 68 -75 172z" />
<glyph unicode="K" horiz-adv-x="1299" d="M9 1100q0 38 5 63q74 5 162 14q22 2 48.5 5.5t59.5 8t53 6.5q54 7 143 16q36 0 59 -16q28 -19 36 -34q14 -26 20 -54q9 -41 9 -59v-64v-275h52q89 0 124 65t35 149q0 89 -48 184q100 106 247 106q123 0 181 -77q59 -79 59 -183q0 -211 -193 -340q48 -130 138 -230 q88 -98 175 -118q-6 -145 -87 -210q-82 -66 -199 -66q-80 0 -140 22q-56 21 -108 80q-48 55 -87 169q-37 108 -67 281h-77l-5 -237q8 -136 48 -252q-301 -74 -337 -74q-44 0 -75 22q-30 21 -43 64q-10 33 -18 85q-3 20 -7 102v611q-84 14 -124 80q-39 65 -39 156z" />
<glyph unicode="L" horiz-adv-x="1035" d="M13 1100q0 38 5 63q70 5 161 14q29 3 90 11t71 9q48 6 144 16q36 0 59 -16q28 -19 36 -34q14 -26 20 -54q8 -37 8 -59v-64v-579q0 -32 18 -32h88h86q181 0 291 51q33 -42 53 -107q20 -63 20 -99q0 -71 -25 -118q-24 -45 -75 -66q-53 -22 -108 -29q-53 -7 -145 -7h-471 q-39 0 -70 14q-29 13 -47 36q-16 21 -27 59q-8 30 -12 70q-3 30 -6 79l-1 606q-84 14 -124 80q-39 65 -39 156z" />
<glyph unicode="M" horiz-adv-x="1598" d="M36 1100q0 40 5 65q79 6 248 27t256 21q75 0 118 -37q42 -36 72 -121l138 -399l120 399q34 97 86 130q43 28 110 28q16 0 33 -2l136 -19q103 -14 133 -54t36 -160l32 -661q7 -160 47 -260l-95 -23l-101 -25q-56 -13 -75 -16q-41 -7 -64 -7q-42 0 -72 21q-29 20 -43 65 q-11 36 -18 86q-5 36 -5 100l10 441l-91 -251q-23 -59 -54 -93q-29 -32 -80 -32h-94q-46 0 -75 32t-59 93l-117 251l17 -387q7 -163 46 -260l-93 -23q-91 -23 -99 -25q-6 -1 -32.5 -7.5t-42.5 -9.5q-38 -7 -63 -7q-40 0 -71 22q-30 21 -43 64q-11 36 -18 86q-6 43 -6 101 l26 614q-83 13 -121 79q-37 64 -37 154z" />
<glyph unicode="N" horiz-adv-x="1335" d="M13 1057q0 69 48 113q47 43 140 43h179q88 -3 150 -32q68 -31 128 -108l310 -437l-2 255q-7 191 -48 286q155 38 209 38q60 0 92 -18q36 -21 52 -59q14 -35 21 -83q5 -36 5 -111l-16 -917q-67 -36 -165 -36q-73 0 -112 11t-67 39l-428 570q5 -25 11 -306q3 -187 46 -285 q-155 -38 -209 -38q-57 0 -92 20q-34 19 -50 59q-14 35 -21 84q-6 43 -6 111v660q-48 0 -118 -9q-57 84 -57 150z" />
<glyph unicode="O" horiz-adv-x="1309" d="M79 566q0 139 37 253q38 116 113 208t199 143q125 52 285 52q608 0 608 -582q0 -132 -36 -253q-34 -112 -108 -210q-71 -93 -193 -147q-119 -53 -280 -53l-3 3q-622 0 -622 586zM514 599q0 -237 185 -237q190 0 190 238q0 112 -49 178q-48 64 -134 64q-192 0 -192 -242 v-1z" />
<glyph unicode="P" horiz-adv-x="1234" d="M9 1054q0 52 21 86q21 35 61 48q42 14 79 20q31 5 90 5h410q590 -8 590 -421q0 -196 -122 -312q-120 -114 -385 -114q-19 0 -63 3q-12 1 -24.5 2t-19 1.5t-8.5 0.5l-4 -67q7 -133 49 -252q-301 -74 -337 -74q-44 0 -75 22q-30 21 -43 64q-10 33 -18 85q-5 30 -8 102v641 q-55 0 -136 -9q-57 84 -57 169zM634 622q9 -2 51 -2q150 0 150 147q0 129 -134 129h-67v-274z" />
<glyph unicode="Q" horiz-adv-x="1311" d="M82 563q0 286 160 473q159 186 471 186q606 0 606 -582q0 -155 -43 -280t-140 -222q-96 -96 -233 -131q17 0 131 -18t183 -18l2 -5q97 0 166 20q61 -61 61 -151q0 -107 -75 -161t-186 -54q-112 3 -298 70t-287 70q-12 40 -12 77q0 111 86 141q-292 3 -441 151 q-151 149 -151 434zM516 593q0 -236 183 -236q188 0 188 238q0 113 -48 177q-48 65 -133 65q-190 0 -190 -242v-2z" />
<glyph unicode="R" horiz-adv-x="1275" d="M7 1055q0 51 22 87q21 35 61 48q43 14 78 20q31 5 90 5h391q315 0 462 -104t147 -308q0 -261 -161 -344q92 -153 220 -183q-6 -151 -81 -222q-74 -70 -189 -70q-42 0 -70 5q-33 6 -56 16q-30 13 -47 29q-16 15 -37 32q-15 12 -32 43q-20 37 -25 49q-19 48 -20 53 q-4 12 -9 30t-7 24l-16 58q-3 9 -6.5 21.5t-5.5 19.5t-3 12q-20 -3 -80 -3l-2 -68q8 -130 48 -251l-95 -24l-100 -25q-56 -13 -75 -16q-41 -7 -65 -7q-44 0 -75 22q-30 21 -43 64q-11 34 -18 84q-3 20 -7 102v642q-55 0 -136 -9q-58 85 -58 168zM631 620q9 -2 55 -2 q151 0 151 147q0 129 -135 129h-71v-274z" />
<glyph unicode="S" horiz-adv-x="1055" d="M22 235q0 129 100 191q59 -47 154 -82q86 -32 176 -32q35 0 48 2q36 6 41 7q23 7 32 18q11 14 11 36q0 28 -39 44q-43 18 -101 25q-44 6 -129 31q-61 18 -130 57q-63 35 -103 110q-40 74 -43 181q0 184 144 293q143 108 412 108q211 0 321 -65q111 -65 111 -182 q0 -59 -34 -106q-36 -51 -102 -74q-147 103 -350 103q-118 0 -118 -49q0 -28 63 -50q62 -21 150 -45q95 -26 178 -61q90 -38 150 -114q63 -80 63 -190l-2 -4q-7 -203 -140 -308q-131 -104 -412 -104q-451 0 -451 260z" />
<glyph unicode="T" horiz-adv-x="1141" d="M-23 1016q0 108 59 156q58 48 213 48q81 0 271 -10q209 -11 268 -11q139 0 253 43q79 -137 79 -228q0 -98 -63 -150q-60 -50 -231 -50h-39q-20 -3 -20 -27l4 -479q7 -136 48 -252q-301 -74 -337 -74q-44 0 -75 22q-30 21 -43 64q-11 34 -18 84q-3 20 -7 102v577 q-13 2 -54 2q-121 0 -231 -59q-77 135 -77 242z" />
<glyph unicode="U" horiz-adv-x="1318" d="M18 1098q0 38 5 63q40 3 162 15q34 3 161 19q54 7 143 16q36 0 59 -16q28 -19 36 -34q14 -26 20 -54q9 -41 9 -59v-64v-520q0 -159 125 -159q124 0 124 159v425q-8 138 -48 253q297 73 333 73q44 0 75 -22q30 -21 43 -64q15 -48 20 -82q3 -20 7 -103l2 -435 q0 -136 -36 -242q-34 -101 -88 -158q-50 -53 -134 -87q-87 -35 -147 -42q-81 -9 -151 -9q-69 0 -150 9q-60 7 -147 42q-86 35 -135 87q-54 57 -89 160q-36 106 -36 242v351q-83 13 -124 81q-39 65 -39 155z" />
<glyph unicode="V" horiz-adv-x="1266" d="M-7 986q57 225 247 225q64 0 106 -18q46 -20 75 -43q30 -24 57 -75t43 -93q27 -71 42 -120q26 -79 82 -328l18 -95q167 343 167 489q0 111 -56 167q34 53 99 86q63 32 132 32q99 0 172 -68q72 -68 72 -197q0 -85 -52 -217q-52 -131 -113 -240q-63 -113 -113 -231 q-52 -124 -52 -190q0 -37 2 -48q-169 -47 -294 -47q-123 0 -204 54t-124 182l-9 -1q-4 15 -44 188q-34 148 -65 261q-32 115 -81 214q-51 103 -107 113z" />
<glyph unicode="W" horiz-adv-x="1677" d="M-5 980q17 108 86 165q71 59 165 59q75 0 125 -28q53 -30 88 -78q34 -47 61 -139q26 -87 43 -183q10 -56 34 -238l109 315q16 47 31 77q11 22 32 43q22 22 54 22h100q47 0 68 -33q26 -41 47 -109l107 -360q104 263 104 408q0 118 -56 178q30 62 92 97q61 34 134 34 q100 0 171 -68q69 -66 69 -205q0 -150 -113 -466l-25 -75q-12 -36 -26 -86l-20 -70q-10 -35 -18 -82q-5 -29 -5 -70q0 -34 5 -59q-140 -51 -244 -54h-8q-87 0 -155 59q-69 60 -102 177l-88 377l-111 -351q-21 -63 -21 -125q0 -40 9 -80l-11 -12q-113 -54 -240 -54 q-158 0 -215 113q-58 115 -103 475q-21 173 -55 272q-38 110 -118 154z" />
<glyph unicode="X" horiz-adv-x="1189" d="M39 183q0 109 77 202l230 258l-34 54q-69 107 -133 170q-60 58 -125 74v-6q6 144 75 207q70 64 174 64q110 0 184 -70q83 -78 203 -281q131 185 134 342q55 13 128 13q100 0 161 -54q63 -55 63 -167q0 -103 -78 -197l-209 -256q73 -127 143 -178q69 -50 194 -50 q3 -20 3 -57q0 -123 -64 -197q-65 -76 -187 -76q-118 0 -209 70q-93 72 -178 210l-46 72q-94 -121 -129 -194q-36 -75 -43 -150q-70 -16 -115 -16q-99 0 -159 52t-60 161z" />
<glyph unicode="Y" horiz-adv-x="1234" d="M-9 987q20 131 88 180q69 50 179 50q62 0 113 -27q49 -26 88 -65q35 -35 77 -113q34 -62 66 -136q28 -63 68 -172q5 12 32 61q30 54 43 83q18 39 31 78q16 47 16 86q0 56 -30 94q73 111 225 111q113 0 172 -59q60 -60 60 -149q0 -76 -45 -160q-42 -79 -104 -150 l-131 -158q-78 -99 -111 -161q-29 -55 -29 -113q0 -104 38 -210q-287 -71 -335 -71q-46 0 -76 21q-29 20 -43 65q-9 28 -17 84q-5 30 -8 102v99q0 69 -30 130l-172 348q-83 152 -165 152z" />
<glyph unicode="Z" horiz-adv-x="1107" d="M22 208q0 149 114 242l522 385h-325q-123 0 -236 -36l-13 34l-12 34l-11 29q-3 8 -7 18l-4 9l-7 25q-2 6 -4.5 16t-2.5 11q-4 14 -6 23q-1 4 -1 23q0 93 73 151q71 56 226 56l457 -24q195 0 247 20q56 -96 56 -229q0 -73 -34 -140t-72 -108q-32 -34 -111 -102l-362 -267 q37 -3 181 -27q152 -25 224 -25q77 0 152 22q52 -87 52 -185q0 -103 -70 -167t-195 -64q-119 0 -333 48q-219 49 -314 49q-69 0 -107 -20q-77 83 -77 199z" />
<glyph unicode="[" horiz-adv-x="661" d="M30 -38l4 1212q0 77 36 122q34 43 107 43h398q59 -54 59 -146q0 -57 -32 -96q-33 -40 -93 -40h-109q-20 -3 -20 -23v-934q0 -20 20 -23h109q59 0 91 -39q33 -41 33 -97q0 -73 -61 -161q-65 18 -189 18h-209q-74 0 -108 43q-36 45 -36 121z" />
<glyph unicode="\" horiz-adv-x="772" d="M9 1124q18 28 68 48q49 20 90 20q111 0 156 -110l381 -924q39 -91 65 -145q-19 -30 -70 -49q-47 -18 -92 -18q-110 0 -155 110l-379 922q-51 119 -64 146z" />
<glyph unicode="]" horiz-adv-x="661" d="M27 -77q0 58 32 97t93 39h110q19 3 19 23v934q0 20 -19 23h-110q-57 0 -91 42q-32 39 -32 96q0 74 61 162q65 -18 188 -18h209q74 0 108 -43q36 -45 36 -120l-4 -1217q0 -75 -36 -120q-34 -43 -107 -43h-398q-59 54 -59 145z" />
<glyph unicode="^" horiz-adv-x="860" d="M20 710q0 35 10 64q9 25 52 102l153 246q40 71 80 98q41 27 113 27q125 0 190 -41l222 -482q-14 -57 -69 -91q-56 -34 -124 -34q-114 0 -152 86l-97 225l-122 -206q-24 -40 -48 -102q-31 -7 -54 -7q-64 0 -108 29q-46 31 -46 86z" />
<glyph unicode="_" horiz-adv-x="896" d="M22 168q0 89 48 122t154 36h416q123 0 191 32q40 -98 40 -204q0 -86 -47 -120q-42 -31 -150 -34l-421 -4q-124 0 -192 -32q-39 95 -39 204z" />
<glyph unicode="`" horiz-adv-x="525" d="M66 1389q24 56 81 97t118 48l260 -323q25 -28 25 -61q0 -50 -50 -93q-47 -40 -108 -61l-293 237q-67 51 -33 156z" />
<glyph unicode="a" d="M14 265q0 104 63 176q61 69 151 97q85 26 202 26q110 0 195 -28q-7 114 -166 114q-189 0 -282 -77q-93 53 -93 158q0 103 126 161q129 60 338 60q92 0 171 -11q71 -10 141 -38q68 -27 111 -70t70 -113q27 -71 27 -164l-4 -187q0 -75 60 -75q13 0 48 11q23 -59 23 -119 q0 -94 -66 -150q-69 -58 -177 -58q-100 0 -165 38q-66 39 -101 138q-95 -170 -328 -176q-150 0 -247 72t-97 215zM441 301q0 -38 21 -59q22 -22 58 -22q105 0 105 158l-1 45q-32 0 -77 -9q-37 -7 -72 -38q-34 -30 -34 -75z" />
<glyph unicode="b" horiz-adv-x="1227" d="M39 1231q61 14 205 61q148 48 177 48q130 0 133 -249l-2 -369q95 230 306 230q162 0 251 -119q90 -121 90 -295q0 -257 -151 -411q-149 -152 -419 -152q-107 0 -195 27q-93 28 -162 80q-72 54 -113 155q-41 100 -41 233v458q0 189 -79 303zM559 509q0 -197 115 -197 q48 0 75 37t27 88q0 74 -45 119q-46 46 -109 46q-28 0 -63 -11v-82z" />
<glyph unicode="c" horiz-adv-x="1105" d="M68 441q0 234 143 374t418 140q179 0 312 -89q132 -89 132 -216q0 -73 -48 -121q-49 -49 -140 -49q-43 0 -82 13q-3 66 -49 100q-44 32 -107 32q-79 0 -113 -43q-36 -45 -36 -107q0 -152 192 -152q167 0 256 89q47 -31 70 -80q25 -53 25 -104q0 -116 -107 -183t-312 -67 h-4q-269 0 -410 124q-140 123 -140 339z" />
<glyph unicode="d" horiz-adv-x="1227" d="M54 441q0 220 111 367q109 145 312 145q144 0 231 -87v146q-6 147 -63 242q14 3 178 42l130 34q41 10 61 10q82 0 106 -59q24 -58 27 -183l5 -844q7 -93 45 -198q-55 -9 -177 -42q-110 -30 -146 -30q-41 0 -66 18t-39 52q-11 28 -18 64q-6 33 -6 77q-108 -218 -319 -218 q-184 0 -279 129q-93 127 -93 335zM478 511q0 -74 47 -119q44 -43 117 -43q32 0 71 11l-3 75q0 196 -120 196q-51 0 -81 -34q-31 -36 -31 -86z" />
<glyph unicode="e" horiz-adv-x="1148" d="M79 439q0 241 147 376q150 138 408 138q231 0 361 -80t130 -228q0 -73 -39 -125q-40 -54 -109 -83q-70 -30 -147 -43q-69 -12 -167 -12q-72 0 -150 14q24 -84 197 -84q177 0 294 77q38 -24 59 -72t21 -93q0 -124 -129 -185q-128 -61 -322 -61q-552 0 -552 461h-2z M525 520q110 3 165 32q57 30 57 75q0 65 -71 65t-108 -50q-38 -52 -41 -124z" />
<glyph unicode="f" horiz-adv-x="937" d="M18 762q0 175 179 175l41 -3q-16 63 -16 104q0 153 102 234t282 81q115 0 182 -54q69 -55 69 -156q0 -40 -17 -93q-29 5 -69 5q-139 0 -160 -121h18l231 18q31 -78 31 -144q0 -88 -51 -145t-150 -57q-2 0 -50 3v-358q8 -100 45 -194q-42 -7 -124 -27l-140 -30 q-56 -13 -88 -13q-40 0 -68 17q-25 15 -39 52q-11 27 -18 64q-3 15 -7 79v432l-142 -18q-41 79 -41 149z" />
<glyph unicode="g" horiz-adv-x="1175" d="M54 552q0 185 154 294q152 107 387 107l4 2q152 -3 254 -36q4 28 4 34q0 83 -52 129q26 48 77 74q54 27 109 27q83 0 127 -49q43 -47 43 -114q0 -126 -131 -206q72 -94 72 -212q0 -187 -152 -296t-378 -109q-102 0 -171 13q-3 -8 -3 -22q0 -36 79 -50q87 -15 191 -22 q125 -8 224 -26q114 -20 189 -88q78 -70 78 -190q-13 -346 -607 -346q-115 0 -215 20q-96 19 -163 70q-66 50 -66 127q0 107 107 140q-138 44 -138 182q0 83 48 144q49 63 129 97q-200 85 -200 306zM353 -244q3 -80 199 -80q63 0 107 16q47 17 47 45h-4q0 25 -60 32 q-67 8 -153 11q-95 3 -127 10q-9 -20 -9 -34zM453 566q0 -98 122 -98q58 0 92 36q32 33 32 78q0 99 -118 99q-62 0 -95 -34q-33 -35 -33 -81z" />
<glyph unicode="h" horiz-adv-x="1252" d="M39 1233q61 14 205 61q148 48 177 48q41 0 68 -21t41 -65q10 -34 18 -77q4 -26 8 -86v-374q121 236 344 236q126 0 198 -91q74 -94 74 -269l2 -292q3 -66 27 -93q23 -26 89 -34q-45 -196 -276 -196q-285 0 -285 267v305q0 75 -50 75q-48 0 -86 -68q-37 -67 -37 -172v-138 q8 -101 44 -193q-42 -7 -127 -27q-109 -25 -140 -31q-60 -11 -80 -11q-42 0 -70 17q-26 16 -40 52q-11 27 -18 64q-3 15 -7 79v731q0 189 -79 303z" />
<glyph unicode="i" horiz-adv-x="702" d="M-4 900q0 -45 2 -63q4 -32 13 -63q11 -35 27 -59q16 -23 48 -39q29 -15 79 -18v-457q4 -64 7 -79q8 -39 18 -65q14 -37 39 -52q26 -16 70 -16q25 0 86 11q63 11 145 30l128 29q-37 94 -45 194l-6 519v52q0 24 -5 47q-6 29 -18 43q-14 17 -37 27q-25 11 -60 11 q-60 -5 -227 -27q-172 -22 -264 -25zM124 1174q0 90 68 147q65 55 181 55q104 0 161 -48q56 -47 56 -131l-2 2q0 -91 -61 -145t-179 -54q-224 0 -224 174z" />
<glyph unicode="j" horiz-adv-x="688" d="M-73 -310q0 -96 69 -156q72 -63 183 -63q99 0 183 42q82 41 129 104q49 66 81 152q32 87 43 174q10 81 10 181v647v52q0 24 -5 46q-6 29 -18 43q-13 16 -38 27t-59 11q-60 -5 -227 -27q-172 -22 -262 -25q0 -45 2 -63q4 -37 12 -63q11 -35 27 -59q15 -22 49 -39 q29 -15 79 -18v-475q0 -82 -2 -111q-2 -33 -11 -108q-7 -61 -25 -102q-17 -38 -50 -64q-34 -27 -81 -27q-38 0 -70 18q-19 -50 -19 -97zM133 1172q0 90 68 147q65 55 181 55q104 0 161 -48q56 -47 56 -131l-2 2q0 -91 -61 -145q-62 -54 -179 -54q-224 0 -224 174z" />
<glyph unicode="k" horiz-adv-x="1234" d="M39 1222q61 14 205 61q148 48 177 48q41 0 68 -21t41 -65q10 -34 18 -77q4 -26 8 -86v-432q154 294 408 294q115 0 172 -62t57 -156q0 -106 -64 -176q-63 -69 -194 -72q56 -69 147 -69q50 0 92 25q48 -72 48 -167q0 -123 -73 -210q-72 -86 -205 -86q-91 0 -161 40 t-107 107q-35 64 -56 140q-18 66 -18 154q80 10 136 49q54 38 54 82q0 25 -16 41t-43 16q-97 0 -181 -136v-215q7 -98 45 -193q-42 -7 -127 -27q-109 -25 -140 -31q-60 -11 -81 -11q-42 0 -70 17q-25 15 -39 52q-11 27 -18 64q-3 15 -7 79l3 720q0 189 -79 303z" />
<glyph unicode="l" horiz-adv-x="680" d="M38 1233q56 10 208 59q150 48 180 48q133 0 133 -249v-706q7 -83 45 -113t113 -30q-3 -121 -77 -188t-183 -67q-151 0 -246 81t-95 247v615q0 190 -78 303z" />
<glyph unicode="m" horiz-adv-x="1811" d="M-13 898q90 3 262 25q165 21 228 27q34 0 59 -11q23 -10 37 -27q14 -18 20 -43q6 -27 6 -46v-51v-43q51 104 129 163q80 60 166 60q95 0 167 -60q70 -58 97 -175q52 111 129 172q80 63 170 63q121 0 199 -92q77 -90 77 -267v-285q3 -66 27 -93q23 -26 86 -34 q-43 -195 -280 -195q-122 0 -195 59q-72 59 -72 208v304q0 76 -46 76q-51 0 -81 -81l-2 -305q7 -101 43 -193q-30 -6 -122 -29q-97 -24 -139 -32q-60 -11 -86 -11q-44 0 -70 16t-40 52q-10 26 -18 65q-3 15 -7 79v358q0 75 -48 75q-54 0 -88 -80v-300q7 -98 45 -193 l-126 -29q-92 -21 -141 -30q-60 -11 -84 -11q-44 0 -70 16t-40 52q-11 27 -18 64q-3 15 -7 79v457q-43 3 -77 20q-30 15 -48 41q-16 24 -27 59q-9 31 -13 63q-2 18 -2 63z" />
<glyph unicode="n" horiz-adv-x="1302" d="M-7 898q91 3 263 25q161 21 230 27q34 0 59 -11q23 -10 37 -27q14 -18 20 -43q5 -23 5 -46v-51v-57q121 237 345 237q126 0 198 -92q74 -94 74 -269v-285q3 -66 27 -93q23 -26 89 -34q-45 -195 -276 -195q-284 0 -284 267v305q0 75 -51 75q-48 0 -86 -65 q-36 -62 -39 -165l3 -154q7 -98 45 -193l-127 -29q-82 -19 -145 -30q-61 -11 -86 -11q-44 0 -70 16q-25 15 -39 52q-11 27 -18 64q-4 22 -8 79v457q-43 3 -77 20q-30 15 -48 41q-16 24 -27 59q-8 26 -12 63q-2 18 -2 63z" />
<glyph unicode="o" d="M61 437q0 223 145 368t416 145q278 0 414 -124q134 -122 134 -340q0 -222 -141 -366t-409 -147l2 4q-288 0 -425 122q-136 121 -136 338zM486 461q0 -59 32 -101q33 -43 95 -43q54 0 91 40q38 41 38 107q0 69 -34 109t-88 40q-56 0 -93 -40q-38 -41 -38 -107z" />
<glyph unicode="p" horiz-adv-x="1270" d="M-11 903q85 3 244 25q147 21 213 27q38 0 63 -14t32 -45q9 -39 11 -56q4 -32 4 -64v-56q52 119 145 176q95 59 208 59q161 0 252 -115q92 -116 92 -319q0 -249 -111 -396q-109 -145 -280 -145q-157 0 -263 111v-276q3 -71 26 -104q25 -36 86 -43q-45 -193 -258 -193 q-135 0 -216 97q-81 98 -81 297l-2 792q-165 3 -165 242zM593 504q0 -77 32 -126q32 -50 99 -50q51 0 79 36q27 34 27 84q0 74 -49 118q-47 43 -118 43q-41 0 -70 -12v-93z" />
<glyph unicode="q" horiz-adv-x="1204" d="M56 362q0 266 164 428t456 162q179 0 315 -70q138 -71 145 -199l-2 -950q8 -100 45 -194q-51 -9 -125 -26q-109 -25 -140 -31q-60 -11 -84 -11q-44 0 -70 16t-40 52q-10 26 -18 65q-3 15 -7 79v437q-105 -145 -304 -145q-160 0 -248 107q-87 106 -87 280zM477 446 q0 -107 91 -107q56 0 91 46q36 47 36 129l2 95q-23 13 -59 13q-64 0 -113 -49q-48 -48 -48 -127z" />
<glyph unicode="r" horiz-adv-x="1100" d="M-11 901q92 3 264 25q163 21 229 27q36 0 59 -10q25 -11 38 -27q14 -18 20 -43q5 -23 5 -47v-50v-74q63 135 129 192q68 59 161 59q90 0 138 -59q49 -60 49 -154q-6 -137 -142 -215q-88 48 -168 48q-110 0 -167 -84l-5 -181q3 -67 26 -93t90 -34q-43 -195 -276 -195 q-283 0 -283 267v403q-43 3 -77 20q-32 16 -49 41q-14 21 -26 59q-9 31 -13 63q-2 18 -2 62z" />
<glyph unicode="s" horiz-adv-x="1060" d="M73 201q0 53 31 100q31 46 84 70q145 -91 323 -91q57 0 57 32q0 20 -48 30q-81 18 -119 25q-63 12 -139 38q-69 24 -119 84q-48 59 -48 149q0 149 133 235t381 86q196 0 301 -54q106 -55 106 -152q0 -51 -38 -97q-39 -47 -114 -70q-48 38 -140 66q-88 27 -172 27 q-68 0 -68 -30l-7 5q0 -17 53 -30l133 -34q82 -20 156 -49q80 -31 133 -91t53 -149q0 -315 -509 -315q-423 0 -423 215z" />
<glyph unicode="t" horiz-adv-x="847" d="M45 1142q281 71 353 71q131 0 131 -208l-2 -48q117 0 231 39q4 -24 20 -96q3 -14 25 -108q11 -47 11 -70q0 -98 -162 -98h-123v-119q0 -228 233 -249q-13 -153 -94 -211q-82 -59 -222 -59q-66 0 -125 21q-58 21 -113 65q-53 43 -86 123q-31 76 -34 187v548 q-7 124 -43 212z" />
<glyph unicode="u" horiz-adv-x="1274" d="M-13 900q92 3 264 25q163 21 229 27q34 0 59 -11t38 -27q14 -18 20 -43q5 -23 5 -47v-50v-399q0 -76 63 -76q38 0 66 49q27 48 27 132l-5 205q-7 95 -43 193q312 72 356 72q36 0 59 -13q26 -15 38 -32q16 -23 22 -48q7 -26 10 -54q3 -25 6 -61v-493q8 -101 44 -193 l-127 -29q-102 -23 -145 -31q-56 -10 -86 -10q-44 0 -70 16q-25 15 -39 52q-11 27 -18 64q-3 15 -7 79v20q-61 -125 -140 -183q-78 -57 -188 -57q-127 0 -199 84t-72 258v335q-43 3 -77 20q-30 15 -48 41q-16 24 -27 59q-9 31 -13 63q-2 18 -2 63z" />
<glyph unicode="v" d="M-39 685q30 268 258 268q54 0 96 -16q48 -18 74 -39q29 -24 54 -65q28 -47 41 -77q14 -31 32 -91q14 -45 23 -95l20 -102q3 -18 7 -36.5t7.5 -36.5t5.5 -26q3 3 27 54l36 77q3 7 12 30t16 40q19 44 27 80q9 41 9 65q0 83 -57 118q27 54 93 86q67 33 145 33q101 0 170 -56 q70 -57 70 -167q0 -83 -73 -220l-147 -256q-74 -126 -74 -183q0 -28 6 -48l-8 -2q-154 -43 -292 -43q-239 0 -317 191q-27 68 -52 167l-43 174q-17 70 -59 122q-44 54 -107 54z" />
<glyph unicode="w" horiz-adv-x="1591" d="M-32 715q20 237 251 237q89 0 148 -33q60 -34 94 -107q32 -70 50 -162q12 -65 28 -225l86 243q24 66 49 95q24 27 75 27h97q54 0 79 -28q26 -29 46 -92l83 -272l19 61q20 59 25 80q2 9 9 36t11 45q11 50 11 82q0 100 -57 135l-6 -7q23 55 92 86q68 30 145 30 q104 0 172 -55q70 -57 70 -167q0 -93 -49 -219l-98 -240q-49 -118 -49 -192q0 -2 9 -51q-156 -49 -254 -49q-213 0 -264 192l-62 285l-84 -269q-15 -48 -15 -93q0 -38 7 -66q-156 -49 -252 -49q-201 0 -258 172q-13 42 -40 204q-27 164 -64 264q-37 102 -104 102z" />
<glyph unicode="x" horiz-adv-x="1154" d="M59 161q0 87 66 163l183 181l-9 15q-72 98 -120 141q-44 40 -107 43q0 79 27 133t69 77q44 24 79 32q41 9 74 9q105 0 181 -50q78 -51 175 -199l36 52q47 70 47 143q0 20 -7 33q82 19 136 19q98 0 161 -46t63 -145q0 -93 -66 -163l-165 -178q51 -74 95 -102 q42 -26 111 -29q32 0 54 7h-8q13 -39 13 -82q0 -105 -70 -172q-69 -66 -185 -66q-202 0 -354 222l-25 32l-51 -66q-61 -91 -64 -176q-76 -19 -117 -19q-98 0 -161 46q-61 45 -61 145z" />
<glyph unicode="y" horiz-adv-x="1232" d="M-16 892q81 2 263 26q136 18 230 26q36 0 59 -10t37 -27q14 -18 20 -43q6 -27 6 -47v-50v-400q0 -75 62 -75q41 0 68 48t27 133v208q-7 101 -43 193q312 72 346 72q38 0 59 -12q25 -14 38 -33q14 -20 21 -48q9 -34 11 -54q0 -3 5 -61v-229q0 -133 -8 -256 q-7 -106 -33 -240q-25 -128 -66 -217q-43 -93 -108 -169t-163 -116t-225 -40q-146 0 -232 74q-82 70 -82 181q0 124 106 175q60 -52 147 -52q55 0 98 27q44 27 68 65q23 36 40 91q13 44 21 101q6 45 6 95l-9 -9q-65 -138 -142 -194q-75 -55 -188 -55q-272 0 -272 342v335 q-44 3 -78 20q-30 15 -48 41q-16 24 -27 59q-8 26 -12 63q-2 18 -2 62z" />
<glyph unicode="z" horiz-adv-x="1076" d="M47 765q0 185 279 185l414 -20h41h38h30q26 0 31 2q4 2 23 5q18 3 25 6l22 7q10 3 21 9q61 -109 61 -210q0 -47 -14 -86q-13 -36 -47 -70q-37 -37 -59 -54q-14 -11 -79 -53l-254 -140q2 0 106 -4q78 -3 118 -3q110 0 202 19q63 -132 63 -204q0 -168 -249 -168 q-103 0 -258 7t-238 7q-112 0 -183 -11q-68 110 -68 201q0 111 96 177l432 239h-274q-114 0 -210 -29q-69 139 -69 188z" />
<glyph unicode="{" horiz-adv-x="725" d="M9 513q0 51 45 51q30 0 59 9q23 7 36 20q9 9 16 36q5 20 5 38v44v248q0 155 83 242q84 89 236 89q86 0 145 -41q60 -42 60 -127q0 -24 -6 -54q-60 0 -98 -38t-38 -109v-116q0 -247 -231 -291q112 -20 170 -91q59 -73 59 -194v-116q0 -71 38 -109t100 -38q6 -30 6 -54 q0 -85 -60 -127q-59 -41 -145 -41q-152 0 -236 89q-83 87 -83 242v248v44q0 18 -5 38q-7 27 -16 36q-13 13 -36 20q-29 9 -59 9l-2 -8q-20 0 -32 15q-11 14 -11 36z" />
<glyph unicode="|" horiz-adv-x="392" d="M22 1263q107 52 179 52q139 0 139 -193v-1126q0 -101 31 -182q-107 -52 -179 -52q-140 0 -140 193v1126q0 104 -30 182z" />
<glyph unicode="}" horiz-adv-x="725" d="M30 -88q0 24 6 54q62 0 100 38t38 109v116q0 121 59 194q58 71 170 91q-231 44 -231 291v116q0 73 -38 111t-98 38q-6 30 -6 54q0 85 60 127q59 41 145 41q152 0 236 -88q83 -87 83 -242v-247v-45q0 -17 5 -37q6 -24 16 -34t36 -18q29 -9 59 -9q45 0 45 -52 q0 -22 -11 -36t-32 -14l-2 -6q-30 0 -59 -9q-26 -8 -36 -18t-16 -34q-5 -20 -5 -37v-45v-248q0 -154 -83 -241q-84 -88 -236 -88q-86 0 -145 41q-60 42 -60 127z" />
<glyph unicode="~" horiz-adv-x="1141" d="M25 461q0 119 75 186q76 68 210 68q94 0 256 -57q165 -58 230 -58q110 0 145 102q80 -20 127 -80q48 -62 48 -145q0 -115 -75 -185q-74 -70 -210 -70q-93 0 -258 58q-162 57 -227 57q-110 0 -145 -100l1 -2q-82 20 -129 80q-48 61 -48 146z" />
<glyph unicode="&#xa1;" horiz-adv-x="485" d="M20 -204v-2q20 38 30 147q17 173 31 356q4 94 5 101q13 131 151 131q63 0 177 -34q-2 -38 20 -280q21 -228 21 -267q0 -195 -215 -195q-106 0 -220 43zM47 758q0 79 61 140q63 63 163 63l-2 -6q95 0 143 -45q49 -46 49 -120q0 -79 -61 -140q-60 -60 -163 -60 q-93 0 -142 46q-48 45 -48 122z" />
<glyph unicode="&#xa2;" horiz-adv-x="1071" d="M125 412q0 414 353 482v6q0 97 -8 134q49 39 112 39q110 0 110 -143v-32q126 -8 208 -56q80 -47 80 -141q0 -109 -116 -153q-115 70 -226 70q-177 0 -177 -183q0 -79 44 -123q45 -45 137 -45q53 0 112 14q53 13 76 25l71 38q88 -40 88 -147q0 -99 -88 -150 q-90 -52 -216 -65q0 -91 7 -129q-49 -39 -113 -39q-108 0 -108 145v30q-346 57 -346 423z" />
<glyph unicode="&#xa4;" horiz-adv-x="1270" d="M145 224q0 108 136 108l525 1q104 0 129 7q38 -55 38 -107q0 -49 -29 -75q-30 -27 -107 -27h-187v-34q0 -67 -26 -83t-110 -16h-77q-87 0 -113 16q-27 17 -27 83v34q-92 0 -114 -7q-38 55 -38 100zM145 482q0 108 136 108h16v229q-76 0 -114 -7q-38 58 -38 140 q0 116 138 116h468q259 0 371 -102q113 -102 113 -258q0 -151 -128 -238t-358 -87l-452 -1q-92 0 -114 -7q-38 55 -38 107zM650 591h65q154 0 154 117q0 113 -154 113h-65v-230z" />
<glyph unicode="&#xa5;" horiz-adv-x="1231" d="M116 900q13 93 76 139q64 47 140 47q41 0 86 -9q36 -7 69 -34q36 -30 54 -50q25 -28 49 -77q28 -55 43 -93q4 -10 46 -119l144 262q32 60 32 118q33 6 156 6q150 0 150 -135q0 -84 -64 -161l-165 -219h39q106 0 131 7q38 -59 38 -102q0 -97 -131 -97h-645q-107 0 -135 -7 q-35 58 -35 102q0 97 129 97l62 -3l-127 182q-76 117 -142 146zM194 226q0 97 129 97h646q106 0 131 7q38 -59 38 -102q0 -97 -131 -97h-184v-34q0 -67 -27 -84q-28 -17 -110 -17h-79q-86 0 -114 17q-27 17 -27 84v34h-102q-107 0 -135 -7q-35 58 -35 102z" />
<glyph unicode="&#xa7;" horiz-adv-x="924" d="M20 516q0 89 43 156t122 97q-92 78 -92 188q0 153 118 231q120 79 289 79q164 0 256 -59t92 -153q0 -115 -106 -166q-114 79 -233 79q-41 0 -61 -7q-23 -8 -20 -29q3 -23 50 -36q46 -13 119 -30q71 -17 140 -43q68 -26 118 -90q48 -62 48 -151t-43 -156q-42 -65 -122 -96 q92 -72 92 -188q0 -106 -63 -180q-61 -72 -154 -102q-85 -28 -206 -28q-164 0 -255 64t-91 160q0 52 29 96q31 47 80 70l-5 -16q110 -90 245 -90q40 0 63 9q20 8 20 33q0 19 -34 32q-30 12 -88 23q-43 8 -115 33q-62 21 -114 50q-54 30 -88 86t-34 134zM357 586l1 -4 q0 -26 27 -50q26 -23 54 -37q55 -28 88 -42q39 23 39 76q0 19 -10 35q-11 17 -43 36q-19 11 -52 29q-25 14 -70 32q-34 -27 -34 -75z" />
<glyph unicode="&#xa8;" horiz-adv-x="894" d="M25 1030q0 72 57 129q58 58 155 58q88 0 134 -41q45 -40 45 -113q0 -71 -58 -131q-57 -59 -154 -59q-90 0 -134 43q-45 44 -45 114zM477 1030q0 72 57 129q58 58 154 58q89 0 135 -41q44 -40 44 -113t-57 -131q-57 -59 -154 -59q-91 0 -135 43t-44 114z" />
<glyph unicode="&#xa9;" horiz-adv-x="1336" d="M23 527q0 131 38 242q38 110 113 199q77 91 204 138q129 48 298 48q342 0 489 -147q149 -149 149 -419q0 -131 -38 -242q-38 -112 -109 -199q-72 -89 -199 -140q-124 -50 -292 -50l-2 -4q-349 0 -500 149t-151 425zM324 516q0 -156 94 -247q95 -92 274 -92l-6 2 q139 0 210 43q73 44 73 118q0 85 -53 119q-60 -31 -160 -31q-143 0 -143 120q0 48 30 81q29 32 76 32q67 0 118 -57q68 0 107 32q40 33 40 84q0 77 -75 131t-190 54q-192 0 -293 -104q-102 -105 -102 -285z" />
<glyph unicode="&#xab;" horiz-adv-x="1308" d="M14 489q0 66 63 118l448 337q11 -19 23 -32q6 -6 11 -12t8.5 -11.5t4.5 -6.5q91 -122 91 -188q0 -63 -73 -112l-153 -95l151 -84q39 -25 57 -55q20 -34 20 -56q0 -62 -88 -177q-46 -60 -52 -76l-448 327q-63 46 -63 123zM627 489q0 67 65 118l446 337q1 -2 25 -32t25 -32 q91 -128 91 -188q0 -63 -75 -111l-152 -95l150 -85q42 -25 60 -55q19 -32 19 -56q0 -56 -88 -177q-34 -45 -53 -75l-448 328q-65 45 -65 123z" />
<glyph unicode="&#xac;" horiz-adv-x="908" d="M9 493q0 141 186 141h525q84 0 122 -46t38 -156v-145q0 -103 -36 -142q-34 -37 -106 -37q-50 0 -123 25v166q0 19 -8 27q-7 7 -26 7h-547q-2 16 -11 56q-6 28 -10 59q-4 32 -4 45z" />
<glyph unicode="&#xad;" horiz-adv-x="802" d="M22 541q0 89 48 122t154 36h323q123 0 191 32q40 -98 40 -204q0 -86 -47 -120q-42 -31 -150 -34l-328 -4q-124 0 -192 -32q-39 95 -39 204z" />
<glyph unicode="&#xae;" horiz-adv-x="897" d="M25 799q0 183 108 299q109 117 324 117q224 0 321 -97q96 -96 96 -276q0 -186 -102 -301t-315 -118q-235 0 -333 97q-99 98 -99 279zM226 688q0 -59 14 -81q14 -21 54 -21q37 0 115 21q-13 55 -13 103l2 19h20h21q16 -82 47 -113q28 -28 86 -28q97 0 104 107 q-55 20 -79 70q64 30 64 129q-3 78 -61 115q-59 38 -190 38h-96q-56 0 -72 -29t-16 -86v-244zM398 826v104h41q52 0 52 -50q0 -56 -61 -56q-27 0 -32 2z" />
<glyph unicode="&#xaf;" horiz-adv-x="716" d="M23 1068q0 68 43 108q42 39 124 39q17 0 188 -9q39 -2 79 -4.5t59 -3.5t25 -1l-5 2q74 0 113 16q37 -61 37 -129q0 -69 -39 -108q-40 -40 -115 -43q-22 0 -193 9q-38 2 -79 4.5t-60.5 3.5t-25.5 1q-74 0 -113 -16q-38 68 -38 131z" />
<glyph unicode="&#xb0;" horiz-adv-x="815" d="M23 830q0 160 106 274q105 113 301 113l4 -2q166 0 265 -90q97 -88 97 -261q0 -172 -102 -274q-103 -103 -293 -103q-183 0 -281 92q-97 91 -97 251zM332 840q0 -49 25 -77q23 -26 64 -26q34 0 61 30t27 84l-4 -2q0 106 -82 106q-39 0 -65 -32t-26 -83z" />
<glyph unicode="&#xb1;" horiz-adv-x="965" d="M16 758q0 74 43 111q44 38 160 38h64q20 0 27 7t7 27v32q0 143 -12 188q83 52 175 52q76 0 119 -43t43 -152v-109h69q129 0 194 32q41 -100 41 -176q0 -72 -43 -109q-44 -38 -158 -38l-68 -5q-20 0 -27 -7t-7 -27v-27q0 -43 13 -118q-136 -31 -199 -31q-138 0 -138 97 v115h-68q-127 0 -194 -33q-41 100 -41 176zM22 211q0 75 43 112t159 37h484q128 0 193 32q42 -103 42 -175t-43 -109q-44 -38 -158 -38l-486 -2q-128 0 -193 -32q-41 100 -41 175z" />
<glyph unicode="&#xb4;" horiz-adv-x="525" d="M13 1149q0 32 23 61l260 322q63 -11 118 -50q59 -42 79 -97q17 -38 11 -82q-6 -45 -40 -72l-294 -236q-61 21 -107 60q-50 43 -50 94z" />
<glyph unicode="&#xb5;" horiz-adv-x="1352" d="M-13 896q92 3 275 25q176 21 236 27q34 0 59 -11t38 -27q14 -18 20 -43q5 -23 5 -46v-50v-454q0 -93 66 -93q62 0 106 65q43 64 43 188v208q-7 95 -43 193q312 72 357 72q36 0 59 -13q24 -14 37 -32q16 -23 22 -48q9 -34 11 -54q0 -3 5 -61v-493q7 -98 45 -193l-127 -29 q-99 -23 -146 -31q-56 -10 -86 -10q-132 0 -132 172v14l-2 -7q-27 -98 -73 -143q-46 -44 -128 -44q-84 0 -118 69v-144q0 -105 52 -168q51 -61 118 -67q-7 -98 -70 -150q-60 -50 -150 -50q-289 0 -289 365v816q-55 3 -96 27q-39 23 -59 64t-27 77q-8 40 -8 79z" />
<glyph unicode="&#xb6;" horiz-adv-x="1223" d="M16 425q0 248 156 383t450 135h405q42 0 132 5q43 -61 43 -122t-43 -104q-42 -42 -114 -45l-2 -1026q-22 -11 -68 -11q-74 0 -108 34t-34 118v878h-77v-1018q-23 -10 -70 -10q-73 0 -107 34t-34 118v279q-65 -41 -165 -41q-180 0 -272 113t-92 280zM373 462q0 -54 25 -93 q24 -37 75 -37q39 0 70 25v311q-85 -6 -127 -61q-43 -56 -43 -145z" />
<glyph unicode="&#xb8;" horiz-adv-x="596" d="M20 -378q0 63 34 107q68 -39 186 -39q75 0 75 30q0 18 -34 24q-29 5 -77 5q-41 0 -77 22q-34 21 -34 68q0 19 6 46l34 156h231l-24 -113q115 -14 176 -75q63 -63 63 -147q0 -128 -97 -186q-98 -59 -245 -59q-217 0 -217 161z" />
<glyph unicode="&#xbb;" horiz-adv-x="1308" d="M23 694q0 54 88 179q51 70 54 75l448 -332q64 -45 64 -123q0 -67 -64 -118l-446 -337q-1 1 -4.5 6.5t-8.5 11.5t-11 12q-17 19 -27 36q-91 125 -91 188t75 111l153 93l-153 86q-38 25 -57 56q-20 34 -20 56zM642 692q0 60 87 179q51 70 54 75l445 -326q62 -48 62 -125 q0 -68 -62 -119l-448 -337q-2 2 -5 6.5t-7.5 12t-9.5 14.5q-20 29 -23 32q-92 122 -92 188q0 62 74 111l154 93l-154 86q-75 48 -75 110z" />
<glyph unicode="&#xbc;" horiz-adv-x="1998" d="M14 1091q31 8 138 42q56 18 154 46q62 18 113 18h63q58 0 81 -23t23 -76v-422l158 -2q28 -50 28 -106q0 -104 -120 -104h-589q-29 49 -29 108q0 102 122 102h75v281q-89 0 -145 31q-52 29 -72 105zM511 81q50 37 91 96l599 884q57 81 145 81q114 0 166 -103 q-50 -37 -91 -96l-598 -884q-57 -81 -146 -81q-115 0 -166 103zM1106 260q0 52 39 91l323 305q72 72 161 72h129q100 0 100 -99l-3 -314l96 6q24 -33 24 -68q0 -33 -25 -58t-70 -25h-23v-163q-78 -25 -162 -25q-188 0 -188 111v77h-115q-158 0 -247 -3q-39 42 -39 93z M1321 315h184v183z" />
<glyph unicode="&#xbd;" horiz-adv-x="2073" d="M14 1091q31 8 138 42q56 18 154 46q62 18 113 18h63q58 0 81 -23t23 -76v-422l158 -2q28 -50 28 -106q0 -104 -120 -104h-589q-29 49 -29 108q0 102 122 102h75v281q-89 0 -145 31q-52 29 -72 105zM511 81q50 37 91 96l599 884q57 81 145 81q114 0 166 -103 q-50 -37 -91 -96l-598 -884q-57 -81 -146 -81q-115 0 -166 103zM1265 111q0 105 136 156q54 20 108 41q25 10 68 32q42 22 52 40q11 20 11 43q0 28 -25 48t-76 20q-92 0 -182 -50q-92 59 -92 131q0 77 97 120q96 43 258 43q176 0 274 -54q97 -54 97 -161q0 -201 -378 -289 l123 -9q135 0 198 58q46 -19 82 -63q32 -39 32 -86q0 -59 -50 -99q-49 -39 -158 -39h-535q-40 64 -40 118z" />
<glyph unicode="&#xbe;" horiz-adv-x="2005" d="M20 625q0 77 66 120q106 -66 238 -66q108 0 108 54q0 29 -32 36q-40 9 -115 9q-54 0 -54 37v18q0 34 47 54l184 68h-242q-78 0 -118 43q-41 44 -41 102q0 66 54 110q53 -18 177 -18l362 -4q54 0 79 -25q24 -24 21 -73l-3 -69q-6 -51 -75 -80l-178 -70q148 -6 217 -52 q66 -44 66 -134q0 -235 -401 -235q-168 0 -264 43t-96 132zM520 77q49 36 91 97l599 883q57 81 145 81q115 0 166 -102q-49 -36 -91 -97l-599 -883q-57 -81 -145 -81q-115 0 -166 102zM1118 258q0 51 40 91l322 305q72 72 161 72h129q101 0 101 -99l-4 -313l97 5 q23 -32 23 -68q0 -32 -25 -57q-26 -26 -70 -26h-23v-163q-78 -25 -161 -25q-188 0 -188 111v77h-115q-159 0 -247 -3q-40 43 -40 93zM1333 314h185v182z" />
<glyph unicode="&#xbf;" horiz-adv-x="883" d="M13 30q0 74 30 133q32 63 72 97q55 47 86 72q40 31 71 77q31 45 31 93q68 48 193 48q88 0 146 -37q59 -38 59 -113q0 -58 -42 -108q-40 -47 -89 -75q-58 -32 -90 -54q-41 -27 -41 -47q0 -34 91 -34q113 0 228 49q109 -64 109 -170q0 -110 -100 -169t-285 -59 q-85 0 -154 13q-74 14 -147 43q-76 30 -120 91q-45 62 -48 150zM263 760q0 79 61 140q62 62 163 62l-1 -5q95 0 143 -45t48 -120q0 -79 -61 -140t-163 -61q-91 0 -141 47q-49 46 -49 122z" />
<glyph unicode="&#xc0;" horiz-adv-x="1200" d="M48 122q3 44 25 98l228 543q40 90 75 142l-1 -5q-83 -3 -131 -9q-45 94 -45 168q0 152 249 152h323q93 0 143 -37q51 -37 84 -133l265 -797q32 -105 76 -196q-202 -66 -301 -66q-62 0 -104 36q-39 33 -70 124l-24 71h-392l-82 -215h-198q-63 0 -93 38t-27 86zM317 1650 q24 56 81 97q59 42 118 49l260 -323q25 -28 25 -61q0 -50 -50 -93q-47 -40 -108 -61l-294 237q-66 50 -32 155zM557 507q-7 -30 22 -30h172l-92 294z" />
<glyph unicode="&#xc1;" horiz-adv-x="1198" d="M48 122q3 44 25 98l228 543q40 90 75 142l-1 -5q-83 -3 -131 -9q-45 94 -45 168q0 152 249 152h323q93 0 143 -37q51 -37 84 -133l265 -797q32 -105 76 -196q-202 -66 -301 -66q-62 0 -104 36q-39 33 -70 124l-24 71h-392l-82 -215h-198q-63 0 -93 38t-27 86zM491 1410 q0 32 23 61l260 323q63 -11 118 -50q59 -42 79 -97q17 -38 11 -83t-39 -71l-294 -237q-61 21 -108 61q-50 43 -50 93zM557 507q-7 -30 22 -30h172l-92 294z" />
<glyph unicode="&#xc2;" horiz-adv-x="1200" d="M43 125q-3 -48 27 -86q30 -37 95 -37h197l82 215h393l23 -72q30 -89 70 -123q41 -35 106 -35q96 0 301 67q-42 87 -75 195l-266 798q-34 96 -82 132q-52 38 -142 38h-322q-249 0 -249 -153q0 -74 45 -168q49 6 130 9l-5 4q-35 -52 -75 -142l-228 -543q-22 -54 -25 -99z M269 1360q-16 50 43 129l97 118q44 55 78 74q35 20 95 20q127 0 194 -42l222 -281q-13 -56 -66 -88q-52 -32 -117 -32q-83 0 -123 54l-86 148l-68 -109q-22 -32 -54 -97q-82 0 -140 27t-75 79zM556 516l102 264l91 -294h-172q-29 0 -21 30z" />
<glyph unicode="&#xc3;" horiz-adv-x="1200" d="M43 125q-3 -48 27 -86q30 -37 95 -37h197l82 215h393l23 -72q30 -89 70 -123q41 -35 106 -35q96 0 301 67q-42 87 -75 195l-266 798q-34 96 -82 132q-52 38 -142 38h-322q-249 0 -249 -153q0 -74 45 -168q49 6 130 9l-5 4q-35 -52 -75 -142l-228 -543q-22 -54 -25 -99z M231 1425q0 160 188 168q53 0 167 -14q122 -15 143 -15q94 0 124 76q72 -8 111 -50q40 -43 43 -110v-3q0 -86 -55 -128q-56 -43 -151 -43q-38 0 -143 15q-98 14 -140 14q-100 0 -135 -68q-66 7 -109 50t-43 108zM556 516l102 264l91 -294h-172q-29 0 -21 30z" />
<glyph unicode="&#xc4;" horiz-adv-x="1200" d="M43 125q-3 -48 27 -86q30 -37 95 -37h197l82 215h393l23 -72q30 -89 70 -123q41 -35 106 -35q96 0 301 67q-42 87 -75 195l-266 798q-34 96 -82 132q-52 38 -142 38h-322q-249 0 -249 -153q0 -74 45 -168q49 6 130 9l-5 4q-35 -52 -75 -142l-228 -543q-22 -54 -25 -99z M213 1434q0 71 58 129q57 57 154 57q88 0 134 -41q45 -41 45 -113t-57 -131t-155 -59q-90 0 -134 43q-45 43 -45 115zM556 516l102 264l91 -294h-172q-29 0 -21 30zM665 1434q0 72 57 129t154 57q89 0 135 -41q44 -40 44 -113q0 -72 -57 -131t-154 -59q-90 0 -134 43 q-45 43 -45 115z" />
<glyph unicode="&#xc5;" horiz-adv-x="1200" d="M43 125q-3 -48 27 -86q30 -37 95 -37h197l82 215h393l23 -72q30 -89 70 -123q41 -35 106 -35q96 0 301 67q-42 87 -75 195l-266 798q-34 96 -82 132q-52 38 -142 38h-322q-249 0 -249 -153q0 -74 45 -168q49 6 130 9l-5 4q-35 -52 -75 -142l-228 -543q-22 -54 -25 -99z M358 1496q0 99 74 171q70 69 210 69l3 -1q117 0 183 -56t66 -163q0 -109 -70 -170q-72 -63 -204 -63q-127 0 -195 57q-67 57 -67 156zM556 516l102 264l91 -294h-172q-29 0 -21 30zM573 1502q0 -65 61 -65q23 0 43 20q18 18 18 52l-1 -4q0 65 -58 65q-25 0 -43 -18 q-20 -20 -20 -50z" />
<glyph unicode="&#xc6;" horiz-adv-x="1679" d="M50 118q6 45 31 99l254 543q35 77 81 141q-83 -3 -131 -9q-39 69 -39 156q0 163 259 163h907q123 0 188 18q56 -74 56 -177q0 -52 -22 -88q-21 -35 -61 -48q-39 -13 -71 -16q-44 -4 -83 -4h-256v-113q0 -20 5 -25t22 -5h322q24 -59 24 -120q0 -169 -224 -169h-149v-116 q0 -20 5 -25q6 -6 22 -6l229 -7q103 0 188 23q56 -74 56 -182q0 -52 -22 -88t-60 -49q-39 -13 -72 -16t-83 -3h-483q-97 0 -147 37q-51 37 -51 154v24h-292l-93 -215h-197q-64 0 -91 37q-28 39 -22 86zM579 505q-7 -30 21 -30h142v417z" />
<glyph unicode="&#xc7;" horiz-adv-x="1145" d="M79 556q0 297 156 480t475 183q87 0 159 -13q78 -14 140 -43q65 -30 102 -84q38 -55 38 -127q0 -66 -38 -121q-37 -53 -104 -77q-162 90 -285 90q-211 0 -211 -244q0 -109 53 -166q54 -59 165 -59q155 0 319 100q53 -31 79 -83q27 -54 27 -114q0 -133 -109 -203 q-106 -68 -269 -88l-11 -57q115 -14 176 -75q63 -63 63 -147q0 -128 -97 -186q-100 -60 -246 -60q-217 0 -217 162q0 63 34 107q68 -39 187 -39q75 0 75 30q0 18 -34 24q-29 5 -77 5q-43 0 -77 21t-34 69q0 23 5 46l24 104q-235 35 -350 183t-115 387z" />
<glyph unicode="&#xc8;" horiz-adv-x="1145" d="M13 1055q0 69 48 113q47 43 140 43h672q123 0 188 18q55 -72 55 -177q0 -54 -21 -88q-21 -35 -61 -48q-39 -13 -72 -16q-44 -4 -82 -4h-244v-113q0 -19 6 -25q5 -5 21 -5h310q23 -56 23 -120q0 -169 -224 -169h-136v-116q0 -19 6 -25t21 -6l219 -5q103 0 188 23 q55 -72 55 -183q0 -52 -21 -87q-22 -36 -61 -49t-72 -16q-44 -4 -82 -4h-486q-95 0 -147 38q-50 37 -50 154v708q-55 0 -136 -9q-57 84 -57 168zM297 1650q24 56 81 97q59 42 118 49l260 -323q25 -28 25 -61q0 -50 -50 -93q-48 -41 -107 -61l-294 237q-67 51 -33 155z" />
<glyph unicode="&#xc9;" horiz-adv-x="1145" d="M13 1055q0 69 48 113q47 43 140 43h672q123 0 188 18q55 -72 55 -177q0 -54 -21 -88q-21 -35 -61 -48q-39 -13 -72 -16q-44 -4 -82 -4h-244v-113q0 -19 6 -25q5 -5 21 -5h310q23 -56 23 -120q0 -169 -224 -169h-136v-116q0 -19 6 -25t21 -6l219 -5q103 0 188 23 q55 -72 55 -183q0 -52 -21 -87q-22 -36 -61 -49t-72 -16q-44 -4 -82 -4h-486q-95 0 -147 38q-50 37 -50 154v708q-55 0 -136 -9q-57 84 -57 168zM378 1410q0 32 23 61l260 323q64 -11 119 -50q57 -41 78 -97q17 -38 11 -83t-39 -71l-294 -237q-61 21 -108 61q-50 43 -50 93z " />
<glyph unicode="&#xca;" horiz-adv-x="1145" d="M7 1059q0 -83 58 -168q81 9 136 9v-708q0 -115 52 -153q50 -37 148 -37h486q51 0 84 3q32 3 74 17q40 13 61 48t21 88q0 110 -55 182q-85 -23 -189 -23l-227 4q-17 0 -22 5t-5 25v117h136q224 0 224 168q0 64 -23 120h-310q-16 0 -22 6q-5 5 -5 25v113h244q49 0 82 3 q36 3 74 16q39 13 61 49q21 34 21 87q0 104 -56 178q-65 -18 -188 -18h-672q-92 0 -139 -43q-49 -44 -49 -113zM244 1380q-16 50 43 129l96 118q43 54 79 74q34 19 95 19q129 0 194 -41l222 -281q-13 -56 -66 -88q-52 -32 -117 -32q-83 0 -123 53l-86 149l-68 -109 q-22 -32 -54 -97q-82 0 -140 27t-75 79z" />
<glyph unicode="&#xcb;" horiz-adv-x="1145" d="M7 1059q0 -83 58 -168q81 9 136 9v-708q0 -115 52 -153q50 -37 148 -37h486q51 0 84 3q32 3 74 17q40 13 61 48t21 88q0 110 -55 182q-85 -23 -189 -23l-227 4q-17 0 -22 5t-5 25v117h136q224 0 224 168q0 64 -23 120h-310q-16 0 -22 6q-5 5 -5 25v113h244q49 0 82 3 q36 3 74 16q39 13 61 49q21 34 21 87q0 104 -56 178q-65 -18 -188 -18h-672q-92 0 -139 -43q-49 -44 -49 -113zM149 1434q0 72 57 129t154 57q89 0 135 -41q44 -40 44 -113q0 -72 -57 -131t-154 -59q-90 0 -134 43q-45 43 -45 115zM600 1434q0 71 58 129q57 57 154 57 q88 0 134 -41q45 -41 45 -113t-57 -131t-154 -59q-91 0 -135 43q-45 43 -45 115z" />
<glyph unicode="&#xcc;" horiz-adv-x="863" d="M52 1061q0 69 48 113q47 43 140 43h353q123 0 188 18q56 -74 56 -178q0 -131 -140 -139q-20 -3 -20 -24v-595q54 0 135 9q57 -84 57 -161q0 -67 -48 -108q-46 -39 -142 -39h-541q-56 74 -56 159q0 132 140 140q20 3 20 24l4 596q-56 0 -137 -9q-57 84 -57 151zM195 1658 q23 55 81 96q59 42 118 49l260 -323q25 -28 25 -61q0 -50 -50 -93q-47 -40 -108 -61l-293 237q-68 51 -33 156z" />
<glyph unicode="&#xcd;" horiz-adv-x="863" d="M52 1061q0 69 48 113q47 43 140 43h353q123 0 188 18q56 -74 56 -178q0 -131 -140 -139q-20 -3 -20 -24v-595q54 0 135 9q57 -84 57 -161q0 -67 -48 -108q-46 -39 -142 -39h-541q-56 74 -56 159q0 132 140 140q20 3 20 24l4 596q-56 0 -137 -9q-57 84 -57 151zM267 1417 q0 32 23 61l260 323q63 -11 118 -50q59 -42 79 -97q17 -38 11 -82q-6 -46 -39 -72l-294 -237q-61 21 -108 61q-50 43 -50 93z" />
<glyph unicode="&#xce;" horiz-adv-x="863" d="M50 1059q0 -65 58 -150q81 9 134 9l-2 -599q0 -20 -20 -23q-139 -7 -139 -140q0 -88 55 -160h541q92 0 142 42q48 41 48 107q0 77 -57 161q-81 -9 -134 -9v595q0 21 19 24q140 8 140 139q0 106 -55 178q-65 -18 -189 -18h-353q-92 0 -139 -43q-49 -44 -49 -113zM100 1367 q-16 50 43 129l97 119q42 52 79 73q35 20 95 20q128 0 193 -41l223 -282q-13 -55 -67 -88q-52 -32 -116 -32q-83 0 -124 54l-86 149l-68 -110q-24 -34 -54 -96q-83 0 -139 26q-59 27 -76 79z" />
<glyph unicode="&#xcf;" horiz-adv-x="885" d="M45 1426q0 72 57 129q58 58 154 58q89 0 135 -41q44 -40 44 -113t-57 -131q-57 -59 -154 -59q-90 0 -134 43q-45 44 -45 114zM63 1059q0 -66 57 -150q81 9 134 9l-1 -599q0 -20 -20 -23q-140 -8 -140 -140q0 -86 56 -160h541q91 0 141 42q49 41 49 107q0 77 -57 161 q-81 -9 -135 -9v595q0 21 20 24q140 8 140 139q0 104 -56 178q-65 -18 -188 -18h-353q-93 0 -140 -43q-48 -44 -48 -113zM496 1426q0 71 58 129t154 58q88 0 134 -41q45 -40 45 -113t-57 -131q-57 -59 -154 -59q-91 0 -135 43q-45 44 -45 114z" />
<glyph unicode="&#xd0;" horiz-adv-x="1292" d="M16 1054q0 50 22 86q21 35 61 48q43 14 78 20q31 5 90 5h375q346 0 516 -150q168 -149 168 -421q0 -332 -193 -491q-192 -158 -534 -158h-169q-58 0 -97 16q-43 18 -62 39q-20 23 -34 65q-14 43 -17 73q-1 10 -1.5 22.5t-1.5 29.5t-2 29v228h-47q-43 0 -95 -13 q-43 50 -43 111q0 102 146 102h39l-7 199q-54 0 -135 -9q-57 84 -57 169zM633 287h26q121 0 183 95q61 94 61 225q0 145 -61 216t-168 71h-40v-204l40 2q47 0 95 12q43 -50 43 -111q0 -102 -145 -102h-34v-204z" />
<glyph unicode="&#xd1;" horiz-adv-x="1335" d="M13 1057q0 69 48 113q47 43 140 43h179q88 -3 150 -32q68 -31 128 -108l310 -437l-2 255q-7 191 -48 286q155 38 209 38q60 0 92 -18q36 -21 52 -59q14 -35 21 -83q5 -36 5 -111l-16 -917q-67 -36 -165 -36q-73 0 -112 11t-67 39l-428 570q5 -25 11 -306q3 -187 46 -285 q-155 -38 -209 -38q-57 0 -92 20q-34 19 -50 59q-14 35 -21 84q-6 43 -6 111v660q-48 0 -118 -9q-57 84 -57 150zM315 1401q0 161 189 169q44 0 166 -15q114 -14 144 -14q93 0 123 75q72 -8 111 -50q40 -43 43 -109v-4q0 -85 -55 -127q-56 -43 -151 -43q-45 0 -143 14 q-105 15 -140 15q-99 0 -134 -68q-68 8 -110 50q-43 43 -43 107z" />
<glyph unicode="&#xd2;" horiz-adv-x="1309" d="M79 566q0 139 37 253q38 116 113 208t199 143q125 52 285 52q608 0 608 -582q0 -132 -36 -253q-34 -112 -108 -210q-71 -93 -193 -147q-119 -53 -280 -53l-3 3q-622 0 -622 586zM412 1659q24 56 81 97q59 42 118 49l260 -323q25 -28 25 -61q0 -50 -50 -93 q-47 -40 -108 -61l-294 236q-67 50 -32 156zM514 599q0 -237 185 -237q190 0 190 238q0 112 -49 178q-48 64 -134 64q-192 0 -192 -242v-1z" />
<glyph unicode="&#xd3;" horiz-adv-x="1309" d="M79 566q0 139 37 253q38 116 113 208t199 143q125 52 285 52q608 0 608 -582q0 -132 -36 -253q-34 -112 -108 -210q-71 -93 -193 -147q-119 -53 -280 -53l-3 3q-622 0 -622 586zM448 1419q0 32 23 61l260 323q63 -11 118 -50q59 -42 79 -97q17 -38 11 -83t-39 -71 l-294 -237q-61 21 -108 61q-50 43 -50 93zM514 599q0 -237 185 -237q190 0 190 238q0 112 -49 178q-48 64 -134 64q-192 0 -192 -242v-1z" />
<glyph unicode="&#xd4;" horiz-adv-x="1309" d="M82 566q0 -586 622 -586l4 -3q160 0 279 53q124 55 194 147q73 96 107 210q36 121 36 253q0 582 -607 582q-160 0 -285 -52q-124 -51 -199 -143t-113 -208q-38 -117 -38 -253zM367 1376q-16 50 43 129l97 119q42 52 79 73q35 20 95 20q128 0 193 -41l223 -282 q-13 -55 -67 -88q-52 -32 -116 -32q-84 0 -124 54l-86 149l-68 -110q-24 -35 -54 -96q-83 0 -139 26q-59 27 -76 79zM514 600v2q0 242 192 242q86 0 134 -64q49 -66 49 -178q0 -238 -190 -238q-185 0 -185 236z" />
<glyph unicode="&#xd5;" horiz-adv-x="1309" d="M82 566q0 -586 622 -586l4 -3q160 0 279 53q124 55 194 147q73 96 107 210q36 121 36 253q0 582 -607 582q-160 0 -285 -52q-124 -51 -199 -143t-113 -208q-38 -117 -38 -253zM303 1435q0 161 188 169q53 0 167 -14q122 -15 143 -15q94 0 124 75q72 -8 111 -50 q40 -43 43 -109v-4q0 -84 -56 -127t-150 -43q-46 0 -144 14q-105 15 -139 15q-100 0 -135 -68q-66 7 -109 50t-43 107zM514 600v2q0 242 192 242q86 0 134 -64q49 -66 49 -178q0 -238 -190 -238q-185 0 -185 236z" />
<glyph unicode="&#xd6;" horiz-adv-x="1309" d="M82 566q0 -586 622 -586l4 -3q160 0 279 53q124 55 194 147q73 96 107 210q36 121 36 253q0 582 -607 582q-160 0 -285 -52q-124 -51 -199 -143t-113 -208q-38 -117 -38 -253zM289 1421q0 72 57 129t154 57q88 0 134 -41q45 -40 45 -113t-57 -131q-57 -59 -154 -59 q-91 0 -135 43t-44 115zM514 600v2q0 242 192 242q86 0 134 -64q49 -66 49 -178q0 -238 -190 -238q-185 0 -185 236zM740 1421q0 72 57 129t155 57q88 0 134 -41q45 -40 45 -113q0 -71 -58 -131q-57 -59 -154 -59q-90 0 -134 43q-45 43 -45 115z" />
<glyph unicode="&#xd7;" horiz-adv-x="992" d="M23 776q80 152 199 152q89 0 206 -111l74 -70l132 133q46 46 119 46q69 0 125 -39q60 -42 81 -99l-258 -229l154 -147q62 -62 114 -88q-84 -148 -204 -148q-90 3 -204 114l-68 63l-131 -133q-46 -46 -118 -46q-71 0 -129 37q-59 38 -76 101l260 229l-159 151 q-72 63 -117 84z" />
<glyph unicode="&#xd8;" horiz-adv-x="1309" d="M79 566q0 139 37 253q38 116 113 208t199 143q125 52 285 52q36 0 47 -2l21 63q51 145 178 145q44 0 100 -25q54 -24 75 -64q-1 -1 -8.5 -21.5t-24.5 -66t-37 -97.5q257 -133 257 -511q0 -131 -36 -252q-34 -112 -108 -210q-71 -93 -193 -147t-280 -54h-32h-29l-28 -66 q-54 -143 -178 -143q-44 0 -100 25q-54 24 -75 64l21 52l27 74q9 23 27 70q-258 132 -258 510zM509 600q0 -236 185 -236q189 0 189 238q0 114 -48 178t-134 64q-192 0 -192 -242v-2z" />
<glyph unicode="&#xd9;" horiz-adv-x="1318" d="M18 1098q0 38 5 63q40 3 162 15q34 3 161 19q54 7 143 16q36 0 59 -16q28 -19 36 -34q14 -26 20 -54q9 -41 9 -59v-64v-520q0 -159 125 -159q124 0 124 159v425q-8 138 -48 253q297 73 333 73q44 0 75 -22q30 -21 43 -64q15 -48 20 -82q3 -20 7 -103l2 -435 q0 -136 -36 -242q-34 -101 -88 -158q-50 -53 -134 -87q-87 -35 -147 -42q-81 -9 -151 -9q-69 0 -150 9q-60 7 -147 42q-86 35 -135 87q-54 57 -89 160q-36 106 -36 242v351q-83 13 -124 81q-39 65 -39 155zM378 1554q23 55 81 96q59 42 118 49l260 -323q25 -28 25 -61 q0 -50 -50 -93q-47 -40 -108 -61l-294 237q-67 50 -32 156z" />
<glyph unicode="&#xda;" horiz-adv-x="1318" d="M18 1098q0 38 5 63q40 3 162 15q34 3 161 19q54 7 143 16q36 0 59 -16q28 -19 36 -34q14 -26 20 -54q9 -41 9 -59v-64v-520q0 -159 125 -159q124 0 124 159v425q-8 138 -48 253q297 73 333 73q44 0 75 -22q30 -21 43 -64q15 -48 20 -82q3 -20 7 -103l2 -435 q0 -136 -36 -242q-34 -101 -88 -158q-50 -53 -134 -87q-87 -35 -147 -42q-81 -9 -151 -9q-69 0 -150 9q-60 7 -147 42q-86 35 -135 87q-54 57 -89 160q-36 106 -36 242v351q-83 13 -124 81q-39 65 -39 155zM577 1314q0 31 23 60l260 323q63 -11 118 -50q59 -42 79 -97 q17 -38 11 -82q-6 -46 -39 -72l-294 -237q-61 21 -108 61q-50 43 -50 94z" />
<glyph unicode="&#xdb;" horiz-adv-x="1318" d="M13 1104q0 -88 41 -156t123 -81v-351q0 -136 36 -242q33 -98 90 -158q50 -53 134 -87q87 -35 147 -42q81 -9 151 -9q69 0 150 9q60 7 147 42q86 35 135 87q54 57 89 160q36 106 36 242l-11 428q-4 82 -7 102q-8 52 -18 85q-13 43 -43 64q-31 22 -75 22q-32 0 -333 -74 q40 -115 48 -253v-424q0 -160 -124 -160q-125 0 -125 160v519v65q0 27 -7 59q-7 35 -18 54q-8 15 -36 34q-23 16 -59 16q-96 -10 -144 -16q-10 -1 -71 -9t-90 -11q-24 -2 -161 -12q-5 -25 -5 -63zM358 1362q-16 50 43 129l97 118q43 54 79 74q34 19 95 19q129 0 194 -41 l222 -281q-13 -55 -67 -88q-52 -32 -116 -32q-83 0 -124 54l-86 148l-68 -109q-22 -32 -54 -97q-81 0 -139 27q-59 27 -76 79z" />
<glyph unicode="&#xdc;" horiz-adv-x="1318" d="M13 1104q0 -88 41 -156t123 -81v-351q0 -136 36 -242q33 -98 90 -158q50 -53 134 -87q87 -35 147 -42q81 -9 151 -9q69 0 150 9q60 7 147 42q86 35 135 87q54 57 89 160q36 106 36 242l-11 428q-4 82 -7 102q-8 52 -18 85q-13 43 -43 64q-31 22 -75 22q-32 0 -333 -74 q40 -115 48 -253v-424q0 -160 -124 -160q-125 0 -125 160v519v65q0 27 -7 59q-7 35 -18 54q-8 15 -36 34q-23 16 -59 16q-96 -10 -144 -16q-10 -1 -71 -9t-90 -11q-24 -2 -161 -12q-5 -25 -5 -63zM276 1426q0 72 57 129q58 58 154 58q89 0 135 -41q45 -40 45 -113 q0 -71 -58 -131q-57 -59 -154 -59q-90 0 -134 43q-45 44 -45 114zM728 1426q0 72 57 129q58 58 154 58q88 0 134 -41q45 -40 45 -113t-57 -131q-57 -59 -154 -59q-91 0 -135 43t-44 114z" />
<glyph unicode="&#xdd;" horiz-adv-x="1234" d="M-9 987q20 131 88 180q69 50 179 50q62 0 113 -27q49 -26 88 -65q35 -35 77 -113q34 -62 66 -136q28 -63 68 -172q5 12 32 61q30 54 43 83q18 39 31 78q16 47 16 86q0 56 -30 94q73 111 225 111q113 0 172 -59q60 -60 60 -149q0 -76 -45 -160q-42 -79 -104 -150 l-131 -158q-78 -99 -111 -161q-29 -55 -29 -113q0 -104 38 -210q-287 -71 -335 -71q-46 0 -76 21q-29 20 -43 65q-9 28 -17 84q-5 30 -8 102v99q0 69 -30 130l-172 348q-83 152 -165 152zM473 1269q0 32 23 61l260 322q63 -11 118 -50q59 -42 79 -97q17 -38 11 -82 q-6 -46 -39 -72l-294 -236q-61 21 -108 61q-50 43 -50 93z" />
<glyph unicode="&#xde;" horiz-adv-x="1207" d="M13 1104q0 38 5 63q70 5 161 14q29 3 90 11t71 9q48 6 144 16q94 0 118 -111h65q568 -17 568 -421q0 -196 -122 -312q-121 -115 -385 -115q-52 0 -115 5q11 -111 43 -204v-2q-297 -73 -337 -73q-45 0 -75 21q-29 20 -43 65q-11 34 -18 84q-3 20 -7 102v611 q-83 13 -124 81q-39 65 -39 156zM607 511h17h21h16l-2 -2q151 0 151 147q0 129 -134 129h-67q-2 5 -2 21v-295z" />
<glyph unicode="&#xdf;" horiz-adv-x="1277" d="M115 199v661q0 130 46 231q45 99 129 156t183 84t221 27q233 0 374 -107q143 -108 143 -280q0 -112 -61 -209l-10 -9q-119 0 -119 -85q0 -34 29 -66q31 -34 70 -63q45 -33 81 -64q39 -33 70 -92q28 -53 28 -127q0 -115 -93 -199q-95 -86 -265 -86q-341 0 -341 181 q0 84 54 151q36 -22 129 -22q55 0 75 13q22 14 22 43q0 31 -29 57q-28 25 -70 50q-31 19 -80 51q-38 26 -70 73q-29 44 -29 106q0 91 59 156q59 66 158 73q0 80 -29 113q-31 36 -93 36q-85 0 -122 -54q-37 -53 -37 -184v-561q7 -125 35 -194q-48 -8 -118 -27 q-36 -10 -125 -32q-52 -13 -83 -13q-40 0 -68 17q-25 15 -39 52q-11 27 -18 64q-3 15 -7 79z" />
<glyph unicode="&#xe0;" d="M14 265q0 104 63 176q61 69 151 97q85 26 202 26q110 0 195 -28q-7 114 -166 114q-189 0 -282 -77q-93 53 -93 158q0 103 126 161q129 60 338 60q92 0 171 -11q71 -10 141 -38q68 -27 111 -70t70 -113q27 -71 27 -164l-4 -187q0 -75 60 -75q13 0 48 11q23 -59 23 -119 q0 -94 -66 -150q-69 -58 -177 -58q-100 0 -165 38q-66 39 -101 138q-95 -170 -328 -176q-150 0 -247 72t-97 215zM315 1392q24 56 81 97q59 42 118 49l260 -323q25 -28 25 -61q0 -50 -50 -93q-48 -41 -107 -61l-294 236q-68 51 -33 156zM441 301q0 -38 21 -59q22 -22 58 -22 q105 0 105 158l-1 45q-32 0 -77 -9q-37 -7 -72 -38q-34 -30 -34 -75z" />
<glyph unicode="&#xe1;" d="M14 265q0 104 63 176q61 69 151 97q85 26 202 26q110 0 195 -28q-7 114 -166 114q-189 0 -282 -77q-93 53 -93 158q0 103 126 161q129 60 338 60q92 0 171 -11q71 -10 141 -38q68 -27 111 -70t70 -113q27 -71 27 -164l-4 -187q0 -75 60 -75q13 0 48 11q23 -59 23 -119 q0 -94 -66 -150q-69 -58 -177 -58q-100 0 -165 38q-66 39 -101 138q-95 -170 -328 -176q-150 0 -247 72t-97 215zM351 1150q0 31 24 61l259 323q64 -11 119 -50q57 -41 78 -97q17 -38 11 -82q-6 -46 -39 -72l-294 -237q-61 21 -108 61q-50 43 -50 93zM441 301q0 -38 21 -59 q22 -22 58 -22q105 0 105 158l-1 45q-32 0 -77 -9q-37 -7 -72 -38q-34 -30 -34 -75z" />
<glyph unicode="&#xe2;" d="M14 265q0 104 63 176q61 69 151 97q85 26 202 26q110 0 195 -28q-7 114 -166 114q-189 0 -282 -77q-93 53 -93 158q0 103 126 161q129 60 338 60q92 0 171 -11q71 -10 141 -38q68 -27 111 -70t70 -113q27 -71 27 -164l-4 -187q0 -75 60 -75q13 0 48 11q23 -59 23 -119 q0 -94 -66 -150q-69 -58 -177 -58q-100 0 -165 38q-66 39 -101 138q-95 -170 -328 -176q-150 0 -247 72t-97 215zM222 1102q-16 50 43 129l97 118q43 54 79 74q35 20 95 20q126 0 193 -42l223 -281q-13 -55 -67 -88q-52 -32 -116 -32q-83 0 -124 54l-86 148l-68 -109 q-22 -32 -54 -97q-81 0 -140 27q-58 27 -75 79zM441 301q0 -38 21 -59q22 -22 58 -22q105 0 105 158l-1 45q-32 0 -77 -9q-37 -7 -72 -38q-34 -30 -34 -75z" />
<glyph unicode="&#xe3;" d="M14 265q0 104 63 176q61 69 151 97q85 26 202 26q110 0 195 -28q-7 114 -166 114q-189 0 -282 -77q-93 53 -93 158q0 103 126 161q129 60 338 60q92 0 171 -11q71 -10 141 -38q68 -27 111 -70t70 -113q27 -71 27 -164l-4 -187q0 -75 60 -75q13 0 48 11q23 -59 23 -119 q0 -94 -66 -150q-69 -58 -177 -58q-100 0 -165 38q-66 39 -101 138q-95 -170 -328 -176q-150 0 -247 72t-97 215zM179 1145q0 161 188 169q45 0 167 -15q114 -14 143 -14q94 0 124 75q72 -8 111 -50q40 -43 43 -109v-4q0 -85 -55 -127q-56 -43 -151 -43q-45 0 -143 14 t-140 14q-99 0 -134 -68q-66 7 -110 51q-43 43 -43 107zM441 301q0 -38 21 -59q22 -22 58 -22q105 0 105 158l-1 45q-32 0 -77 -9q-37 -7 -72 -38q-34 -30 -34 -75z" />
<glyph unicode="&#xe4;" d="M14 265q0 104 63 176q61 69 151 97q85 26 202 26q110 0 195 -28q-7 114 -166 114q-189 0 -282 -77q-93 53 -93 158q0 103 126 161q129 60 338 60q92 0 171 -11q71 -10 141 -38q68 -27 111 -70t70 -113q27 -71 27 -164l-4 -187q0 -75 60 -75q13 0 48 11q23 -59 23 -119 q0 -94 -66 -150q-69 -58 -177 -58q-100 0 -165 38q-66 39 -101 138q-95 -170 -328 -176q-150 0 -247 72t-97 215zM140 1167q0 72 57 129t154 57q89 0 135 -41q44 -40 44 -113t-57 -131q-57 -59 -154 -59q-90 0 -134 43q-45 44 -45 115zM441 301q0 -38 21 -59q22 -22 58 -22 q105 0 105 158l-1 45q-32 0 -77 -9q-37 -7 -72 -38q-34 -30 -34 -75zM591 1167q0 71 58 129q57 57 154 57q88 0 134 -41q45 -40 45 -113t-57 -131q-57 -59 -154 -59q-91 0 -135 43q-45 44 -45 115z" />
<glyph unicode="&#xe5;" d="M14 265q0 104 63 176q61 69 151 97q85 26 202 26q110 0 195 -28q-7 114 -166 114q-189 0 -282 -77q-93 53 -93 158q0 103 126 161q129 60 338 60q92 0 171 -11q71 -10 141 -38q68 -27 111 -70t70 -113q27 -71 27 -164l-4 -187q0 -75 60 -75q13 0 48 11q23 -59 23 -119 q0 -94 -66 -150q-69 -58 -177 -58q-100 0 -165 38q-66 39 -101 138q-95 -170 -328 -176q-150 0 -247 72t-97 215zM312 1229q0 100 73 171q70 69 210 69l4 -1q116 0 182 -56q67 -57 67 -163q0 -109 -70 -170q-72 -63 -205 -63q-127 0 -195 57q-66 56 -66 156zM441 301 q0 -38 21 -59q22 -22 58 -22q105 0 105 158l-1 45q-32 0 -77 -9q-37 -7 -72 -38q-34 -30 -34 -75zM527 1235q0 -65 61 -65q23 0 43 20q18 18 18 52l-2 -4q0 65 -57 65q-25 0 -43 -18q-20 -20 -20 -50z" />
<glyph unicode="&#xe6;" horiz-adv-x="1666" d="M18 265h7q0 104 63 176q61 70 150 97q85 26 203 26q114 0 199 -28q-7 114 -170 114q-189 0 -282 -77q-93 53 -93 158q0 103 125 161q129 60 339 60q249 0 337 -126q102 126 317 126q178 0 307 -81t129 -224q0 -73 -40 -126q-39 -52 -109 -82t-147 -43q-75 -13 -167 -13 q-60 0 -143 15q24 -84 188 -84q177 0 294 77q38 -24 59 -72q22 -50 22 -93q0 -124 -129 -185q-128 -61 -323 -61q-168 0 -280 42q-105 40 -168 154q-45 -99 -142 -147q-100 -49 -211 -49q-139 0 -238 76q-97 75 -97 209zM452 299v4q0 -38 21 -59q22 -22 57 -22 q104 0 110 145q-4 54 -4 61q-69 -3 -125 -32q-59 -30 -59 -97zM1059 518q109 3 161 32q54 30 54 77q0 65 -72 65q-69 0 -104 -49q-34 -47 -37 -122z" />
<glyph unicode="&#xe7;" horiz-adv-x="1109" d="M66 428q0 240 149 380t428 140q179 0 307 -88q129 -88 129 -211q0 -72 -49 -124q-47 -50 -141 -50q-47 0 -83 12q-3 73 -44 101q-44 30 -104 30q-78 0 -119 -41q-39 -39 -39 -106q0 -154 190 -154q162 0 258 90q91 -61 91 -179q0 -106 -87 -169t-258 -77l-11 -55 q113 -13 175 -76q63 -63 63 -147q0 -128 -97 -186q-98 -59 -245 -59q-217 0 -217 161q0 64 34 108q70 -40 186 -40q76 0 76 31q0 17 -34 23q-29 5 -77 5q-41 0 -77 22q-35 21 -35 68q0 20 6 47l23 105q-192 33 -292 149q-99 116 -99 296z" />
<glyph unicode="&#xe8;" horiz-adv-x="1148" d="M79 439q0 241 147 376q150 138 408 138q231 0 361 -80t130 -228q0 -73 -39 -125q-40 -54 -109 -83q-70 -30 -147 -43q-69 -12 -167 -12q-72 0 -150 14q24 -84 197 -84q177 0 294 77q38 -24 59 -72t21 -93q0 -124 -129 -185q-128 -61 -322 -61q-552 0 -552 461h-2z M333 1385q24 56 81 97t118 48l260 -322q25 -28 25 -61q0 -50 -50 -93q-47 -40 -108 -61l-293 236q-68 51 -33 156zM525 520q110 3 165 32q57 30 57 75q0 65 -71 65t-108 -50q-38 -52 -41 -124z" />
<glyph unicode="&#xe9;" horiz-adv-x="1148" d="M79 439q0 241 147 376q150 138 408 138q231 0 361 -80t130 -228q0 -73 -39 -125q-40 -54 -109 -83q-70 -30 -147 -43q-69 -12 -167 -12q-72 0 -150 14q24 -84 197 -84q177 0 294 77q38 -24 59 -72t21 -93q0 -124 -129 -185q-128 -61 -322 -61q-552 0 -552 461h-2z M425 1142q0 31 23 60l260 323q63 -11 118 -50q59 -42 79 -97q17 -38 11 -82q-6 -45 -40 -72l-294 -237q-59 20 -107 61q-50 43 -50 94zM525 520q110 3 165 32q57 30 57 75q0 65 -71 65t-108 -50q-38 -52 -41 -124z" />
<glyph unicode="&#xea;" horiz-adv-x="1148" d="M81 439l1 -9q0 -460 552 -460q193 0 323 62q129 62 129 187q0 43 -22 93q-20 46 -59 71q-117 -77 -294 -77q-173 0 -197 85q83 -15 151 -15q79 0 166 15q77 13 147 43q69 29 110 84q39 52 39 125q0 148 -131 228q-132 81 -360 81q-259 0 -408 -137q-147 -135 -147 -376z M283 1082q-16 50 43 129l97 119q42 52 79 73q35 20 95 20q128 0 193 -41l222 -282q-13 -56 -66 -88q-52 -32 -116 -32q-84 0 -124 54l-86 149l-68 -110q-24 -35 -54 -96q-82 0 -140 27t-75 78zM530 509l2 -2q3 72 41 124q37 50 108 50q72 0 72 -65q0 -44 -58 -75 q-55 -29 -165 -32z" />
<glyph unicode="&#xeb;" horiz-adv-x="1148" d="M81 439l1 -9q0 -460 552 -460q193 0 323 62q129 62 129 187q0 43 -22 93q-20 46 -59 71q-117 -77 -294 -77q-173 0 -197 85q83 -15 151 -15q79 0 166 15q77 13 147 43q69 29 110 84q39 52 39 125q0 148 -131 228q-132 81 -360 81q-259 0 -408 -137q-147 -135 -147 -376z M220 1138q0 71 58 129q57 57 154 57q88 0 134 -41q45 -41 45 -113t-57 -131t-154 -59q-91 0 -135 43q-45 43 -45 115zM530 509l2 -2q3 72 41 124q37 50 108 50q72 0 72 -65q0 -44 -58 -75q-55 -29 -165 -32zM672 1138q0 72 57 129t154 57q89 0 135 -41q45 -41 45 -113 q0 -71 -58 -131q-57 -59 -154 -59q-90 0 -134 43q-45 43 -45 115z" />
<glyph unicode="&#xec;" horiz-adv-x="702" d="M-2 900q92 3 264 25q163 21 229 27q34 0 59 -11t38 -27t19 -43t6 -47v-50v-525q7 -98 45 -193l-128 -29q-102 -23 -145 -31q-56 -10 -86 -10q-44 0 -70 16q-25 15 -39 52q-11 27 -18 64q-3 15 -7 79v457q-43 3 -77 20q-32 16 -49 41q-14 21 -26 59q-9 31 -13 63 q-2 18 -2 63zM47 1385q24 57 80 97q57 40 119 48l259 -322q25 -28 25 -61q0 -50 -50 -93q-48 -41 -107 -61l-294 236q-67 50 -32 156z" />
<glyph unicode="&#xed;" horiz-adv-x="702" d="M-2 900q92 3 264 25q163 21 229 27q34 0 59 -11t38 -27t19 -43t6 -47v-50v-525q7 -98 45 -193l-128 -29q-102 -23 -145 -31q-56 -10 -86 -10q-44 0 -70 16q-25 15 -39 52q-11 27 -18 64q-3 15 -7 79v457q-43 3 -77 20q-32 16 -49 41q-14 21 -26 59q-9 31 -13 63 q-2 18 -2 63zM61 1131q0 32 23 61l260 322q63 -11 118 -50q59 -42 79 -97q17 -38 11 -82q-6 -46 -39 -72l-294 -236q-61 21 -108 61q-50 43 -50 93z" />
<glyph unicode="&#xee;" horiz-adv-x="761" d="M11 1109q-16 50 43 129l97 119q43 53 78 73t95 20q129 0 194 -41l222 -282q-13 -56 -66 -88q-52 -32 -117 -32q-83 0 -123 54l-86 149l-68 -110q-24 -34 -54 -96q-84 0 -140 26q-58 27 -75 79zM29 900q0 -54 1 -63q4 -32 13 -63q11 -35 27 -59q16 -23 48 -39 q29 -15 79 -18v-457q4 -64 7 -79q8 -39 18 -65q14 -36 40 -52t70 -16q25 0 86 11q63 11 145 30l127 29q-37 94 -45 194l-5 519v52q0 20 -6 47q-6 29 -18 43q-14 17 -37 27q-25 11 -59 11q-63 -6 -228 -27q-172 -22 -263 -25z" />
<glyph unicode="&#xef;" horiz-adv-x="885" d="M-7 1170q0 72 57 129q58 58 154 58q88 0 135 -42q44 -40 44 -113q0 -72 -57 -130q-58 -60 -154 -60q-90 0 -134 43q-45 43 -45 115zM91 900q0 -45 2 -63q4 -32 13 -63q11 -35 27 -59q16 -23 48 -39q29 -15 79 -18v-457q4 -64 7 -79q8 -39 18 -65q14 -37 39 -52 q26 -16 70 -16q25 0 86 11q63 11 145 30l128 29q-37 94 -45 194l-6 519v52q0 24 -5 47q-6 29 -18 43q-14 17 -37 27q-25 11 -60 11q-60 -5 -227 -27q-172 -22 -264 -25zM444 1170q0 71 58 129t154 58q87 0 134 -42q45 -40 45 -113q0 -72 -57 -130q-58 -60 -154 -60 q-91 0 -135 43q-45 43 -45 115z" />
<glyph unicode="&#xf0;" horiz-adv-x="1152" d="M-9 446q0 190 90 301q89 110 258 110q212 0 295 -101l-1 6q-3 129 -42 207l-152 -80q-79 27 -79 100q0 60 49 88l26 14q-46 11 -96 11q-60 0 -124 -12q-41 55 -41 100q0 86 91 129q90 43 219 43q200 0 335 -77l91 46q35 20 59 54q51 -22 74 -50q27 -33 27 -66 q0 -48 -61 -81l-50 -27q127 -175 127 -509q0 -364 -147 -518q-149 -156 -446 -156q-243 0 -373 124q-129 123 -129 344zM416 459q0 -61 36 -97q34 -34 80 -34q57 0 92 63q34 61 37 182l-2 52q-136 0 -189 -43q-54 -44 -54 -123z" />
<glyph unicode="&#xf1;" horiz-adv-x="1302" d="M-13 900q0 -45 2 -63q4 -32 13 -63q11 -35 27 -59q16 -23 48 -39q29 -15 79 -18v-457q4 -64 7 -79q8 -39 18 -65q14 -37 39 -52q26 -16 70 -16q25 0 86 11q63 11 145 30l128 29q-37 94 -45 194l-9 145q3 103 39 165q37 64 86 64q51 0 51 -75v-305q0 -267 284 -267 q231 0 276 196q-65 8 -89 35t-27 95v285q0 176 -73 269q-72 92 -199 92q-223 0 -344 -237v57v52q0 20 -6 47q-6 29 -18 43q-14 17 -37 27q-25 11 -60 11q-60 -5 -227 -27q-172 -22 -264 -25zM249 1147q0 160 188 168q53 0 167 -14t143 -14q94 0 124 75q72 -8 111 -50 q40 -43 43 -110v-3q0 -84 -56 -127t-150 -43q-45 0 -143 14t-140 14q-100 0 -135 -68q-66 7 -109 50t-43 108z" />
<glyph unicode="&#xf2;" d="M61 437q0 223 145 368t416 145q278 0 414 -124q134 -122 134 -340q0 -222 -141 -366t-409 -147l2 4q-288 0 -425 122q-136 121 -136 338zM324 1383q24 56 81 97q59 42 118 49l260 -323q25 -28 25 -61q0 -50 -50 -93q-47 -40 -108 -61l-293 237q-67 51 -33 155zM486 461 q0 -59 32 -101q33 -43 95 -43q54 0 91 40q38 41 38 107q0 69 -34 109t-88 40q-56 0 -93 -40q-38 -41 -38 -107z" />
<glyph unicode="&#xf3;" d="M61 437q0 223 145 368t416 145q278 0 414 -124q134 -122 134 -340q0 -222 -141 -366t-409 -147l2 4q-288 0 -425 122q-136 121 -136 338zM385 1142q0 30 24 60l259 323q64 -11 119 -50q59 -42 79 -97q16 -37 10 -82q-6 -46 -39 -72l-294 -237q-61 21 -108 61 q-50 43 -50 94zM486 461q0 -59 32 -101q33 -43 95 -43q54 0 91 40q38 41 38 107q0 69 -34 109t-88 40q-56 0 -93 -40q-38 -41 -38 -107z" />
<glyph unicode="&#xf4;" d="M61 437q0 223 145 368t416 145q278 0 414 -124q134 -122 134 -340q0 -222 -141 -366t-409 -147l2 4q-288 0 -425 122q-136 121 -136 338zM260 1097q-16 50 43 129l97 118q43 53 78 73t95 20q129 0 194 -41l222 -281q-13 -56 -66 -88q-52 -32 -117 -32q-83 0 -123 53 l-86 149l-68 -109q-22 -32 -54 -97q-81 0 -140 27q-58 27 -75 79zM486 461q0 -59 32 -101q33 -43 95 -43q54 0 91 40q38 41 38 107q0 69 -34 109t-88 40q-56 0 -93 -40q-38 -41 -38 -107z" />
<glyph unicode="&#xf5;" d="M61 437q0 223 145 368t416 145q278 0 414 -124q134 -122 134 -340q0 -222 -141 -366t-409 -147l2 4q-288 0 -425 122q-136 121 -136 338zM208 1147q0 160 188 168q53 0 167 -14t143 -14q94 0 124 75q72 -8 111 -50q40 -43 43 -110v-3q0 -84 -56 -127t-150 -43 q-46 0 -144 14t-139 14q-100 0 -135 -68q-66 7 -109 50t-43 108zM486 461q0 -59 32 -101q33 -43 95 -43q54 0 91 40q38 41 38 107q0 69 -34 109t-88 40q-56 0 -93 -40q-38 -41 -38 -107z" />
<glyph unicode="&#xf6;" d="M61 437q0 223 145 368t416 145q278 0 414 -124q134 -122 134 -340q0 -222 -141 -366t-409 -147l2 4q-288 0 -425 122q-136 121 -136 338zM192 1145q0 72 57 129t154 57q89 0 135 -41q44 -40 44 -113q0 -71 -57 -130q-58 -60 -154 -60q-90 0 -134 43q-45 44 -45 115z M486 461q0 -59 32 -101q33 -43 95 -43q54 0 91 40q38 41 38 107q0 69 -34 109t-88 40q-56 0 -93 -40q-38 -41 -38 -107zM643 1145q0 71 58 129q57 57 154 57q88 0 134 -41q45 -40 45 -113q0 -71 -57 -130q-58 -60 -154 -60q-91 0 -135 43q-45 44 -45 115z" />
<glyph unicode="&#xf7;" horiz-adv-x="856" d="M13 561q0 -81 41 -181q61 30 192 30h397q116 0 160 38q43 37 43 111q0 83 -41 183q-65 -32 -194 -32h-398q-113 0 -157 -38q-43 -37 -43 -111zM229 905q0 67 58 122q57 54 150 54q90 0 133 -40t43 -107q0 -69 -56 -122q-57 -54 -150 -54h-4q-89 0 -131 39q-43 40 -43 108 zM233 188q0 68 57 122t151 54q89 0 132 -40t43 -107q0 -70 -55 -122q-57 -54 -151 -54h-3q-88 0 -131 40t-43 107z" />
<glyph unicode="&#xf8;" d="M61 441q0 222 145 367t416 145q63 0 70 -1l19 43q45 112 158 112q41 0 83 -19q39 -18 60 -54q-10 -18 -64 -151q224 -110 224 -397q0 -221 -142 -366q-141 -144 -408 -147h-13l-21 -63q-40 -112 -145 -112q-42 0 -90 21q-45 20 -66 52q11 29 27 68l30 77 q-283 99 -283 425zM487 455q0 -56 33 -100q33 -43 95 -43q55 0 91 39q38 41 38 108q0 69 -34 109q-33 39 -88 39q-57 0 -93 -39q-38 -41 -38 -107z" />
<glyph unicode="&#xf9;" horiz-adv-x="1274" d="M-13 900q92 3 264 25q163 21 229 27q34 0 59 -11t38 -27q14 -18 20 -43q5 -23 5 -47v-50v-399q0 -76 63 -76q38 0 66 49q27 48 27 132l-5 205q-7 95 -43 193q312 72 356 72q36 0 59 -13q26 -15 38 -32q16 -23 22 -48q7 -26 10 -54q3 -25 6 -61v-493q8 -101 44 -193 l-127 -29q-102 -23 -145 -31q-56 -10 -86 -10q-44 0 -70 16q-25 15 -39 52q-11 27 -18 64q-3 15 -7 79v20q-61 -125 -140 -183q-78 -57 -188 -57q-127 0 -199 84t-72 258v335q-43 3 -77 20q-30 15 -48 41q-16 24 -27 59q-9 31 -13 63q-2 18 -2 63zM328 1333q24 56 81 97 t118 48l260 -322q25 -28 25 -61q0 -50 -50 -93q-47 -40 -108 -61l-294 236q-67 50 -32 156z" />
<glyph unicode="&#xfa;" horiz-adv-x="1274" d="M-13 900q92 3 264 25q163 21 229 27q34 0 59 -11t38 -27q14 -18 20 -43q5 -23 5 -47v-50v-399q0 -76 63 -76q38 0 66 49q27 48 27 132l-5 205q-7 95 -43 193q312 72 356 72q36 0 59 -13q26 -15 38 -32q16 -23 22 -48q7 -26 10 -54q3 -25 6 -61v-493q8 -101 44 -193 l-127 -29q-102 -23 -145 -31q-56 -10 -86 -10q-44 0 -70 16q-25 15 -39 52q-11 27 -18 64q-3 15 -7 79v20q-61 -125 -140 -183q-78 -57 -188 -57q-127 0 -199 84t-72 258v335q-43 3 -77 20q-30 15 -48 41q-16 24 -27 59q-9 31 -13 63q-2 18 -2 63zM509 1093q0 32 23 61 l260 323q61 -10 118 -51q59 -42 79 -96q17 -38 11 -83t-39 -71l-294 -237q-61 21 -108 61q-50 43 -50 93z" />
<glyph unicode="&#xfb;" horiz-adv-x="1274" d="M-11 896q0 -45 2 -63q3 -30 13 -62q12 -40 26 -60q15 -22 49 -39q29 -15 79 -18v-335q0 -173 73 -258q71 -83 199 -83q109 0 188 58t140 183v-20q4 -64 7 -79q7 -37 18 -64q14 -36 40 -52q28 -17 69 -17q25 0 86 11q47 8 146 31l127 28q-37 94 -45 194v493q-5 61 -5 62 q-3 20 -11 54q-7 27 -22 49q-13 18 -37 32q-21 12 -59 12q-49 0 -357 -71q36 -98 43 -194l-2 -213q0 -85 -27 -133t-66 -48q-63 0 -63 75v400v52q0 23 -5 46q-6 29 -18 43q-13 16 -38 27t-59 11q-60 -5 -227 -27q-172 -22 -264 -25zM292 1106q-16 50 43 129l97 118 q42 52 79 73q35 20 95 20q128 0 193 -41l222 -281q-13 -56 -66 -88q-52 -32 -116 -32q-84 0 -124 53l-86 149l-68 -109q-22 -32 -54 -97q-81 0 -140 27q-58 27 -75 79z" />
<glyph unicode="&#xfc;" horiz-adv-x="1274" d="M-11 896q0 -45 2 -63q3 -30 13 -62q12 -40 26 -60q15 -22 49 -39q29 -15 79 -18v-335q0 -173 73 -258q71 -83 199 -83q109 0 188 58t140 183v-20q4 -64 7 -79q7 -37 18 -64q14 -36 40 -52q28 -17 69 -17q25 0 86 11q47 8 146 31l127 28q-37 94 -45 194v493q-5 61 -5 62 q-3 20 -11 54q-7 27 -22 49q-13 18 -37 32q-21 12 -59 12q-49 0 -357 -71q36 -98 43 -194l-2 -213q0 -85 -27 -133t-66 -48q-63 0 -63 75v400v52q0 23 -5 46q-6 29 -18 43q-13 16 -38 27t-59 11q-60 -5 -227 -27q-172 -22 -264 -25zM220 1165q0 71 58 129q57 57 154 57 q88 0 134 -41q45 -40 45 -113t-57 -131q-57 -59 -154 -59q-91 0 -135 43q-45 44 -45 115zM672 1165q0 72 57 129t154 57q89 0 135 -41q45 -40 45 -113q0 -71 -58 -131q-57 -59 -154 -59q-90 0 -134 43q-45 44 -45 115z" />
<glyph unicode="&#xfd;" horiz-adv-x="1232" d="M-16 892q81 2 263 26q136 18 230 26q36 0 59 -10t37 -27q14 -18 20 -43q6 -27 6 -47v-50v-400q0 -75 62 -75q41 0 68 48t27 133v208q-7 101 -43 193q312 72 346 72q38 0 59 -12q25 -14 38 -33q14 -20 21 -48q9 -34 11 -54q0 -3 5 -61v-229q0 -133 -8 -256 q-7 -106 -33 -240q-25 -128 -66 -217q-43 -93 -108 -169t-163 -116t-225 -40q-146 0 -232 74q-82 70 -82 181q0 124 106 175q60 -52 147 -52q55 0 98 27q44 27 68 65q23 36 40 91q13 44 21 101q6 45 6 95l-9 -9q-65 -138 -142 -194q-75 -55 -188 -55q-272 0 -272 342v335 q-44 3 -78 20q-30 15 -48 41q-16 24 -27 59q-8 26 -12 63q-2 18 -2 62zM509 1088q0 32 23 61l260 322q63 -11 118 -50q59 -42 79 -97q17 -38 11 -82q-6 -46 -39 -72l-294 -236q-61 21 -108 61q-50 43 -50 93z" />
<glyph unicode="&#xfe;" horiz-adv-x="1216" d="M39 1233q61 14 205 61q148 48 177 48q130 0 133 -249v-365q95 229 306 229q175 0 256 -129t81 -328q-6 -243 -115 -382q-110 -140 -276 -140q-178 0 -252 69l7 -232q3 -69 27 -104q25 -36 86 -43q-45 -193 -258 -193q-136 0 -217 97q-81 98 -81 297v1061q0 189 -79 303z M568 514q0 -197 115 -197q48 0 75 38t27 88q0 73 -45 118q-46 46 -109 46q-32 0 -63 -10v-83z" />
<glyph unicode="&#xff;" horiz-adv-x="1232" d="M-11 896q0 -45 2 -63q3 -30 13 -62q12 -40 26 -60q15 -22 49 -39q29 -15 79 -18v-335q0 -342 272 -342q110 0 188 57q80 58 144 194l-2 -13q0 -50 -6 -95q-7 -52 -21 -98q-18 -59 -39 -92q-24 -37 -67 -64t-98 -27q-87 0 -147 52q-106 -51 -106 -176q0 -109 82 -179 q84 -72 232 -72q125 0 225 41q96 39 163 117q64 74 108 170q44 95 68 219q25 126 32 240q9 139 9 256v230q-5 61 -5 62q-2 20 -11 54q-7 28 -21 48q-13 19 -38 33q-21 12 -59 12q-34 0 -346 -72q36 -92 43 -193v-208q0 -83 -27 -131t-68 -48q-63 0 -63 75v400v52q0 23 -5 46 q-6 29 -18 43q-13 16 -38 27t-59 11q-60 -5 -227 -27q-172 -22 -264 -25zM224 1161q0 72 57 129q58 58 154 58q88 0 135 -42q45 -40 45 -113q0 -70 -58 -130q-57 -59 -154 -59q-90 0 -134 43q-45 43 -45 114zM676 1161q0 72 57 129q58 58 154 58q87 0 134 -42 q45 -40 45 -113q0 -72 -57 -130q-57 -59 -154 -59q-91 0 -135 43t-44 114z" />
<glyph unicode="&#x100;" horiz-adv-x="1200" d="M48 122q3 44 25 98l228 543q40 90 75 142l-1 -5q-83 -3 -131 -9q-45 94 -45 168q0 152 249 152h323q93 0 143 -37q51 -37 84 -133l265 -797q32 -105 76 -196q-202 -66 -301 -66q-62 0 -104 36q-39 33 -70 124l-24 71h-392l-82 -215h-198q-63 0 -93 38t-27 86zM297 1444 q0 68 43 108q42 39 124 39q17 0 188 -9q39 -2 79 -4.5t59 -3.5t25 -1l-5 4q74 0 113 16q38 -62 38 -129t-40 -107t-115 -43q-41 0 -193 8q-38 2 -79 4.5t-60.5 3.5t-25.5 1q-74 0 -113 -16q-38 68 -38 129zM557 507q-7 -30 22 -30h172l-92 294z" />
<glyph unicode="&#x101;" d="M14 265q0 104 63 176q61 69 151 97q85 26 202 26q110 0 195 -28q-7 114 -166 114q-189 0 -282 -77q-93 53 -93 158q0 103 126 161q129 60 338 60q92 0 171 -11q71 -10 141 -38q68 -27 111 -70t70 -113q27 -71 27 -164l-4 -187q0 -75 60 -75q13 0 48 11q23 -59 23 -119 q0 -94 -66 -150q-69 -58 -177 -58q-100 0 -165 38q-66 39 -101 138q-95 -170 -328 -176q-150 0 -247 72t-97 215zM254 1167q0 67 43 107t124 40q17 0 188 -9q39 -2 79 -4.5t59 -3.5t25 -1l-5 1q71 0 113 17q38 -62 38 -129q0 -68 -40 -108t-115 -43q-22 0 -193 9 q-38 2 -79 4.5t-60.5 3.5t-25.5 1q-74 0 -113 -16q-38 68 -38 131zM441 301q0 -38 21 -59q22 -22 58 -22q105 0 105 158l-1 45q-32 0 -77 -9q-37 -7 -72 -38q-34 -30 -34 -75z" />
<glyph unicode="&#x102;" horiz-adv-x="1200" d="M43 125q-3 -48 27 -86q30 -37 95 -37h197l82 215h393l23 -72q30 -89 70 -123q41 -35 106 -35q96 0 301 67q-42 87 -75 195l-266 798q-34 96 -82 132q-52 38 -142 38h-322q-249 0 -249 -153q0 -74 45 -168q49 6 130 9l-5 4q-35 -52 -75 -142l-228 -543q-22 -54 -25 -99z M296 1507q0 59 37 102q36 42 117 50q85 -107 197 -107q111 0 199 107q78 -8 115 -50q37 -43 37 -100q0 -96 -98 -163t-255 -70l4 -2q-157 3 -255 70t-98 163zM556 516l102 264l91 -294h-172q-29 0 -21 30z" />
<glyph unicode="&#x103;" d="M14 265q0 104 63 176q61 69 151 97q85 26 202 26q110 0 195 -28q-7 114 -166 114q-189 0 -282 -77q-93 53 -93 158q0 103 126 161q129 60 338 60q92 0 171 -11q71 -10 141 -38q68 -27 111 -70t70 -113q27 -71 27 -164l-4 -187q0 -75 60 -75q13 0 48 11q23 -59 23 -119 q0 -94 -66 -150q-69 -58 -177 -58q-100 0 -165 38q-66 39 -101 138q-95 -170 -328 -176q-150 0 -247 72t-97 215zM233 1240q0 58 38 102q37 42 116 50q85 -107 197 -107q111 0 199 107q81 -8 117 -50q37 -43 37 -100q0 -96 -98 -163t-255 -70l2 -2q-156 3 -254 70 q-99 67 -99 163zM441 301q0 -38 21 -59q22 -22 58 -22q105 0 105 158l-1 45q-32 0 -77 -9q-37 -7 -72 -38q-34 -30 -34 -75z" />
<glyph unicode="&#x104;" horiz-adv-x="1200" d="M43 109q0 47 25 108l228 543q39 87 75 141q-83 -3 -131 -9q-45 95 -45 169q0 152 249 152h323q93 0 143 -37q52 -38 85 -133l265 -797q34 -111 75 -196q-51 -15 -86 -27q-29 -10 -64 -30q-36 -20 -49 -47q-14 -28 -14 -66q0 -70 66 -70q35 0 66 11q33 -51 33 -97l-4 -2 q0 -84 -66 -131q-67 -48 -190 -48q-105 0 -163 54q-59 54 -59 140q0 144 150 259q-62 33 -97 144l-23 71h-392l-83 -215h-197q-120 0 -120 113zM552 511q-8 -31 21 -31h172l-91 294z" />
<glyph unicode="&#x105;" d="M13 265q0 105 62 176q61 69 151 97q85 26 202 26q111 0 196 -28q-7 114 -167 114q-188 0 -281 -77q-94 54 -94 158q0 103 126 161q129 60 339 60q91 0 170 -11q71 -10 141 -38q68 -27 111 -70t70 -113q27 -71 27 -164v-189q0 -75 59 -75q14 0 49 11q23 -59 23 -118 q0 -55 -27 -99q-26 -42 -59 -66q-32 -23 -59 -61q-27 -37 -27 -83q0 -66 66 -66q34 0 65 11q32 -49 32 -97l-2 4q0 -84 -66 -131q-69 -49 -190 -49q-104 0 -163 54t-59 140q0 142 136 251q-112 31 -159 161q-95 -170 -328 -176q-151 0 -248 72q-96 71 -96 215zM443 303 q0 -38 21 -59q22 -22 57 -22q106 0 106 158l-2 45q-32 0 -77 -9q-35 -7 -71 -38q-34 -30 -34 -75z" />
<glyph unicode="&#x106;" horiz-adv-x="1145" d="M84 556q0 297 156 480t475 183q87 0 159 -13q78 -14 140 -43q64 -30 102 -84q38 -55 38 -127q0 -66 -38 -121q-37 -53 -104 -77q-162 90 -284 90q-212 0 -212 -244q0 -108 54 -166q54 -59 165 -59q155 0 319 100q53 -31 79 -83t26 -114q0 -82 -44 -142q-42 -58 -119 -93 q-66 -30 -150 -48q-80 -17 -158 -17l2 -7q-305 3 -455 156q-151 154 -151 429zM493 1405q0 32 23 61l260 322q63 -11 118 -50q59 -42 79 -97q17 -38 11 -82q-6 -45 -40 -72l-294 -236q-59 20 -107 61q-50 43 -50 93z" />
<glyph unicode="&#x107;" horiz-adv-x="1105" d="M68 441q0 234 143 374t418 140q179 0 312 -89q132 -89 132 -216q0 -73 -48 -121q-49 -49 -140 -49q-43 0 -82 13q-3 66 -49 100q-44 32 -107 32q-79 0 -113 -43q-36 -45 -36 -107q0 -152 192 -152q167 0 256 89q47 -31 70 -80q25 -53 25 -104q0 -116 -107 -183t-312 -67 h-4q-269 0 -410 124q-140 123 -140 339zM407 1143q0 32 23 61l260 323q63 -11 118 -50q59 -42 79 -97q17 -38 11 -83q-6 -44 -40 -71l-294 -237q-59 20 -107 61q-50 43 -50 93z" />
<glyph unicode="&#x108;" horiz-adv-x="1145" d="M82 561q0 -273 151 -427q150 -153 455 -156l-7 -3q83 0 159 16q86 18 151 48q74 34 118 94q45 61 45 141q0 63 -27 117q-27 53 -79 84q-164 -100 -319 -100q-111 0 -165 59q-53 57 -53 166q0 244 211 244q123 0 285 -90q65 23 104 79q38 55 38 122q0 96 -68 161t-160 86 q-96 22 -208 22q-319 0 -475 -183t-156 -480zM315 1357q-16 50 43 129l97 118q42 52 79 73q35 20 95 20q129 0 194 -41l222 -282q-13 -54 -67 -87t-116 -33q-84 0 -124 54l-86 149l-68 -109q-22 -32 -54 -97q-80 0 -139 27t-76 79z" />
<glyph unicode="&#x109;" horiz-adv-x="1109" d="M72 441q0 -216 139 -339q141 -124 411 -124l3 -1q206 0 312 66q108 67 108 183q0 51 -25 104q-23 49 -70 80q-89 -89 -256 -89q-192 0 -192 152q0 63 36 108q34 43 112 43q63 0 108 -33t48 -98q39 -13 83 -13q91 0 140 49q48 48 48 121q0 127 -133 216t-311 89 q-275 0 -418 -140t-143 -374zM247 1090q-16 50 43 129l97 118q42 52 79 73q35 20 95 20q128 0 193 -41l223 -282q-13 -54 -67 -87t-116 -33q-84 0 -124 54l-86 149l-68 -109q-22 -32 -54 -97q-80 0 -139 27t-76 79z" />
<glyph unicode="&#x10a;" horiz-adv-x="1145" d="M82 561q0 -273 151 -427q150 -153 455 -156l-7 -3q83 0 159 16q86 18 151 48q74 34 118 94q45 61 45 141q0 63 -27 117q-27 53 -79 84q-164 -100 -319 -100q-111 0 -165 59q-53 57 -53 166q0 244 211 244q123 0 285 -90q65 23 104 79q38 55 38 122q0 96 -68 161t-160 86 q-96 22 -208 22q-319 0 -475 -183t-156 -480zM446 1453q0 86 65 151q64 64 174 64q99 0 150 -48q52 -49 52 -129q0 -85 -64 -149t-174 -64l-2 -2q-100 0 -151 48q-50 47 -50 129z" />
<glyph unicode="&#x10b;" horiz-adv-x="1105" d="M72 441q0 -216 139 -339q141 -124 411 -124l3 -1q206 0 312 66q108 67 108 183q0 51 -25 104q-23 49 -70 80q-89 -89 -256 -89q-192 0 -192 152q0 63 36 108q34 43 112 43q63 0 108 -33t48 -98q39 -13 83 -13q91 0 140 49q48 48 48 121q0 127 -133 216t-311 89 q-275 0 -418 -140t-143 -374zM401 1183q0 85 65 150t174 65q98 0 150 -49t52 -129q0 -84 -64 -148q-65 -65 -174 -65l-2 -2q-98 0 -150 49q-51 48 -51 129z" />
<glyph unicode="&#x10c;" horiz-adv-x="1145" d="M82 561q0 -273 151 -427q150 -153 455 -156l-7 -3q83 0 159 16q86 18 151 48q74 34 118 94q45 61 45 141q0 63 -27 117q-27 53 -79 84q-164 -100 -319 -100q-111 0 -165 59q-53 57 -53 166q0 244 211 244q123 0 285 -90q65 23 104 79q38 55 38 122q0 96 -68 161t-160 86 q-96 22 -208 22q-319 0 -475 -183t-156 -480zM289 1602q14 58 66 90t116 32q83 0 124 -54l84 -156l72 110q24 34 54 96q81 0 139 -27q60 -28 76 -78t-43 -129l-101 -119q-40 -48 -79 -71q-30 -18 -91 -18q-128 0 -193 41z" />
<glyph unicode="&#x10d;" horiz-adv-x="1105" d="M72 441q0 -216 139 -339q141 -124 411 -124l3 -1q206 0 312 66q108 67 108 183q0 51 -25 104q-23 49 -70 80q-89 -89 -256 -89q-192 0 -192 152q0 63 36 108q34 43 112 43q63 0 108 -33t48 -98q39 -13 83 -13q91 0 140 49q48 48 48 121q0 127 -133 216t-311 89 q-275 0 -418 -140t-143 -374zM226 1324q14 58 66 90t117 32q82 0 123 -54l84 -156l72 110q22 32 54 97q82 0 140 -27t75 -79q16 -50 -43 -129l-100 -118q-42 -50 -79 -72q-30 -18 -92 -18q-128 0 -193 41z" />
<glyph unicode="&#x10e;" horiz-adv-x="1292" d="M14 1055q0 51 22 87q21 35 61 48q42 14 79 20q31 5 89 5h375q345 0 516 -151q168 -149 168 -421q0 -332 -193 -491q-191 -157 -534 -157h-169q-57 0 -96 16q-45 18 -63 39q-20 23 -34 65q-13 39 -16 73q-3 33 -6 81l-7 627q-53 0 -134 -9q-58 85 -58 168zM199 1606 q13 57 66 89q52 32 117 32q83 0 123 -53l85 -156l71 109q22 32 54 97q81 0 140 -27q58 -27 75 -79q16 -50 -43 -129l-100 -118q-42 -50 -79 -72q-30 -18 -92 -18q-128 0 -193 41zM642 290h26l-1 2q120 0 182 95q61 94 61 226q0 144 -61 215q-61 72 -168 72h-39v-610z" />
<glyph unicode="&#x10f;" horiz-adv-x="1412" d="M54 441q0 220 111 367q109 145 312 145q144 0 231 -87v146q-6 147 -63 242q14 3 178 42l130 34q41 10 61 10q82 0 106 -59q24 -58 27 -183l5 -844q7 -93 45 -198q-55 -9 -177 -42q-110 -30 -146 -30q-41 0 -66 18t-39 52q-11 28 -18 64q-6 33 -6 77q-108 -218 -319 -218 q-184 0 -279 129q-93 127 -93 335zM478 511q0 -74 47 -119q44 -43 117 -43q32 0 71 11l-3 75q0 196 -120 196q-51 0 -81 -34q-31 -36 -31 -86zM1183 878q120 56 120 156q0 30 -24 81q-23 49 -23 77q0 64 59 105q61 42 133 42q99 0 150 -68q52 -69 52 -156q0 -130 -87 -226 q-88 -97 -221 -97q-119 0 -159 91v-5z" />
<glyph unicode="&#x110;" horiz-adv-x="1292" d="M16 1054q0 50 22 86q21 35 61 48q43 14 78 20q31 5 90 5h375q346 0 516 -150q168 -149 168 -421q0 -332 -193 -491q-192 -158 -534 -158h-169q-58 0 -97 16q-43 18 -62 39q-20 23 -34 65q-14 43 -17 73q-1 10 -1.5 22.5t-1.5 29.5t-2 29v228h-47q-43 0 -95 -13 q-43 50 -43 111q0 102 146 102h39l-7 199q-54 0 -135 -9q-57 84 -57 169zM633 287h26q121 0 183 95q61 94 61 225q0 145 -61 216t-168 71h-40v-204l40 2q47 0 95 12q43 -50 43 -111q0 -102 -145 -102h-34v-204z" />
<glyph unicode="&#x111;" horiz-adv-x="1342" d="M52 443q0 220 111 367q109 145 312 145q143 0 231 -88v138h-179q-47 0 -95 -12q-43 50 -43 102q0 102 145 102h172v72q78 18 145 36l110 28q41 9 51 9q62 0 92 -37q31 -38 38 -110h26q43 0 95 13q43 -50 43 -108q0 -96 -145 -96h-14l3 -748q7 -94 45 -199 q-63 -10 -177 -41q-110 -30 -145 -30q-42 0 -67 18t-39 52q-11 28 -18 64q-5 28 -5 77q-109 -219 -319 -219q-185 0 -280 130q-93 127 -93 335zM477 513q0 -75 46 -119q44 -43 117 -43q32 0 71 11l-3 75q0 196 -120 196q-51 0 -81 -34q-30 -35 -30 -86z" />
<glyph unicode="&#x112;" horiz-adv-x="1145" d="M13 1055q0 69 48 113q47 43 140 43h672q123 0 188 18q55 -72 55 -177q0 -54 -21 -88q-21 -35 -61 -48q-39 -13 -72 -16q-44 -4 -82 -4h-244v-113q0 -19 6 -25q5 -5 21 -5h310q23 -56 23 -120q0 -169 -224 -169h-136v-116q0 -19 6 -25t21 -6l219 -5q103 0 188 23 q55 -72 55 -183q0 -52 -21 -87q-22 -36 -61 -49t-72 -16q-44 -4 -82 -4h-486q-95 0 -147 38q-50 37 -50 154v708q-55 0 -136 -9q-57 84 -57 168zM251 1444q0 68 43 108q42 39 124 39q17 0 188 -9q39 -2 79 -4.5t59 -3.5t25 -1l-6 4q74 0 113 16q38 -62 38 -129t-40 -107 t-114 -43q-42 0 -194 8q-38 2 -79 4.5t-60.5 3.5t-25.5 1q-73 0 -112 -16q-38 68 -38 129z" />
<glyph unicode="&#x113;" horiz-adv-x="1148" d="M79 439q0 241 147 376q150 138 408 138q231 0 361 -80t130 -228q0 -73 -39 -125q-40 -54 -109 -83q-70 -30 -147 -43q-69 -12 -167 -12q-72 0 -150 14q24 -84 197 -84q177 0 294 77q38 -24 59 -72t21 -93q0 -124 -129 -185q-128 -61 -322 -61q-552 0 -552 461h-2z M278 1161q0 68 43 108q42 39 123 39q18 0 189 -9q39 -2 79 -4.5t59 -3.5t25 -1l-6 4q74 0 113 16q38 -62 38 -129q0 -68 -40 -108t-114 -43q-23 0 -194 9q-38 2 -79 4.5t-60.5 3.5t-25.5 1q-74 0 -113 -16q-37 67 -37 129zM525 520q110 3 165 32q57 30 57 75q0 65 -71 65 t-108 -50q-38 -52 -41 -124z" />
<glyph unicode="&#x114;" horiz-adv-x="1145" d="M7 1059q0 -83 58 -168q81 9 136 9v-708q0 -115 52 -153q50 -37 148 -37h486q51 0 84 3q32 3 74 17q40 13 61 48t21 88q0 110 -55 182q-85 -23 -189 -23l-227 4q-17 0 -22 5t-5 25v117h136q224 0 224 168q0 64 -23 120h-310q-16 0 -22 6q-5 5 -5 25v113h244q49 0 82 3 q36 3 74 16q39 13 61 49q21 34 21 87q0 104 -56 178q-65 -18 -188 -18h-672q-92 0 -139 -43q-49 -44 -49 -113zM238 1505q0 58 38 102q37 43 116 51q86 -108 198 -108q110 0 198 108q80 -8 117 -51q38 -44 38 -100q0 -95 -99 -163q-98 -67 -254 -70l1 -2q-156 3 -254 70 q-99 68 -99 163z" />
<glyph unicode="&#x115;" horiz-adv-x="1148" d="M81 439l1 -9q0 -460 552 -460q193 0 323 62q129 62 129 187q0 43 -22 93q-20 46 -59 71q-117 -77 -294 -77q-173 0 -197 85q83 -15 151 -15q79 0 166 15q77 13 147 43q69 29 110 84q39 52 39 125q0 148 -131 228q-132 81 -360 81q-259 0 -408 -137q-147 -135 -147 -376z M290 1233q0 58 38 102q37 42 116 50q85 -107 198 -107q110 0 198 107q78 -8 115 -50q38 -44 38 -100q0 -95 -99 -163q-98 -67 -254 -70l3 -2q-156 3 -254 70q-99 68 -99 163zM530 509l2 -2q3 72 41 124q37 50 108 50q72 0 72 -65q0 -44 -58 -75q-55 -29 -165 -32z" />
<glyph unicode="&#x116;" horiz-adv-x="1145" d="M7 1059q0 -83 58 -168q81 9 136 9v-708q0 -115 52 -153q50 -37 148 -37h486q51 0 84 3q32 3 74 17q40 13 61 48t21 88q0 110 -55 182q-85 -23 -189 -23l-227 4q-17 0 -22 5t-5 25v117h136q224 0 224 168q0 64 -23 120h-310q-16 0 -22 6q-5 5 -5 25v113h244q49 0 82 3 q36 3 74 16q39 13 61 49q21 34 21 87q0 104 -56 178q-65 -18 -188 -18h-672q-92 0 -139 -43q-49 -44 -49 -113zM367 1452q0 85 65 150t174 65q98 0 150 -49t52 -129q0 -85 -64 -149t-174 -64l-2 -2q-99 0 -150 48t-51 130z" />
<glyph unicode="&#x117;" horiz-adv-x="1148" d="M81 439l1 -9q0 -460 552 -460q193 0 323 62q129 62 129 187q0 43 -22 93q-20 46 -59 71q-117 -77 -294 -77q-173 0 -197 85q83 -15 151 -15q79 0 166 15q77 13 147 43q69 29 110 84q39 52 39 125q0 148 -131 228q-132 81 -360 81q-259 0 -408 -137q-147 -135 -147 -376z M430 1170q0 86 65 151q64 64 173 64q100 0 151 -48q52 -49 52 -129q0 -84 -65 -149q-64 -64 -173 -64l-2 -2q-100 0 -151 48q-50 47 -50 129zM530 509l2 -2q3 72 41 124q37 50 108 50q72 0 72 -65q0 -44 -58 -75q-55 -29 -165 -32z" />
<glyph unicode="&#x118;" horiz-adv-x="1145" d="M14 1055q0 69 49 113q47 43 139 43h672q124 0 189 18q55 -72 55 -177q0 -54 -21 -88q-21 -35 -61 -48q-39 -13 -72 -16q-44 -4 -82 -4h-244v-113q0 -20 5 -25t22 -5h310q23 -56 23 -120q0 -169 -224 -169h-136v-116q0 -20 5 -25q6 -6 22 -6h220q103 0 188 23 q56 -74 56 -182q0 -92 -56 -124q-53 -31 -147 -34q-40 -3 -64 -43q-23 -39 -23 -81q0 -66 66 -66q33 0 64 11q33 -51 33 -97q0 -83 -67 -131t-190 -48q-105 0 -163 54q-59 54 -59 139q0 142 149 258h-267q-95 0 -147 38q-50 37 -50 154v708q-55 0 -136 -9q-58 85 -58 168z " />
<glyph unicode="&#x119;" horiz-adv-x="1148" d="M79 439q0 241 147 376q150 138 408 138q231 0 361 -80t130 -228q0 -73 -39 -125q-40 -54 -109 -83q-70 -30 -147 -43q-69 -12 -167 -12q-72 0 -150 14q24 -84 197 -84q177 0 294 77q38 -24 59 -72t21 -93q0 -101 -88 -159q-88 -59 -231 -78q-45 -54 -45 -111 q0 -66 67 -66q35 0 66 11q32 -49 32 -97l-2 2q0 -84 -66 -131q-67 -48 -190 -48q-106 0 -163 53q-59 54 -59 140q0 135 127 244q-453 37 -453 455zM525 521q108 3 165 33t57 75q0 65 -71 65q-70 0 -108 -51q-38 -52 -41 -123z" />
<glyph unicode="&#x11a;" horiz-adv-x="1145" d="M7 1059q0 -83 58 -168q81 9 136 9v-708q0 -115 52 -153q50 -37 148 -37h486q51 0 84 3q32 3 74 17q40 13 61 48t21 88q0 110 -55 182q-85 -23 -189 -23l-227 4q-17 0 -22 5t-5 25v117h136q224 0 224 168q0 64 -23 120h-310q-16 0 -22 6q-5 5 -5 25v113h244q49 0 82 3 q36 3 74 16q39 13 61 49q21 34 21 87q0 104 -56 178q-65 -18 -188 -18h-672q-92 0 -139 -43q-49 -44 -49 -113zM210 1593q14 58 66 90t116 32q84 0 124 -54l84 -156l72 110q24 35 54 96q82 0 140 -27t75 -78q16 -50 -43 -129l-101 -119q-41 -49 -78 -71q-30 -18 -92 -18 q-128 0 -193 41z" />
<glyph unicode="&#x11b;" horiz-adv-x="1148" d="M81 439l1 -9q0 -460 552 -460q193 0 323 62q129 62 129 187q0 43 -22 93q-20 46 -59 71q-117 -77 -294 -77q-173 0 -197 85q83 -15 151 -15q79 0 166 15q77 13 147 43q69 29 110 84q39 52 39 125q0 148 -131 228q-132 81 -360 81q-259 0 -408 -137q-147 -135 -147 -376z M256 1319q14 57 67 90q52 32 116 32q83 0 124 -54l84 -156l72 109q19 27 53 97q82 0 140 -27t75 -79q16 -50 -43 -129l-100 -118q-42 -50 -79 -72q-29 -17 -91 -17q-129 0 -194 41zM530 509l2 -2q3 72 41 124q37 50 108 50q72 0 72 -65q0 -44 -58 -75q-55 -29 -165 -32z" />
<glyph unicode="&#x11c;" horiz-adv-x="1257" d="M79 561q0 -119 30 -221q28 -95 90 -184q58 -83 163 -131t242 -48q218 0 339 131q20 -65 66 -97q48 -33 111 -33q80 0 142 38v436q0 132 -40 172q-41 41 -150 41h-330q-23 -62 -23 -117q0 -138 168 -138h7v-35q0 -52 -156 -52q-229 0 -229 274q0 251 229 251 q172 0 301 -74q62 24 99 77q38 55 38 115q0 89 -74 152t-172 84q-104 22 -220 22q-319 0 -475 -183t-156 -480zM339 1360q-16 50 43 129l96 118q43 54 79 74q35 20 95 20q127 0 194 -42l222 -281q-13 -56 -66 -88q-52 -32 -117 -32q-83 0 -123 54l-86 148l-69 -109 q-19 -27 -53 -97q-82 0 -140 27t-75 79z" />
<glyph unicode="&#x11d;" horiz-adv-x="1240" d="M45 541q0 -221 201 -306q-81 -35 -130 -97q-48 -61 -48 -142q0 -138 138 -182q-107 -33 -107 -140q0 -75 68 -126q66 -50 163 -69q100 -20 215 -20q594 0 607 346q0 119 -79 190q-74 67 -188 87q-109 20 -222 27q-102 7 -190 22q-79 14 -79 50q0 11 4 21q64 -12 170 -12 q226 0 378 109t152 296l-12 -13q0 86 -36 156q78 16 118 61q42 47 42 97q0 61 -43 104t-115 43q-35 0 -74 -14v-18q0 -86 -71 -133q-124 65 -305 65q-239 0 -400 -106q-157 -104 -157 -296zM219 1106q-16 50 43 129l96 118q42 52 79 73q35 20 95 20q129 0 194 -41l222 -281 q-13 -56 -66 -88q-52 -32 -117 -32q-83 0 -123 53l-86 149l-69 -109q-19 -27 -53 -97q-82 0 -140 27t-75 79zM337 -260q0 14 9 34q37 -8 127 -11q98 -3 154 -10q63 -8 63 -33h-2q0 -28 -45 -44q-44 -16 -107 -16q-196 0 -199 80zM441 550q0 48 32 81q34 36 95 36v-2 q118 0 118 -99q0 -46 -32 -79q-33 -35 -91 -35q-122 0 -122 98z" />
<glyph unicode="&#x11e;" horiz-adv-x="1257" d="M79 561q0 -119 30 -221q28 -95 90 -184q58 -83 163 -131t242 -48q218 0 339 131q20 -65 66 -97q48 -33 111 -33q80 0 142 38v436q0 132 -40 172q-41 41 -150 41h-330q-23 -62 -23 -117q0 -138 168 -138h7v-35q0 -52 -156 -52q-229 0 -229 274q0 251 229 251 q172 0 301 -74q62 24 99 77q38 55 38 115q0 89 -74 152t-172 84q-104 22 -220 22q-319 0 -475 -183t-156 -480zM312 1514q0 59 37 102t117 51q86 -108 197 -108t199 108q79 -8 116 -51q38 -44 38 -100q0 -96 -98 -163t-255 -70l2 -2q-157 3 -255 70t-98 163z" />
<glyph unicode="&#x11f;" horiz-adv-x="1240" d="M45 541q0 -221 201 -306q-81 -35 -130 -97q-48 -61 -48 -142q0 -138 138 -182q-107 -33 -107 -140q0 -75 68 -126q66 -50 163 -69q100 -20 215 -20q594 0 607 346q0 119 -79 190q-74 67 -188 87q-109 20 -222 27q-102 7 -190 22q-79 14 -79 50q0 11 4 21q64 -12 170 -12 q226 0 378 109t152 296l-12 -13q0 86 -36 156q78 16 118 61q42 47 42 97q0 61 -43 104t-115 43q-35 0 -74 -14v-18q0 -86 -71 -133q-124 65 -305 65q-239 0 -400 -106q-157 -104 -157 -296zM226 1247q0 59 37 102t117 51q86 -108 197 -108t199 108q79 -8 116 -51 q38 -44 38 -100q0 -95 -99 -163q-98 -67 -254 -70l2 -2q-157 3 -255 70t-98 163zM337 -260q0 14 9 34q37 -8 127 -11q98 -3 154 -10q63 -8 63 -33h-2q0 -28 -45 -44q-44 -16 -107 -16q-196 0 -199 80zM441 550q0 48 32 81q34 36 95 36v-2q118 0 118 -99q0 -46 -32 -79 q-33 -35 -91 -35q-122 0 -122 98z" />
<glyph unicode="&#x120;" horiz-adv-x="1257" d="M79 561q0 -119 30 -221q28 -95 90 -184q58 -83 163 -131t242 -48q218 0 339 131q20 -65 66 -97q48 -33 111 -33q80 0 142 38v436q0 132 -40 172q-41 41 -150 41h-330q-23 -62 -23 -117q0 -138 168 -138h7v-35q0 -52 -156 -52q-229 0 -229 274q0 251 229 251 q172 0 301 -74q62 24 99 77q38 55 38 115q0 89 -74 152t-172 84q-104 22 -220 22q-319 0 -475 -183t-156 -480zM466 1457q0 86 64 150q65 65 174 65q100 0 151 -48q52 -49 52 -129q0 -84 -65 -149t-174 -65l-1 -2q-99 0 -151 49q-50 47 -50 129z" />
<glyph unicode="&#x121;" horiz-adv-x="1175" d="M43 543q0 -221 201 -306q-80 -34 -129 -97t-49 -142q0 -139 138 -183q-107 -33 -107 -139q0 -75 68 -126q67 -51 163 -70q95 -19 215 -19q594 0 607 345q0 120 -78 190q-75 68 -189 88q-109 20 -222 27q-102 7 -190 22q-79 14 -79 50q0 11 4 21q64 -12 170 -12 q226 0 378 109q153 109 153 296q0 117 -72 211q131 80 131 206q0 70 -43 117q-43 48 -126 48q-55 0 -109 -27q-53 -27 -77 -71q52 -46 52 -129q0 -6 -4 -34q-99 32 -254 35l-11 -9q-235 0 -387 -107q-154 -109 -154 -294zM339 -254q0 14 9 34q37 -8 127 -11q87 -3 154 -11 q63 -8 63 -32h-2q0 -28 -45 -45q-44 -16 -107 -16q-196 0 -199 81zM340 1206q0 86 65 151q64 64 174 64q99 0 150 -48q52 -49 52 -129q0 -85 -64 -149q-65 -65 -174 -65l-2 -1q-99 0 -150 48t-51 129zM441 554q0 47 32 80q34 36 95 36v-2q118 0 118 -98q0 -46 -32 -79 q-34 -36 -91 -36q-122 0 -122 99z" />
<glyph unicode="&#x122;" horiz-adv-x="1257" d="M84 559q0 297 156 480t475 183q121 0 220 -21q100 -21 172 -83q74 -63 74 -152q0 -60 -38 -115q-37 -53 -98 -77q-129 74 -301 74q-230 0 -230 -251q0 -274 230 -274q156 0 156 52v35l-11 -3q-169 0 -169 138q0 51 24 116h329q112 0 151 -39t39 -172v-436 q-61 -37 -141 -37q-64 0 -111 32q-48 33 -67 97q-121 -131 -338 -131q-137 0 -242 48t-163 131t-88 185q-29 99 -29 220zM573 -502v-5q121 57 121 156q0 29 -24 80q-23 49 -23 77q0 65 59 106t133 41q99 0 150 -68q52 -69 52 -156q0 -128 -88 -225t-220 -97q-120 0 -160 91z " />
<glyph unicode="&#x123;" horiz-adv-x="1175" d="M43 543q0 -221 201 -306q-80 -34 -129 -97t-49 -142q0 -139 138 -183q-107 -33 -107 -139q0 -75 68 -126q67 -51 163 -70q95 -19 215 -19q594 0 607 345q0 120 -78 190q-75 68 -189 88q-109 20 -222 27q-102 7 -190 22q-79 14 -79 50q0 11 4 21q64 -12 170 -12 q226 0 378 109q153 109 153 296q0 117 -72 211q131 80 131 206q0 70 -43 117q-43 48 -126 48q-55 0 -109 -27q-53 -27 -77 -71q52 -46 52 -129q0 -6 -4 -34q-99 32 -254 35l-11 -9q-235 0 -387 -107q-154 -109 -154 -294zM339 -254q0 14 9 34q37 -8 127 -11q87 -3 154 -11 q63 -8 63 -32h-2q0 -28 -45 -45q-44 -16 -107 -16q-196 0 -199 81zM344 1233q0 127 90 226q87 96 220 96q120 0 160 -91l-4 2q-120 -56 -120 -156q0 -33 23 -82q24 -51 24 -76q0 -62 -60 -104q-56 -39 -130 -39q-100 0 -151 68q-52 69 -52 156zM441 554q0 47 32 80 q34 36 95 36v-2q118 0 118 -98q0 -46 -32 -79q-34 -36 -91 -36q-122 0 -122 99z" />
<glyph unicode="&#x124;" horiz-adv-x="1392" d="M9 1100q0 -88 41 -156q40 -66 124 -80v-611q4 -82 7 -102q5 -36 20 -83q13 -43 43 -64q31 -22 75 -22q36 0 337 74q-42 119 -49 252v136h271q14 0 20 -7q5 -6 5 -27v-154q4 -82 7 -102q5 -34 20 -82q14 -45 43 -65q30 -21 75 -21q46 0 343 73q-42 119 -49 253v634 q-4 82 -7 102q-8 52 -18 85q-13 43 -43 64q-31 22 -75 22q-41 0 -342 -74q40 -115 48 -253l-9 -134h-269q-16 0 -21 5q-6 6 -6 25v196v64q0 27 -7 59q-7 35 -18 54q-8 15 -36 34q-23 16 -59 16q-89 -9 -143 -16q-127 -16 -161 -19q-55 -5 -162 -13q-5 -25 -5 -63zM410 1349 q-16 50 43 129l97 119q42 52 79 73q35 20 95 20q129 0 194 -41l222 -282q-13 -55 -67 -88q-52 -32 -116 -32q-84 0 -124 54l-86 149l-68 -110q-24 -34 -54 -96q-81 0 -139 27q-60 28 -76 78z" />
<glyph unicode="&#x125;" horiz-adv-x="1338" d="M-9 1482q-16 50 43 129l97 118q43 54 79 74q34 19 95 19q128 0 193 -41l222 -281q-13 -56 -66 -88q-52 -32 -116 -32q-84 0 -124 54l-86 148l-68 -109q-22 -32 -54 -97q-82 0 -140 27t-75 79zM54 1236q79 -114 79 -302v-732q4 -63 7 -78q8 -39 18 -65q14 -37 39 -52 q26 -16 70 -16q21 0 81 11q47 9 139 30q83 19 128 27q-37 94 -45 194v138q0 105 37 172q38 68 87 68q50 0 50 -75v-305q0 -267 285 -267q231 0 276 195q-65 8 -90 36q-24 27 -27 95l-3 289q0 174 -74 268q-72 92 -199 92q-222 0 -344 -237v375q-4 69 -7 86q-8 43 -18 77 q-14 44 -39 64q-28 22 -69 22q-25 0 -177 -49q-147 -47 -204 -61z" />
<glyph unicode="&#x126;" horiz-adv-x="1478" d="M13 943q0 42 30 66q29 23 106 23h14v124q226 61 290 61q116 0 135 -185h301v124q232 61 296 61q115 0 134 -185l30 4q29 0 86 11q43 -44 43 -97q0 -43 -30 -67q-29 -23 -106 -23h-14v-546q8 -138 48 -253q-301 -74 -342 -74q-44 0 -75 22q-30 21 -43 64q-10 33 -18 85 q-3 20 -7 102v145q0 19 -6 27q-6 7 -19 7h-271v-127q8 -138 48 -253q-297 -73 -337 -73q-45 0 -75 21q-29 20 -43 65q-11 34 -18 84q-3 20 -7 102v599h-21q-26 0 -86 -11q-43 44 -43 97zM595 785q0 -20 5 -25q6 -6 22 -6h269v106h-296v-75z" />
<glyph unicode="&#x128;" horiz-adv-x="863" d="M50 1059q0 -65 58 -150q81 9 134 9l-2 -599q0 -20 -20 -23q-139 -7 -139 -140q0 -88 55 -160h541q92 0 142 42q48 41 48 107q0 77 -57 161q-81 -9 -134 -9v595q0 21 19 24q140 8 140 139q0 106 -55 178q-65 -18 -189 -18h-353q-92 0 -139 -43q-49 -44 -49 -113zM57 1412 q0 161 189 169q44 0 166 -15q114 -14 144 -14q93 0 123 75q72 -8 111 -50q40 -43 43 -109v-4q0 -85 -55 -127q-56 -43 -151 -43q-45 0 -143 14t-140 14q-99 0 -134 -68q-66 7 -110 51q-43 43 -43 107z" />
<glyph unicode="&#x129;" horiz-adv-x="809" d="M-7 1140q0 160 188 168q53 0 167 -14q122 -15 143 -15q94 0 124 76q72 -8 111 -50q40 -43 43 -110v-3q0 -85 -56 -128t-150 -43q-39 0 -144 15q-98 14 -139 14q-100 0 -135 -68q-66 7 -109 50t-43 108zM59 900q0 -45 2 -63q4 -37 12 -63q11 -35 27 -59q15 -22 49 -39 q29 -15 79 -18v-457q4 -64 7 -79q8 -39 18 -65q14 -37 39 -52q26 -16 70 -16q25 0 86 11q63 11 145 30l127 29q-36 91 -44 194l-6 519v52q0 24 -5 47q-6 29 -18 43q-13 16 -38 27t-59 11q-60 -5 -227 -27q-172 -22 -264 -25z" />
<glyph unicode="&#x12b;" horiz-adv-x="716" d="M-2 900q92 3 264 25q163 21 229 27q34 0 59 -11t38 -27t19 -43t6 -47v-50v-525q7 -98 45 -193l-128 -29q-102 -23 -145 -31q-56 -10 -86 -10q-44 0 -70 16q-25 15 -39 52q-11 27 -18 64q-3 15 -7 79v457q-43 3 -77 20q-32 16 -49 41q-14 21 -26 59q-9 31 -13 63 q-2 18 -2 63zM5 1174q0 67 43 107t124 40q17 0 188 -9q39 -2 79 -4.5t59 -3.5t25 -1l-5 3q74 0 113 16q37 -61 37 -129t-39 -107q-40 -40 -115 -43q-22 0 -193 9q-38 2 -79 4.5t-60.5 3.5t-25.5 1q-74 0 -113 -16q-38 68 -38 129z" />
<glyph unicode="&#x12c;" horiz-adv-x="863" d="M50 1059q0 -65 58 -150q81 9 134 9l-2 -599q0 -20 -20 -23q-139 -7 -139 -140q0 -88 55 -160h541q92 0 142 42q48 41 48 107q0 77 -57 161q-81 -9 -134 -9v595q0 21 19 24q140 8 140 139q0 106 -55 178q-65 -18 -189 -18h-353q-92 0 -139 -43q-49 -44 -49 -113zM91 1516 q0 58 38 102q36 42 117 50q85 -107 197 -107q111 0 199 107q79 -8 116 -50q38 -44 38 -100q0 -96 -99 -163q-98 -67 -254 -70l1 -2q-156 3 -254 70q-99 67 -99 163z" />
<glyph unicode="&#x12e;" horiz-adv-x="863" d="M47 1063q0 69 48 113q47 43 140 43h353q127 0 188 17q55 -72 55 -177q0 -133 -139 -140q-20 -3 -20 -23v-595q53 0 134 9q58 -85 58 -161q0 -43 -27 -77q-28 -36 -59 -54q-33 -19 -59 -56q-27 -38 -27 -86q0 -66 66 -66q34 0 65 11q32 -49 32 -97l-2 7q0 -84 -66 -131 q-67 -48 -190 -48q-105 0 -163 54q-59 54 -59 140q0 143 148 258h-387q-55 72 -55 159q0 133 139 140q20 3 20 23v595q-55 0 -136 -9q-57 84 -57 151z" />
<glyph unicode="&#x12f;" horiz-adv-x="702" d="M0 898q0 -45 2 -63q4 -37 12 -63q11 -35 27 -59q15 -22 49 -39q30 -15 78 -18l-9 -466q3 -62 9 -99q6 -36 33 -71t75 -38q-131 -109 -131 -247q0 -86 59 -140q58 -54 163 -54q123 0 192 49q68 48 68 132q0 48 -32 97q-31 -11 -65 -11q-66 0 -66 67q0 58 47 111 q44 50 145 70q-38 95 -45 193v522v52q0 24 -5 46q-6 29 -18 43q-13 16 -38 27t-59 11q-63 -6 -228 -27q-172 -22 -263 -25zM120 1167q0 90 68 147q65 55 181 55q104 0 161 -48q56 -47 56 -131l-2 2q0 -91 -61 -145t-179 -54q-224 0 -224 174z" />
<glyph unicode="&#x136;" horiz-adv-x="1299" d="M9 1100q0 38 5 63q74 5 162 14q22 2 48.5 5.5t59.5 8t53 6.5q54 7 143 16q36 0 59 -16q28 -19 36 -34q14 -26 20 -54q9 -41 9 -59v-64v-275h52q89 0 124 65t35 149q0 89 -48 184q100 106 247 106q123 0 181 -77q59 -79 59 -183q0 -211 -193 -340q48 -130 138 -230 q88 -98 175 -118q-6 -145 -87 -210q-82 -66 -199 -66q-80 0 -140 22q-56 21 -108 80q-48 55 -87 169q-37 108 -67 281h-77l-5 -237q8 -136 48 -252q-301 -74 -337 -74q-44 0 -75 22q-30 21 -43 64q-10 33 -18 85q-3 20 -7 102v611q-84 14 -124 80q-39 65 -39 156zM495 -419 v-6q120 56 120 156q0 30 -24 81q-23 49 -23 77q0 65 59 106t133 41q99 0 150 -68q52 -69 52 -156q0 -129 -88 -226t-220 -97q-118 0 -159 92z" />
<glyph unicode="&#x137;" horiz-adv-x="1234" d="M39 1222q61 14 205 61q148 48 177 48q41 0 68 -21t41 -65q10 -34 18 -77q4 -26 8 -86v-432q154 294 408 294q115 0 172 -62t57 -156q0 -106 -64 -176q-63 -69 -194 -72q56 -69 147 -69q50 0 92 25q48 -72 48 -167q0 -123 -73 -210q-72 -86 -205 -86q-91 0 -161 40 t-107 107q-35 64 -56 140q-18 66 -18 154q80 10 136 49q54 38 54 82q0 25 -16 41t-43 16q-97 0 -181 -136v-215q7 -98 45 -193q-42 -7 -127 -27q-109 -25 -140 -31q-60 -11 -81 -11q-42 0 -70 17q-25 15 -39 52q-11 27 -18 64q-3 15 -7 79l3 720q0 189 -79 303zM389 -455v-6 q120 56 120 156q0 32 -23 81q-24 51 -24 77q0 65 59 106t133 41q100 0 151 -68q52 -69 52 -156q0 -129 -88 -226t-221 -97q-118 0 -159 92z" />
<glyph unicode="&#x139;" horiz-adv-x="1035" d="M13 1100q0 38 5 63q70 5 161 14q29 3 90 11t71 9q48 6 144 16q36 0 59 -16q28 -19 36 -34q14 -26 20 -54q8 -37 8 -59v-64v-579q0 -32 18 -32h88h86q181 0 291 51q33 -42 53 -107q20 -63 20 -99q0 -71 -25 -118q-24 -45 -75 -66q-53 -22 -108 -29q-53 -7 -145 -7h-471 q-39 0 -70 14q-29 13 -47 36q-16 21 -27 59q-8 30 -12 70q-3 30 -6 79l-1 606q-84 14 -124 80q-39 65 -39 156zM197 1392q0 32 23 61l260 323q64 -11 119 -50q57 -41 78 -97q17 -38 11 -83t-39 -71l-294 -237q-61 21 -108 61q-50 43 -50 93z" />
<glyph unicode="&#x13a;" horiz-adv-x="682" d="M39 1233q56 10 208 59q150 48 181 48q133 0 133 -249v-706q7 -83 45 -113q37 -30 113 -30q-3 -121 -77 -188t-183 -67q-151 0 -246 81t-95 247v615q0 189 -79 303zM65 1495q0 31 23 60l260 323q63 -11 118 -50q59 -42 79 -97q17 -38 11 -82q-6 -45 -40 -72l-294 -237 q-59 20 -107 61q-50 43 -50 94z" />
<glyph unicode="&#x13b;" horiz-adv-x="1035" d="M13 1100q0 38 5 63q70 5 161 14q29 3 90 11t71 9q48 6 144 16q36 0 59 -16q28 -19 36 -34q14 -26 20 -54q8 -37 8 -59v-64v-579q0 -32 18 -32h88h86q181 0 291 51q33 -42 53 -107q20 -63 20 -99q0 -71 -25 -118q-24 -45 -75 -66q-53 -22 -108 -29q-53 -7 -145 -7h-471 q-39 0 -70 14q-29 13 -47 36q-16 21 -27 59q-8 30 -12 70q-3 30 -6 79l-1 606q-84 14 -124 80q-39 65 -39 156zM414 -511v-5q120 56 120 156q0 31 -23 80q-24 51 -24 78q0 63 60 105q59 41 132 41q100 0 151 -68q52 -69 52 -156q0 -128 -88 -225t-221 -97q-119 0 -159 91z " />
<glyph unicode="&#x13c;" horiz-adv-x="680" d="M38 1228q56 10 208 59q150 48 180 48q133 0 133 -249v-706q7 -83 45 -113t113 -30q-3 -122 -77 -189q-73 -66 -183 -66q-151 0 -246 81t-95 247v615q0 191 -78 303zM174 -514v-6q120 56 120 156q0 34 -23 83q-24 51 -24 75q0 65 59 106t133 41q100 0 151 -68 q52 -69 52 -156q0 -129 -88 -226t-221 -97q-118 0 -159 92z" />
<glyph unicode="&#x13d;" horiz-adv-x="1035" d="M13 1100q0 38 5 63q70 5 161 14q29 3 90 11t71 9q48 6 144 16q36 0 59 -16q28 -19 36 -34q14 -26 20 -54q8 -37 8 -59v-64v-579q0 -32 18 -32h88h86q181 0 291 51q33 -42 53 -107q20 -63 20 -99q0 -71 -25 -118q-24 -45 -75 -66q-53 -22 -108 -29q-53 -7 -145 -7h-471 q-39 0 -70 14q-29 13 -47 36q-16 21 -27 59q-8 30 -12 70q-3 30 -6 79l-1 606q-84 14 -124 80q-39 65 -39 156zM650 747q121 57 121 156q0 32 -24 83q-23 49 -23 75q0 65 59 106t133 41q99 0 150 -68q52 -69 52 -156q0 -129 -88 -226t-220 -97q-119 0 -160 92v-6z" />
<glyph unicode="&#x13e;" horiz-adv-x="947" d="M38 1233q56 10 208 59q150 48 180 48q133 0 133 -249v-706q7 -83 45 -113t113 -30q-3 -121 -77 -188t-183 -67q-151 0 -246 81t-95 247v615q0 190 -78 303zM599 880q120 56 120 156q0 29 -24 80q-23 49 -23 77q0 65 59 106t133 41q99 0 150 -68q52 -69 52 -156 q0 -128 -88 -225t-220 -97q-119 0 -159 91v-5z" />
<glyph unicode="&#x13f;" horiz-adv-x="1035" d="M13 1106q0 -88 41 -156t123 -81v-611h-5q1 -9 2.5 -37.5t2.5 -41.5q3 -35 13 -70q11 -38 27 -59q19 -24 46 -36q31 -14 70 -14h472q92 0 145 7q54 7 107 29q51 21 76 68t25 118q0 44 -18 101q-20 62 -54 107q-112 -52 -290 -52h-86h-88q-18 0 -18 32v579v65q0 27 -7 59 q-7 35 -18 54q-8 15 -36 34q-23 16 -59 16q-96 -10 -144 -16q-10 -1 -71 -9t-90 -11q-57 -6 -161 -13q-5 -25 -5 -62zM138 1403q0 67 59 118q60 52 158 52q90 0 134 -37q47 -39 47 -102q0 -68 -59 -119q-60 -52 -158 -52h-2q-88 0 -134 38q-45 37 -45 102z" />
<glyph unicode="&#x141;" horiz-adv-x="1035" d="M9 416q0 66 61 109l104 72v265q-83 13 -124 81q-39 65 -39 155q0 38 5 63q37 3 161 15q39 4 162 19q54 7 143 16q36 0 59 -16q28 -19 36 -34q14 -26 20 -54q9 -41 9 -59v-64v-81l136 95q35 27 68 65q49 -14 84 -47q36 -34 36 -73q0 -61 -75 -112l-248 -173v-251 q0 -32 18 -32h88h86q181 0 291 51q33 -42 53 -107q20 -63 20 -99q0 -71 -25 -118q-24 -45 -75 -66q-53 -22 -108 -29q-53 -7 -145 -7h-471q-39 0 -70 14q-29 13 -47 36q-16 21 -27 59q-8 30 -12 70q-3 30 -6 79l-3 90l-70 -49q-40 7 -68 43q-27 34 -27 74z" />
<glyph unicode="&#x142;" horiz-adv-x="851" d="M39 439q0 66 61 109l129 90v292q0 190 -78 303q53 10 207 59q150 48 181 48q133 0 133 -249v-143l27 20q38 29 68 64q51 -14 84 -46q36 -34 36 -74q0 -60 -75 -111l-140 -99v-319q7 -82 45 -112q39 -31 113 -31q-3 -121 -77 -188q-73 -66 -183 -66q-153 0 -246 80 q-95 81 -95 248v75l-95 -66q-40 7 -68 43q-27 34 -27 73z" />
<glyph unicode="&#x143;" horiz-adv-x="1335" d="M13 1057q0 69 48 113q47 43 140 43h179q88 -3 150 -32q68 -31 128 -108l310 -437l-2 255q-7 191 -48 286q155 38 209 38q60 0 92 -18q36 -21 52 -59q14 -35 21 -83q5 -36 5 -111l-16 -917q-67 -36 -165 -36q-73 0 -112 11t-67 39l-428 570q5 -25 11 -306q3 -187 46 -285 q-155 -38 -209 -38q-57 0 -92 20q-34 19 -50 59q-14 35 -21 84q-6 43 -6 111v660q-48 0 -118 -9q-57 84 -57 150zM609 1296q0 31 24 61l259 322q64 -11 119 -50q59 -42 79 -97q16 -37 10 -82q-6 -46 -39 -72l-294 -236q-63 22 -108 60q-50 43 -50 94z" />
<glyph unicode="&#x144;" horiz-adv-x="1302" d="M-7 898q91 3 263 25q161 21 230 27q34 0 59 -11q23 -10 37 -27q14 -18 20 -43q5 -23 5 -46v-51v-57q121 237 345 237q126 0 198 -92q74 -94 74 -269v-285q3 -66 27 -93q23 -26 89 -34q-45 -195 -276 -195q-284 0 -284 267v305q0 75 -51 75q-48 0 -86 -65 q-36 -62 -39 -165l3 -154q7 -98 45 -193l-127 -29q-82 -19 -145 -30q-61 -11 -86 -11q-44 0 -70 16q-25 15 -39 52q-11 27 -18 64q-4 22 -8 79v457q-43 3 -77 20q-30 15 -48 41q-16 24 -27 59q-8 26 -12 63q-2 18 -2 63zM511 1090q0 31 23 60l260 323q63 -11 118 -50 q59 -42 79 -97q17 -38 11 -82q-6 -45 -40 -72l-294 -237q-59 20 -107 61q-50 43 -50 94z" />
<glyph unicode="&#x145;" horiz-adv-x="1335" d="M13 1057q0 69 48 113q47 43 140 43h179q88 -3 150 -32q68 -31 128 -108l310 -437l-2 255q-7 191 -48 286q155 38 209 38q60 0 92 -18q36 -21 52 -59q14 -35 21 -83q5 -36 5 -111l-16 -917q-67 -36 -165 -36q-73 0 -112 11t-67 39l-428 570q5 -25 11 -306q3 -187 46 -285 q-155 -38 -209 -38q-57 0 -92 20q-34 19 -50 59q-14 35 -21 84q-6 43 -6 111v660q-48 0 -118 -9q-57 84 -57 150zM511 -403v-6q120 56 120 156q0 30 -24 81q-23 49 -23 77q0 65 59 106t133 41q99 0 150 -68q52 -69 52 -156q0 -130 -87 -226q-88 -97 -221 -97q-118 0 -159 92 z" />
<glyph unicode="&#x146;" horiz-adv-x="1302" d="M-7 898q91 3 263 25q161 21 230 27q34 0 59 -11q23 -10 37 -27q14 -18 20 -43q5 -23 5 -46v-51v-57q121 237 345 237q126 0 198 -92q74 -94 74 -269v-285q3 -66 27 -93q23 -26 89 -34q-45 -195 -276 -195q-284 0 -284 267v305q0 75 -51 75q-48 0 -86 -65 q-36 -62 -39 -165l3 -154q7 -98 45 -193l-127 -29q-82 -19 -145 -30q-61 -11 -86 -11q-44 0 -70 16q-25 15 -39 52q-11 27 -18 64q-4 22 -8 79v457q-43 3 -77 20q-30 15 -48 41q-16 24 -27 59q-8 26 -12 63q-2 18 -2 63zM464 -443v-5q120 56 120 156q0 32 -23 81t-23 77 q0 64 59 105q61 42 132 42q99 0 151 -69t52 -155q0 -129 -88 -226t-220 -97q-120 0 -160 91z" />
<glyph unicode="&#x147;" horiz-adv-x="1335" d="M13 1057q0 69 48 113q47 43 140 43h179q88 -3 150 -32q68 -31 128 -108l310 -437l-2 255q-7 191 -48 286q155 38 209 38q60 0 92 -18q36 -21 52 -59q14 -35 21 -83q5 -36 5 -111l-16 -917q-67 -36 -165 -36q-73 0 -112 11t-67 39l-428 570q5 -25 11 -306q3 -187 46 -285 q-155 -38 -209 -38q-57 0 -92 20q-34 19 -50 59q-14 35 -21 84q-6 43 -6 111v660q-48 0 -118 -9q-57 84 -57 150zM353 1523q14 58 66 90t117 32q82 0 123 -54l85 -156l71 110q24 35 54 96q84 0 140 -26q58 -27 75 -79q16 -50 -43 -129l-100 -119q-40 -48 -79 -71 q-30 -18 -91 -18q-129 0 -194 41z" />
<glyph unicode="&#x148;" horiz-adv-x="1302" d="M-13 900q0 -45 2 -63q4 -32 13 -63q11 -35 27 -59q16 -23 48 -39q29 -15 79 -18v-457q4 -64 7 -79q8 -39 18 -65q14 -37 39 -52q26 -16 70 -16q25 0 86 11q63 11 145 30l128 29q-37 94 -45 194l-9 145q3 103 39 165q37 64 86 64q51 0 51 -75v-305q0 -267 284 -267 q231 0 276 196q-65 8 -89 35t-27 95v285q0 176 -73 269q-72 92 -199 92q-223 0 -344 -237v57v52q0 20 -6 47q-6 29 -18 43q-14 17 -37 27q-25 11 -60 11q-60 -5 -227 -27q-172 -22 -264 -25zM292 1290q14 58 66 90t117 32q83 0 124 -54l84 -156l71 110q22 32 54 97 q82 0 140 -27t75 -79q16 -50 -43 -129l-100 -119q-40 -48 -79 -71q-30 -18 -91 -18q-129 0 -194 41z" />
<glyph unicode="&#x14c;" horiz-adv-x="1309" d="M79 566q0 139 37 253q38 116 113 208t199 143q125 52 285 52q608 0 608 -582q0 -132 -36 -253q-34 -112 -108 -210q-71 -93 -193 -147q-119 -53 -280 -53l-3 3q-622 0 -622 586zM378 1432q0 67 43 107t124 40q17 0 188 -9q39 -2 79 -4.5t59 -3.5t25 -1l-5 2q74 0 113 16 q37 -61 37 -129q0 -69 -39 -108q-40 -40 -115 -43q-22 0 -193 9q-38 2 -79 4.5t-60.5 3.5t-25.5 1q-74 0 -113 -16q-38 68 -38 131zM514 599q0 -237 185 -237q190 0 190 238q0 112 -49 178q-48 64 -134 64q-192 0 -192 -242v-1z" />
<glyph unicode="&#x14d;" d="M61 437q0 223 145 368t416 145q278 0 414 -124q134 -122 134 -340q0 -222 -141 -366t-409 -147l2 4q-288 0 -425 122q-136 121 -136 338zM276 1163q0 68 43 108q42 39 124 39q17 0 188 -9q39 -2 79 -4.5t59 -3.5t25 -1l-6 2q74 0 113 16q38 -62 38 -129q0 -69 -39 -108 q-40 -40 -115 -43q-23 0 -194 9q-38 2 -79 4.5t-60.5 3.5t-25.5 1q-73 0 -112 -16q-38 68 -38 131zM486 461q0 -59 32 -101q33 -43 95 -43q54 0 91 40q38 41 38 107q0 69 -34 109t-88 40q-56 0 -93 -40q-38 -41 -38 -107z" />
<glyph unicode="&#x14e;" horiz-adv-x="1309" d="M82 566q0 -586 622 -586l4 -3q160 0 279 53q124 55 194 147q73 96 107 210q36 121 36 253q0 582 -607 582q-160 0 -285 -52q-124 -51 -199 -143t-113 -208q-38 -117 -38 -253zM357 1516q0 59 37 102q36 42 117 50q85 -107 197 -107q111 0 199 107q79 -8 116 -50 q38 -44 38 -100q0 -96 -99 -163q-98 -67 -254 -70l2 -2q-157 3 -255 70t-98 163zM514 600v2q0 242 192 242q86 0 134 -64q49 -66 49 -178q0 -238 -190 -238q-185 0 -185 236z" />
<glyph unicode="&#x14f;" d="M61 437q0 223 145 368t416 145q278 0 414 -124q134 -122 134 -340q0 -222 -141 -366t-409 -147l2 4q-288 0 -425 122q-136 121 -136 338zM271 1235q0 59 37 102q36 42 117 50q86 -108 197 -108q110 0 199 108q79 -8 116 -50q38 -44 38 -101q0 -96 -99 -163 q-97 -66 -254 -69l2 -2q-157 3 -255 70t-98 163zM486 461q0 -59 32 -101q33 -43 95 -43q54 0 91 40q38 41 38 107q0 69 -34 109t-88 40q-56 0 -93 -40q-38 -41 -38 -107z" />
<glyph unicode="&#x150;" horiz-adv-x="1309" d="M79 566q0 139 37 253q38 116 113 208t199 143q125 52 285 52q608 0 608 -582q0 -132 -36 -253q-34 -112 -108 -210q-71 -93 -193 -147q-119 -53 -280 -53l-3 3q-622 0 -622 586zM335 1410q0 32 25 63l260 321q136 -20 181 -135q34 -104 -32 -157l-296 -231 q-138 45 -138 139zM514 599q0 -237 185 -237q190 0 190 238q0 112 -49 178q-48 64 -134 64q-192 0 -192 -242v-1zM765 1412q0 34 23 63l260 321q136 -20 181 -135q34 -105 -32 -158l-296 -231q-55 20 -95 54q-41 35 -41 86z" />
<glyph unicode="&#x151;" d="M61 437q0 223 145 368t416 145q278 0 414 -124q134 -122 134 -340q0 -222 -141 -366t-409 -147l2 4q-288 0 -425 122q-136 121 -136 338zM228 1131q0 31 25 62l260 321q136 -20 181 -134q34 -104 -33 -158l-295 -231q-138 45 -138 140zM486 461q0 -59 32 -101 q33 -43 95 -43q54 0 91 40q38 41 38 107q0 69 -34 109t-88 40q-56 0 -93 -40q-38 -41 -38 -107zM658 1133q0 33 23 62l260 321q136 -20 181 -134q34 -105 -32 -158l-296 -231q-55 20 -95 54q-41 35 -41 86z" />
<glyph unicode="&#x152;" horiz-adv-x="1761" d="M86 564q0 127 36 248q33 112 106 209q71 95 186 149q116 54 263 54q107 0 224 -47q40 40 120 40l470 -7q123 0 188 18q56 -74 56 -178q0 -52 -22 -88q-21 -35 -61 -48q-39 -13 -71 -16q-44 -4 -83 -4h-244v-113q0 -19 6 -25q5 -5 21 -5h310q24 -57 24 -118 q0 -169 -224 -169h-137v-116q0 -19 6 -25t21 -6h221q103 0 188 23q55 -72 55 -182q0 -54 -21 -88q-21 -35 -61 -48q-43 -14 -72 -17q-33 -3 -82 -3h-486q-102 0 -152 50q-97 -72 -256 -72q-249 0 -389 162q-140 163 -140 422zM514 595q0 -43 9 -97q7 -43 29 -93 q20 -47 66 -77q44 -29 108 -29q55 0 98 13v571q-42 13 -91 13q-116 0 -167 -86q-50 -84 -50 -217z" />
<glyph unicode="&#x153;" horiz-adv-x="1741" d="M63 419q0 230 138 382q137 151 408 151q160 0 280 -85q140 86 339 86q230 0 360 -80q131 -80 131 -228q0 -72 -40 -125q-40 -54 -109 -83q-70 -30 -147 -43q-69 -12 -167 -12q-72 0 -150 14q24 -84 197 -84q177 0 294 77q38 -24 59 -72t21 -93q0 -124 -129 -185 q-128 -61 -322 -61q-216 0 -348 72q-144 -70 -301 -70q-230 0 -373 113q-141 111 -141 328v-2zM487 459q0 -78 36 -131q34 -50 106 -50q22 0 63 9q-18 57 -18 150l-2 -5q0 111 34 204q-39 14 -73 14q-71 0 -108 -53q-38 -55 -38 -138zM1118 513q110 3 165 32q57 30 57 75 q0 65 -71 65t-108 -51q-38 -52 -41 -123z" />
<glyph unicode="&#x154;" horiz-adv-x="1275" d="M7 1055q0 51 22 87q21 35 61 48q43 14 78 20q31 5 90 5h391q315 0 462 -104t147 -308q0 -261 -161 -344q92 -153 220 -183q-6 -151 -81 -222q-74 -70 -189 -70q-42 0 -70 5q-33 6 -56 16q-30 13 -47 29q-16 15 -37 32q-15 12 -32 43q-20 37 -25 49q-19 48 -20 53 q-4 12 -9 30t-7 24l-16 58q-3 9 -6.5 21.5t-5.5 19.5t-3 12q-20 -3 -80 -3l-2 -68q8 -130 48 -251l-95 -24l-100 -25q-56 -13 -75 -16q-41 -7 -65 -7q-44 0 -75 22q-30 21 -43 64q-11 34 -18 84q-3 20 -7 102v642q-55 0 -136 -9q-58 85 -58 168zM398 1410q0 32 23 61 l260 323q63 -11 118 -50q59 -42 79 -97q17 -38 11 -83q-6 -44 -40 -71l-293 -237q-61 21 -108 61q-50 43 -50 93zM631 620q9 -2 55 -2q151 0 151 147q0 129 -135 129h-71v-274z" />
<glyph unicode="&#x155;" horiz-adv-x="1100" d="M-11 901q92 3 264 25q163 21 229 27q36 0 59 -10q25 -11 38 -27q14 -18 20 -43q5 -23 5 -47v-50v-74q63 135 129 192q68 59 161 59q90 0 138 -59q49 -60 49 -154q-6 -137 -142 -215q-88 48 -168 48q-110 0 -167 -84l-5 -181q3 -67 26 -93t90 -34q-43 -195 -276 -195 q-283 0 -283 267v403q-43 3 -77 20q-32 16 -49 41q-14 21 -26 59q-9 31 -13 63q-2 18 -2 62zM213 1138q0 31 24 61l259 322q64 -11 119 -50q59 -42 79 -97q16 -37 10 -82q-6 -46 -39 -72l-294 -236q-61 21 -108 61q-50 43 -50 93z" />
<glyph unicode="&#x156;" horiz-adv-x="1275" d="M7 1055q0 51 22 87q21 35 61 48q43 14 78 20q31 5 90 5h391q315 0 462 -104t147 -308q0 -261 -161 -344q92 -153 220 -183q-6 -151 -81 -222q-74 -70 -189 -70q-42 0 -70 5q-33 6 -56 16q-30 13 -47 29q-16 15 -37 32q-15 12 -32 43q-20 37 -25 49q-19 48 -20 53 q-4 12 -9 30t-7 24l-16 58q-3 9 -6.5 21.5t-5.5 19.5t-3 12q-20 -3 -80 -3l-2 -68q8 -130 48 -251l-95 -24l-100 -25q-56 -13 -75 -16q-41 -7 -65 -7q-44 0 -75 22q-30 21 -43 64q-11 34 -18 84q-3 20 -7 102v642q-55 0 -136 -9q-58 85 -58 168zM487 -439v-5q120 56 120 155 q0 32 -23 81t-23 77q0 65 59 106t133 41q99 0 150 -68q52 -69 52 -156q0 -129 -88 -226q-87 -96 -220 -96q-120 0 -160 91zM631 620q9 -2 55 -2q151 0 151 147q0 129 -135 129h-71v-274z" />
<glyph unicode="&#x157;" horiz-adv-x="1100" d="M-11 901q92 3 264 25q163 21 229 27q36 0 59 -10q25 -11 38 -27q14 -18 20 -43q5 -23 5 -47v-50v-74q63 135 129 192q68 59 161 59q90 0 138 -59q49 -60 49 -154q-6 -137 -142 -215q-88 48 -168 48q-110 0 -167 -84l-5 -181q3 -67 26 -93t90 -34q-43 -195 -276 -195 q-283 0 -283 267v403q-43 3 -77 20q-32 16 -49 41q-14 21 -26 59q-9 31 -13 63q-2 18 -2 62zM190 -507v-6q120 56 120 156q0 32 -23 81q-24 51 -24 77q0 64 60 106q59 41 132 41q100 0 151 -68q52 -69 52 -156q0 -129 -88 -226t-221 -97q-118 0 -159 92z" />
<glyph unicode="&#x158;" horiz-adv-x="1275" d="M7 1055q0 -83 58 -168q81 9 136 9v-642q4 -82 7 -102q5 -34 20 -82q14 -45 43 -65q30 -21 75 -21q12 0 64 9q23 4 76 16l100 25l95 25q-40 121 -48 251l-8 56q61 0 81 3q2 -11 14 -54l17 -55q2 -6 7 -24t9 -30q7 -22 19 -54q3 -8 25 -48q16 -29 33 -43q21 -17 37 -32 q17 -16 47 -29q22 -10 57 -16q33 -6 70 -6q118 0 192 70q75 70 81 224q-130 30 -221 183q161 83 161 344q0 206 -147 310q-150 106 -462 106h-391q-56 0 -87 -5q-33 -5 -77 -20q-40 -13 -61 -48q-22 -36 -22 -87zM211 1581q13 56 67 89q52 32 116 32q84 0 124 -53l84 -156 l72 109q22 32 54 97q80 0 139 -27t76 -79q16 -50 -43 -129l-101 -118q-42 -50 -79 -72q-30 -18 -91 -18q-129 0 -194 41zM625 618v274h72q134 0 134 -129q0 -147 -150 -147q-47 0 -56 2z" />
<glyph unicode="&#x159;" horiz-adv-x="1100" d="M-9 896q0 -45 2 -63q4 -36 12 -62q11 -37 27 -60q15 -22 49 -39q30 -15 78 -18v-403q0 -267 284 -267q233 0 276 195q-62 7 -88 36q-24 27 -27 95l-4 172q57 84 167 84q79 0 168 -48q136 78 142 215q0 96 -48 154q-48 59 -137 59q-93 0 -161 -59q-66 -57 -129 -192v74v52 q0 23 -5 46q-6 29 -18 43q-13 16 -38 27t-59 11q-63 -6 -228 -27q-172 -22 -263 -25zM97 1321q13 57 66 89q54 33 117 33q82 0 123 -54l84 -156l72 109q22 32 54 97q81 0 140 -27q58 -27 75 -79q16 -50 -43 -129l-100 -118q-42 -50 -79 -72q-30 -18 -92 -18q-126 0 -193 42z " />
<glyph unicode="&#x15a;" horiz-adv-x="1055" d="M22 235q0 129 100 191q59 -47 154 -82q86 -32 176 -32q35 0 48 2q36 6 41 7q23 7 32 18q11 14 11 36q0 28 -39 44q-43 18 -101 25q-44 6 -129 31q-61 18 -130 57q-63 35 -103 110q-40 74 -43 181q0 184 144 293q143 108 412 108q211 0 321 -65q111 -65 111 -182 q0 -59 -34 -106q-36 -51 -102 -74q-147 103 -350 103q-118 0 -118 -49q0 -28 63 -50q62 -21 150 -45q95 -26 178 -61q90 -38 150 -114q63 -80 63 -190l-2 -4q-7 -203 -140 -308q-131 -104 -412 -104q-451 0 -451 260zM317 1409q0 31 23 60l260 323q64 -11 119 -50 q57 -41 78 -97q17 -38 11 -82q-6 -46 -39 -72l-294 -237q-61 21 -108 61q-50 43 -50 94z" />
<glyph unicode="&#x15b;" horiz-adv-x="1060" d="M73 201q0 53 31 100q31 46 84 70q145 -91 323 -91q57 0 57 32q0 20 -48 30q-81 18 -119 25q-63 12 -139 38q-69 24 -119 84q-48 59 -48 149q0 149 133 235t381 86q196 0 301 -54q106 -55 106 -152q0 -51 -38 -97q-39 -47 -114 -70q-48 38 -140 66q-88 27 -172 27 q-68 0 -68 -30l-7 5q0 -17 53 -30l133 -34q82 -20 156 -49q80 -31 133 -91t53 -149q0 -315 -509 -315q-423 0 -423 215zM382 1156q0 32 23 61l260 322q63 -11 118 -50q59 -42 79 -97q17 -38 11 -82q-6 -45 -40 -72l-294 -236q-59 20 -107 61q-50 43 -50 93z" />
<glyph unicode="&#x15c;" horiz-adv-x="1055" d="M22 235q0 129 100 191q59 -47 154 -82q86 -32 176 -32q35 0 48 2q36 6 41 7q23 7 32 18q11 14 11 36q0 28 -39 44q-43 18 -101 25q-44 6 -129 31q-61 18 -130 57q-63 35 -103 110q-40 74 -43 181q0 184 144 293q143 108 412 108q211 0 321 -65q111 -65 111 -182 q0 -59 -34 -106q-36 -51 -102 -74q-147 103 -350 103q-118 0 -118 -49q0 -28 63 -50q62 -21 150 -45q95 -26 178 -61q90 -38 150 -114q63 -80 63 -190l-2 -4q-7 -203 -140 -308q-131 -104 -412 -104q-451 0 -451 260zM181 1353q-16 50 43 129l97 118q43 54 79 74 q34 19 95 19q128 0 193 -41l222 -281q-13 -56 -66 -88q-52 -32 -116 -32q-84 0 -124 54l-86 148l-68 -109q-22 -32 -54 -97q-82 0 -140 27t-75 79z" />
<glyph unicode="&#x15d;" horiz-adv-x="1062" d="M73 201q0 53 31 100q31 46 84 70q145 -91 323 -91q57 0 57 32q0 20 -48 30q-81 18 -119 25q-63 12 -139 38q-69 24 -119 84q-48 59 -48 149q0 149 133 235t381 86q196 0 301 -54q106 -55 106 -152q0 -51 -38 -97q-39 -47 -114 -70q-48 38 -140 66q-88 27 -172 27 q-68 0 -68 -30l-7 5q0 -17 53 -30l133 -34q82 -20 156 -49q80 -31 133 -91t53 -149q0 -315 -509 -315q-423 0 -423 215zM211 1106q-16 50 43 129l97 118q42 52 79 73q35 20 95 20q129 0 194 -41l222 -281q-13 -55 -67 -88q-52 -32 -116 -32q-84 0 -124 53l-86 149l-68 -109 q-22 -32 -54 -97q-80 0 -139 27t-76 79z" />
<glyph unicode="&#x15e;" horiz-adv-x="1055" d="M22 235q0 129 100 191q59 -47 154 -82q86 -32 176 -32q35 0 48 2q36 6 41 7q23 7 32 18q11 14 11 36q0 28 -39 44q-43 18 -101 25q-44 6 -129 31q-61 18 -130 57q-63 35 -103 110q-40 74 -43 181q0 184 144 293q143 108 412 108q211 0 321 -65q111 -65 111 -182 q0 -59 -34 -106q-36 -51 -102 -74q-147 103 -350 103q-118 0 -118 -49q0 -28 63 -50q62 -21 150 -45q95 -26 178 -61q90 -38 150 -114q63 -80 63 -190l-6 -4q-8 -176 -103 -276q-96 -101 -302 -125l-12 -61q114 -14 176 -76t62 -146q0 -129 -97 -187q-98 -59 -245 -59 q-217 0 -217 161q0 64 34 108q70 -40 187 -40q75 0 75 31q0 17 -34 23t-77 6q-42 0 -77 21q-34 21 -34 68q0 25 5 47l21 96q-361 24 -361 257z" />
<glyph unicode="&#x15f;" horiz-adv-x="1060" d="M73 201q0 53 31 100q31 46 84 70q145 -91 323 -91q57 0 57 32q0 20 -48 30q-81 18 -119 25q-63 12 -139 38q-69 24 -119 84q-48 59 -48 149q0 149 133 235t381 86q196 0 301 -54q106 -55 106 -152q0 -51 -38 -97q-39 -47 -114 -70q-48 38 -140 66q-88 27 -172 27 q-68 0 -68 -30l-9 7q0 -18 54 -31l132 -34q89 -22 156 -48q80 -31 133 -91q54 -61 54 -149q0 -277 -393 -310l-11 -58q115 -14 176 -75q63 -63 63 -147q0 -128 -97 -186q-98 -59 -246 -59q-216 0 -216 161q0 64 34 108q70 -40 186 -40q75 0 75 31q0 17 -34 23q-29 5 -77 5 q-41 0 -77 22q-34 21 -34 68q0 24 5 46l22 99q-307 27 -307 210z" />
<glyph unicode="&#x160;" horiz-adv-x="1055" d="M22 235q0 129 100 191q59 -47 154 -82q86 -32 176 -32q35 0 48 2q36 6 41 7q23 7 32 18q11 14 11 36q0 28 -39 44q-43 18 -101 25q-44 6 -129 31q-61 18 -130 57q-63 35 -103 110q-40 74 -43 181q0 184 144 293q143 108 412 108q211 0 321 -65q111 -65 111 -182 q0 -59 -34 -106q-36 -51 -102 -74q-147 103 -350 103q-118 0 -118 -49q0 -28 63 -50q62 -21 150 -45q95 -26 178 -61q90 -38 150 -114q63 -80 63 -190l-2 -4q-7 -203 -140 -308q-131 -104 -412 -104q-451 0 -451 260zM125 1590q13 56 67 89q52 32 116 32q84 0 124 -53 l84 -156l72 109q22 32 54 97q81 0 139 -27q59 -27 76 -79q16 -50 -43 -129l-101 -118q-42 -50 -79 -72q-30 -18 -91 -18q-129 0 -194 41z" />
<glyph unicode="&#x161;" horiz-adv-x="1060" d="M73 201q0 53 31 100q31 46 84 70q145 -91 323 -91q57 0 57 32q0 20 -48 30q-81 18 -119 25q-63 12 -139 38q-69 24 -119 84q-48 59 -48 149q0 149 133 235t381 86q196 0 301 -54q106 -55 106 -152q0 -51 -38 -97q-39 -47 -114 -70q-48 38 -140 66q-88 27 -172 27 q-68 0 -68 -30l-7 5q0 -17 53 -30l133 -34q82 -20 156 -49q80 -31 133 -91t53 -149q0 -315 -509 -315q-423 0 -423 215zM186 1342q14 57 67 90q52 32 116 32q83 0 124 -54l84 -156l72 110q21 30 53 96q84 0 140 -26q59 -27 76 -79q16 -49 -44 -129l-100 -119 q-40 -48 -79 -71q-30 -18 -91 -18q-129 0 -194 41z" />
<glyph unicode="&#x162;" horiz-adv-x="1141" d="M-23 1016q0 108 59 156q58 48 213 48q81 0 271 -10q209 -11 268 -11q139 0 253 43q79 -137 79 -228q0 -98 -63 -150q-60 -50 -231 -50h-39q-20 -3 -20 -27l4 -479q7 -136 48 -252q-301 -74 -337 -74q-44 0 -75 22q-30 21 -43 64q-11 34 -18 84q-3 20 -7 102v577 q-13 2 -54 2q-121 0 -231 -59q-77 135 -77 242zM346 -498v-4q120 56 120 156q0 35 -23 81q-24 48 -24 75q0 65 59 106t133 41q100 0 151 -68q52 -69 52 -156q0 -129 -88 -226t-221 -97q-118 0 -159 92z" />
<glyph unicode="&#x163;" horiz-adv-x="847" d="M45 1142q281 71 353 71q131 0 131 -208l-2 -48q117 0 231 39q4 -24 20 -96q3 -14 25 -108q11 -47 11 -70q0 -98 -162 -98h-123v-119q0 -228 233 -249q-13 -153 -94 -211q-82 -59 -222 -59q-66 0 -125 21q-58 21 -113 65q-53 43 -86 123q-31 76 -34 187v548 q-7 124 -43 212zM220 -493v-3q120 56 120 156q0 34 -23 80t-23 75q0 65 59 106t133 41q99 0 150 -68q52 -69 52 -156q0 -128 -88 -225t-220 -97q-120 0 -160 91z" />
<glyph unicode="&#x164;" horiz-adv-x="1141" d="M-29 1016q0 -107 77 -242q110 59 232 59q40 0 53 -2v-577q4 -82 7 -102q5 -34 20 -82q14 -45 43 -65q30 -21 75 -21q40 0 337 73q-40 115 -48 253l-5 475q0 24 19 27h40q168 0 231 52t63 150q0 91 -79 228q-114 -43 -253 -43q-60 0 -269 11q-190 10 -270 10 q-156 0 -214 -48q-59 -48 -59 -156zM168 1588q13 56 67 89t116 33q83 0 124 -54l84 -156l72 109q22 32 54 97q81 0 139 -27q59 -27 76 -79q16 -50 -43 -129l-101 -118q-42 -50 -79 -72q-30 -18 -91 -18q-127 0 -194 42z" />
<glyph unicode="&#x165;" horiz-adv-x="1270" d="M41 1136q36 -88 43 -211v-549q3 -108 34 -184q33 -81 86 -124q52 -42 113 -64t127 -22q142 0 224 59q80 58 94 212q-233 21 -233 249v118h91q161 0 161 99q0 26 -10 69q-5 21 -24 108q-10 47 -19 97q-117 -40 -199 -40l-4 47q0 208 -131 208q-68 0 -353 -72zM812 749 q120 56 120 156q0 32 -23 81q-24 51 -24 77q0 64 59 105q61 42 133 42q100 0 151 -68t51 -156q0 -130 -87 -226q-88 -97 -221 -97q-119 0 -159 91v-5z" />
<glyph unicode="&#x168;" horiz-adv-x="1318" d="M13 1104q0 -88 41 -156t123 -81v-351q0 -136 36 -242q33 -98 90 -158q50 -53 134 -87q87 -35 147 -42q81 -9 151 -9q69 0 150 9q60 7 147 42q86 35 135 87q54 57 89 160q36 106 36 242l-11 428q-4 82 -7 102q-8 52 -18 85q-13 43 -43 64q-31 22 -75 22q-32 0 -333 -74 q40 -115 48 -253v-424q0 -160 -124 -160q-125 0 -125 160v519v65q0 27 -7 59q-7 35 -18 54q-8 15 -36 34q-23 16 -59 16q-96 -10 -144 -16q-10 -1 -71 -9t-90 -11q-24 -2 -161 -12q-5 -25 -5 -63zM330 1403q0 161 188 169q45 0 167 -15q114 -14 143 -14q94 0 124 75 q72 -8 111 -50q40 -43 43 -109v-4q0 -84 -56 -127t-150 -43q-46 0 -144 14q-105 15 -140 15q-99 0 -134 -69q-65 7 -109 51q-43 43 -43 107z" />
<glyph unicode="&#x169;" horiz-adv-x="1274" d="M-11 896q0 -45 2 -63q3 -30 13 -62q12 -40 26 -60q15 -22 49 -39q29 -15 79 -18v-335q0 -173 73 -258q71 -83 199 -83q109 0 188 58t140 183v-20q4 -64 7 -79q7 -37 18 -64q14 -36 40 -52q28 -17 69 -17q25 0 86 11q47 8 146 31l127 28q-37 94 -45 194v493q-5 61 -5 62 q-3 20 -11 54q-7 27 -22 49q-13 18 -37 32q-21 12 -59 12q-49 0 -357 -71q36 -98 43 -194l-2 -213q0 -85 -27 -133t-66 -48q-63 0 -63 75v400v52q0 23 -5 46q-6 29 -18 43q-13 16 -38 27t-59 11q-60 -5 -227 -27q-172 -22 -264 -25zM260 1158q0 160 188 168q53 0 167 -14 q122 -15 143 -15q94 0 124 76q70 -7 111 -51q40 -43 43 -109v-3q0 -85 -56 -128t-150 -43q-39 0 -144 15q-98 14 -139 14q-100 0 -135 -68q-66 7 -109 50t-43 108z" />
<glyph unicode="&#x16a;" horiz-adv-x="1318" d="M18 1098q0 38 5 63q40 3 162 15q34 3 161 19q54 7 143 16q36 0 59 -16q28 -19 36 -34q14 -26 20 -54q9 -41 9 -59v-64v-520q0 -159 125 -159q124 0 124 159v425q-8 138 -48 253q297 73 333 73q44 0 75 -22q30 -21 43 -64q15 -48 20 -82q3 -20 7 -103l2 -435 q0 -136 -36 -242q-34 -101 -88 -158q-50 -53 -134 -87q-87 -35 -147 -42q-81 -9 -151 -9q-69 0 -150 9q-60 7 -147 42q-86 35 -135 87q-54 57 -89 160q-36 106 -36 242v351q-83 13 -124 81q-39 65 -39 155zM416 1389q0 67 43 107t123 40q18 0 189 -9q39 -2 79 -4.5t59 -3.5 t25 -1l-6 3q71 0 113 17q38 -62 38 -129q0 -68 -40 -108t-114 -43q-23 0 -194 9q-38 2 -79 4.5t-60.5 3.5t-25.5 1q-74 0 -113 -16q-37 67 -37 129z" />
<glyph unicode="&#x16b;" horiz-adv-x="1274" d="M-13 900q92 3 264 25q163 21 229 27q34 0 59 -11t38 -27q14 -18 20 -43q5 -23 5 -47v-50v-399q0 -76 63 -76q38 0 66 49q27 48 27 132l-5 205q-7 95 -43 193q312 72 356 72q36 0 59 -13q26 -15 38 -32q16 -23 22 -48q7 -26 10 -54q3 -25 6 -61v-493q8 -101 44 -193 l-127 -29q-102 -23 -145 -31q-56 -10 -86 -10q-44 0 -70 16q-25 15 -39 52q-11 27 -18 64q-3 15 -7 79v20q-61 -125 -140 -183q-78 -57 -188 -57q-127 0 -199 84t-72 258v335q-43 3 -77 20q-30 15 -48 41q-16 24 -27 59q-9 31 -13 63q-2 18 -2 63zM328 1154q0 68 43 108 q42 39 124 39q17 0 188 -9q39 -2 79 -4.5t59 -3.5t25 -1l-6 4q74 0 113 16q38 -62 38 -129q0 -69 -39 -108q-40 -40 -115 -43q-23 0 -194 9q-38 2 -79 4.5t-60.5 3.5t-25.5 1q-73 0 -112 -16q-38 68 -38 129z" />
<glyph unicode="&#x16c;" horiz-adv-x="1318" d="M13 1104q0 -88 41 -156t123 -81v-351q0 -136 36 -242q33 -98 90 -158q50 -53 134 -87q87 -35 147 -42q81 -9 151 -9q69 0 150 9q60 7 147 42q86 35 135 87q54 57 89 160q36 106 36 242l-11 428q-4 82 -7 102q-8 52 -18 85q-13 43 -43 64q-31 22 -75 22q-32 0 -333 -74 q40 -115 48 -253v-424q0 -160 -124 -160q-125 0 -125 160v519v65q0 27 -7 59q-7 35 -18 54q-8 15 -36 34q-23 16 -59 16q-96 -10 -144 -16q-10 -1 -71 -9t-90 -11q-24 -2 -161 -12q-5 -25 -5 -63zM366 1462q0 59 37 102t117 51q86 -108 197 -108t199 108q79 -8 116 -51 q38 -44 38 -100q0 -96 -99 -163q-98 -67 -254 -70l2 -2q-157 3 -255 70t-98 163z" />
<glyph unicode="&#x16d;" horiz-adv-x="1274" d="M-11 896q0 -45 2 -63q3 -30 13 -62q12 -40 26 -60q15 -22 49 -39q29 -15 79 -18v-335q0 -173 73 -258q71 -83 199 -83q109 0 188 58t140 183v-20q4 -64 7 -79q7 -37 18 -64q14 -36 40 -52q28 -17 69 -17q25 0 86 11q47 8 146 31l127 28q-37 94 -45 194v493q-5 61 -5 62 q-3 20 -11 54q-7 27 -22 49q-13 18 -37 32q-21 12 -59 12q-49 0 -357 -71q36 -98 43 -194l-2 -213q0 -85 -27 -133t-66 -48q-63 0 -63 75v400v52q0 23 -5 46q-6 29 -18 43q-13 16 -38 27t-59 11q-60 -5 -227 -27q-172 -22 -264 -25zM315 1210q0 58 38 102q36 42 117 50 q86 -108 197 -108t199 108q79 -8 116 -50q38 -44 38 -101q0 -95 -99 -163q-98 -67 -254 -70l1 -1q-156 3 -254 70q-99 67 -99 163z" />
<glyph unicode="&#x16e;" horiz-adv-x="1318" d="M13 1104q0 -88 41 -156t123 -81v-351q0 -136 36 -242q33 -98 90 -158q50 -53 134 -87q87 -35 147 -42q81 -9 151 -9q69 0 150 9q60 7 147 42q86 35 135 87q54 57 89 160q36 106 36 242l-11 428q-4 82 -7 102q-8 52 -18 85q-13 43 -43 64q-31 22 -75 22q-32 0 -333 -74 q40 -115 48 -253v-424q0 -160 -124 -160q-125 0 -125 160v519v65q0 27 -7 59q-7 35 -18 54q-8 15 -36 34q-23 16 -59 16q-96 -10 -144 -16q-10 -1 -71 -9t-90 -11q-24 -2 -161 -12q-5 -25 -5 -63zM480 1425q0 98 74 170q71 70 209 70l4 -2q117 0 183 -56t66 -163 q0 -109 -70 -170q-72 -63 -204 -63q-126 0 -195 58q-67 57 -67 156zM695 1430q0 -64 61 -64q24 0 43 19q18 18 18 52l-2 -3q0 64 -57 64q-25 0 -43 -18q-20 -20 -20 -50z" />
<glyph unicode="&#x16f;" horiz-adv-x="1274" d="M-11 896q0 -45 2 -63q3 -30 13 -62q12 -40 26 -60q15 -22 49 -39q29 -15 79 -18v-335q0 -173 73 -258q71 -83 199 -83q109 0 188 58t140 183v-20q4 -64 7 -79q7 -37 18 -64q14 -36 40 -52q28 -17 69 -17q25 0 86 11q47 8 146 31l127 28q-37 94 -45 194v493q-5 61 -5 62 q-3 20 -11 54q-7 27 -22 49q-13 18 -37 32q-21 12 -59 12q-49 0 -357 -71q36 -98 43 -194l-2 -213q0 -85 -27 -133t-66 -48q-63 0 -63 75v400v52q0 23 -5 46q-6 29 -18 43q-13 16 -38 27t-59 11q-60 -5 -227 -27q-172 -22 -264 -25zM423 1186q0 100 73 171q70 69 210 69 l4 -1q116 0 182 -56q67 -57 67 -163q0 -109 -70 -170q-72 -63 -204 -63q-129 0 -196 57q-66 56 -66 156zM638 1192q0 -65 61 -65q23 0 43 20q18 18 18 52l-2 -4q0 65 -57 65q-25 0 -43 -18q-20 -20 -20 -50z" />
<glyph unicode="&#x170;" horiz-adv-x="1318" d="M18 1098q0 38 5 63q40 3 162 15q34 3 161 19q54 7 143 16q36 0 59 -16q28 -19 36 -34q14 -26 20 -54q9 -41 9 -59v-64v-520q0 -159 125 -159q124 0 124 159v425q-8 138 -48 253q297 73 333 73q44 0 75 -22q30 -21 43 -64q15 -48 20 -82q3 -20 7 -103l2 -435 q0 -136 -36 -242q-34 -101 -88 -158q-50 -53 -134 -87q-87 -35 -147 -42q-81 -9 -151 -9q-69 0 -150 9q-60 7 -147 42q-86 35 -135 87q-54 57 -89 160q-36 106 -36 242v351q-83 13 -124 81q-39 65 -39 155zM321 1374q0 32 25 63l260 321q136 -20 181 -134q34 -104 -33 -158 l-295 -231q-138 45 -138 139zM751 1376q0 34 23 63l260 321q136 -20 181 -135q34 -104 -32 -157l-296 -232q-55 20 -95 54q-41 35 -41 86z" />
<glyph unicode="&#x171;" horiz-adv-x="1274" d="M-13 900q92 3 264 25q163 21 229 27q34 0 59 -11t38 -27q14 -18 20 -43q5 -23 5 -47v-50v-399q0 -76 63 -76q38 0 66 49q27 48 27 132l-5 205q-7 95 -43 193q312 72 356 72q36 0 59 -13q26 -15 38 -32q16 -23 22 -48q7 -26 10 -54q3 -25 6 -61v-493q8 -101 44 -193 l-127 -29q-102 -23 -145 -31q-56 -10 -86 -10q-44 0 -70 16q-25 15 -39 52q-11 27 -18 64q-3 15 -7 79v20q-61 -125 -140 -183q-78 -57 -188 -57q-127 0 -199 84t-72 258v335q-43 3 -77 20q-30 15 -48 41q-16 24 -27 59q-9 31 -13 63q-2 18 -2 63zM228 1120q0 32 25 63 l260 320q136 -20 181 -134q34 -104 -33 -158l-295 -231q-138 45 -138 140zM658 1122q0 34 23 63l260 320q136 -20 181 -134q34 -105 -32 -158l-296 -231q-55 20 -95 54q-41 35 -41 86z" />
<glyph unicode="&#x172;" horiz-adv-x="1318" d="M18 1100q0 38 5 63q74 5 162 14q22 2 48.5 5.5t59.5 8t53 6.5q54 7 143 16q36 0 59 -16q28 -19 36 -34q14 -26 20 -54q9 -41 9 -59v-64v-520q0 -160 125 -160q124 0 124 160v425q-8 137 -48 252q301 74 333 74q44 0 75 -22q30 -21 43 -64q15 -47 20 -83q3 -20 7 -102 v-426q0 -434 -344 -518q-60 -16 -93 -43q-32 -26 -32 -77q0 -32 17 -50q20 -22 51 -22q33 0 64 11q32 -49 32 -97l-1 -4q0 -82 -67 -130q-69 -49 -190 -49q-105 0 -163 54q-59 54 -59 140q0 132 127 242q-79 7 -130 21q-62 18 -122 54q-59 36 -104 95q-43 57 -70 150 q-27 95 -27 216v351q-84 14 -124 80q-39 65 -39 156z" />
<glyph unicode="&#x173;" horiz-adv-x="1293" d="M-13 900q92 3 275 25q176 21 236 27q34 0 59 -11t38 -27q14 -18 20 -43q5 -23 5 -47v-50v-399q0 -76 63 -76q38 0 66 49q27 48 27 132l-4 208q-7 96 -43 194q308 71 357 71q38 0 59 -12q26 -15 38 -32q14 -20 21 -49q8 -34 11 -54q0 -3 5 -61v-492q7 -97 49 -199 q-167 -51 -167 -179q0 -67 66 -67q36 0 67 11q32 -49 32 -97q0 -84 -66 -131q-67 -48 -190 -48q-105 0 -163 54q-60 55 -60 140q0 138 131 247h-9q-44 0 -70 16q-25 15 -39 52q-11 27 -18 64q-3 15 -7 79v20q-61 -125 -140 -183q-78 -57 -188 -57q-127 0 -199 84t-72 258 v335q-55 3 -96 27q-39 23 -59 65q-20 41 -27 77q-8 40 -8 79z" />
<glyph unicode="&#x175;" horiz-adv-x="1591" d="M-30 720q68 0 105 -102q39 -105 65 -263q26 -155 41 -204q57 -173 258 -173q97 0 253 49q-7 28 -7 66q0 48 14 93l84 269l63 -285q51 -192 263 -192q99 0 255 49q-9 49 -9 52q0 77 48 192l99 242q48 123 48 218q0 110 -70 167q-68 55 -172 55q-77 0 -145 -30 q-67 -30 -91 -86h-2q57 -35 57 -135q0 -32 -11 -82q-10 -48 -18 -81q-5 -21 -25 -80l-19 -59l-83 272q-20 62 -46 91q-28 31 -77 31h-97q-51 0 -75 -27q-27 -30 -49 -93l-86 -244q-16 162 -28 226q-17 86 -51 161t-93 108q-57 32 -149 32q-230 0 -250 -237zM421 1011 q-16 50 43 129l97 118q42 52 79 73q35 20 95 20q128 0 193 -41l222 -281q-13 -56 -66 -88q-52 -32 -116 -32q-84 0 -124 53l-86 149l-68 -109q-22 -32 -54 -97q-82 0 -140 27t-75 79z" />
<glyph unicode="&#x176;" horiz-adv-x="1234" d="M-14 982q82 0 165 -152l172 -348q30 -62 30 -131v-98q4 -82 7 -102q5 -36 20 -83q13 -43 43 -64q31 -22 75 -22t335 72q-37 104 -37 209q0 60 28 113q34 65 111 162l133 157q61 70 104 151q45 84 45 159q0 90 -59 149t-172 59q-153 0 -226 -111q30 -38 30 -93 q0 -39 -16 -86q-15 -44 -30 -77q-13 -29 -43 -83q-31 -55 -33 -61q-51 138 -66 172q-37 84 -66 138q-42 78 -77 113q-39 39 -88 65q-51 27 -113 27l-5 -6q-111 0 -180 -50q-67 -49 -87 -179zM263 1321q-16 50 43 129l97 118q42 52 79 73q35 20 95 20q129 0 194 -41l222 -281 q-13 -55 -67 -88q-52 -32 -116 -32q-84 0 -124 53l-86 149l-68 -109q-22 -32 -54 -97q-80 0 -139 27t-76 79z" />
<glyph unicode="&#x177;" horiz-adv-x="1232" d="M-11 896q0 -45 2 -63q3 -30 13 -62q12 -40 26 -60q15 -22 49 -39q29 -15 79 -18v-335q0 -342 272 -342q110 0 188 57q80 58 144 194l-2 -13q0 -50 -6 -95q-7 -52 -21 -98q-18 -59 -39 -92q-24 -37 -67 -64t-98 -27q-87 0 -147 52q-106 -51 -106 -176q0 -109 82 -179 q84 -72 232 -72q125 0 225 41q96 39 163 117q64 74 108 170q44 95 68 219q25 126 32 240q9 139 9 256v230q-5 61 -5 62q-2 20 -11 54q-7 28 -21 48q-13 19 -38 33q-21 12 -59 12q-34 0 -346 -72q36 -92 43 -193v-208q0 -83 -27 -131t-68 -48q-63 0 -63 75v400v52q0 23 -5 46 q-6 29 -18 43q-13 16 -38 27t-59 11q-60 -5 -227 -27q-172 -22 -264 -25zM297 1098q-16 51 43 130l97 118q42 52 79 73q35 20 95 20q129 0 194 -41l222 -282q-13 -55 -66 -87q-54 -33 -117 -33q-84 0 -124 54l-86 149l-68 -109q-19 -27 -53 -97q-81 0 -140 27q-60 28 -76 78 z" />
<glyph unicode="&#x178;" horiz-adv-x="1234" d="M-14 982q82 0 165 -152l172 -348q30 -62 30 -131v-98q4 -82 7 -102q5 -36 20 -83q13 -43 43 -64q31 -22 75 -22t335 72q-37 104 -37 209q0 60 28 113q34 65 111 162l133 157q61 70 104 151q45 84 45 159q0 90 -59 149t-172 59q-153 0 -226 -111q30 -38 30 -93 q0 -39 -16 -86q-15 -44 -30 -77q-13 -29 -43 -83q-31 -55 -33 -61q-51 138 -66 172q-37 84 -66 138q-42 78 -77 113q-39 39 -88 65q-51 27 -113 27l-5 -6q-111 0 -180 -50q-67 -49 -87 -179zM211 1409q0 71 58 129q57 57 154 57q88 0 134 -41q45 -40 45 -113t-57 -131 q-57 -59 -154 -59q-91 0 -135 43q-45 44 -45 115zM663 1409q0 72 57 129t154 57q89 0 135 -41q45 -40 45 -113q0 -71 -58 -131q-57 -59 -154 -59q-90 0 -134 43q-45 44 -45 115z" />
<glyph unicode="&#x179;" horiz-adv-x="1107" d="M22 208q0 149 114 242l522 385h-325q-123 0 -236 -36l-13 34l-12 34l-11 29q-3 8 -7 18l-4 9l-7 25q-2 6 -4.5 16t-2.5 11q-4 14 -6 23q-1 4 -1 23q0 93 73 151q71 56 226 56l457 -24q195 0 247 20q56 -96 56 -229q0 -73 -34 -140t-72 -108q-32 -34 -111 -102l-362 -267 q37 -3 181 -27q152 -25 224 -25q77 0 152 22q52 -87 52 -185q0 -103 -70 -167t-195 -64q-119 0 -333 48q-219 49 -314 49q-69 0 -107 -20q-77 83 -77 199zM366 1410q0 32 23 61l260 323q63 -11 118 -50q59 -42 79 -97q17 -38 11 -83q-6 -44 -40 -71l-294 -237 q-59 20 -107 61q-50 43 -50 93z" />
<glyph unicode="&#x17a;" horiz-adv-x="1076" d="M47 765q0 185 279 185l414 -20h41h38h30q26 0 31 2q4 2 23 5q18 3 25 6l22 7q10 3 21 9q61 -109 61 -210q0 -47 -14 -86q-13 -36 -47 -70q-37 -37 -59 -54q-14 -11 -79 -53l-254 -140q2 0 106 -4q78 -3 118 -3q110 0 202 19q63 -132 63 -204q0 -168 -249 -168 q-103 0 -258 7t-238 7q-112 0 -183 -11q-68 110 -68 201q0 111 96 177l432 239h-274q-114 0 -210 -29q-69 139 -69 188zM353 1145q0 32 23 61l260 323q61 -10 118 -51q59 -42 79 -96q17 -38 11 -83t-39 -71l-294 -237q-61 21 -108 61q-50 43 -50 93z" />
<glyph unicode="&#x17b;" horiz-adv-x="1107" d="M23 206q0 -116 77 -199q38 20 108 20q96 0 315 -49q215 -48 334 -48q124 0 195 65q70 64 70 166q0 98 -52 185q-75 -22 -152 -22q-71 0 -223 25q-147 24 -179 27l348 260q79 68 111 102q40 43 73 108q34 67 34 140q0 135 -55 229q-52 -20 -247 -20l-457 24 q-155 0 -226 -56q-72 -57 -72 -151q0 -14 2 -23q1 -2 2.5 -10.5t2.5 -12.5q0 -1 2.5 -11t4.5 -16l8 -23q1 -2 4 -11t6 -16l13 -27l14 -32l15 -33q113 36 236 36h324l-521 -385q-115 -94 -115 -242zM383 1435q0 86 65 151q64 64 174 64q99 0 150 -48q52 -49 52 -129 q0 -85 -64 -149t-174 -64l-2 -2q-99 0 -150 48t-51 129z" />
<glyph unicode="&#x17c;" horiz-adv-x="1076" d="M54 769q0 -47 70 -188q92 28 209 28h274l-440 -240q-97 -67 -97 -177q0 -91 68 -201q71 11 183 11q83 0 238 -7q178 -8 258 -8q249 0 249 169q0 74 -62 204q-97 -20 -203 -20q-14 0 -118 4t-106 4l254 139q57 37 79 54q22 18 59 54q34 34 47 70q14 39 14 86 q0 101 -61 210q-11 -6 -21 -9l-20 -6q-4 -2 -23 -5q-15 -3 -23 -6q-3 -1 -29 -1h-29h-37h-40l-414 19q-279 0 -279 -184zM367 1186q0 86 65 151q64 64 174 64q99 0 150 -48q52 -49 52 -129q0 -85 -64 -149t-174 -64l-2 -2q-99 0 -150 48t-51 129z" />
<glyph unicode="&#x17d;" horiz-adv-x="1107" d="M23 206q0 -116 77 -199q38 20 108 20q96 0 315 -49q215 -48 334 -48q124 0 195 65q70 64 70 166q0 98 -52 185q-75 -22 -152 -22q-71 0 -223 25q-147 24 -179 27l348 260q79 68 111 102q40 43 73 108q34 67 34 140q0 135 -55 229q-52 -20 -247 -20l-457 24 q-155 0 -226 -56q-72 -57 -72 -151q0 -14 2 -23q1 -2 2.5 -10.5t2.5 -12.5q0 -1 2.5 -11t4.5 -16l8 -23q1 -2 4 -11t6 -16l13 -27l14 -32l15 -33q113 36 236 36h324l-521 -385q-115 -94 -115 -242zM208 1568q14 58 66 90t117 32q82 0 123 -54l85 -156l71 110q24 34 54 96 q82 0 140 -27t75 -78q16 -50 -43 -129l-100 -119q-40 -48 -79 -71q-30 -18 -92 -18q-128 0 -193 41z" />
<glyph unicode="&#x17e;" horiz-adv-x="1076" d="M54 769q0 -47 70 -188q92 28 209 28h274l-440 -240q-97 -67 -97 -177q0 -91 68 -201q71 11 183 11q83 0 238 -7q178 -8 258 -8q249 0 249 169q0 74 -62 204q-97 -20 -203 -20q-14 0 -118 4t-106 4l254 139q57 37 79 54q22 18 59 54q34 34 47 70q14 39 14 86 q0 101 -61 210q-11 -6 -21 -9l-20 -6q-4 -2 -23 -5q-15 -3 -23 -6q-3 -1 -29 -1h-29h-37h-40l-414 19q-279 0 -279 -184zM188 1344q14 58 66 90t117 32q83 0 124 -54l84 -156l71 110q24 34 54 96q82 0 140 -27t75 -78q16 -50 -43 -129l-100 -119q-40 -48 -79 -71 q-30 -18 -91 -18q-129 0 -194 41z" />
<glyph unicode="&#x192;" horiz-adv-x="878" d="M-192 -330q0 58 34 119q28 -18 65 -18q39 0 71 16t54 52q21 35 38 70q16 34 27 89q3 17 16 90q0 1 12 91l56 450l-143 -18q-25 67 -25 126q0 198 202 198h45q-2 11 -2 47q0 180 113 278q112 97 297 97q103 0 171 -45t68 -140q0 -47 -31 -120q-29 5 -66 5 q-141 0 -176 -122l251 18q16 -52 16 -111q0 -98 -59 -166q-60 -69 -172 -69q-1 0 -6.5 0.5t-17.5 1.5t-26 2l-59 -487q-11 -99 -34 -181q-26 -93 -66 -174q-44 -90 -99 -152q-56 -64 -140 -104q-83 -40 -186 -40q-107 0 -167 56q-61 57 -61 141z" />
<glyph unicode="&#x1fc;" horiz-adv-x="1679" d="M50 118q6 45 31 99l254 543q35 77 81 141q-83 -3 -131 -9q-39 69 -39 156q0 163 259 163h907q123 0 188 18q56 -74 56 -177q0 -52 -22 -88q-21 -35 -61 -48q-39 -13 -71 -16q-44 -4 -83 -4h-256v-113q0 -20 5 -25t22 -5h322q24 -59 24 -120q0 -169 -224 -169h-149v-116 q0 -20 5 -25q6 -6 22 -6l229 -7q103 0 188 23q56 -74 56 -182q0 -52 -22 -88t-60 -49q-39 -13 -72 -16t-83 -3h-483q-97 0 -147 37q-51 37 -51 154v24h-292l-93 -215h-197q-64 0 -91 37q-28 39 -22 86zM579 505q-7 -30 21 -30h142v417zM726 1432q0 32 23 61l260 322 q63 -11 118 -50q59 -42 79 -97q17 -38 11 -82q-6 -45 -40 -72l-294 -236q-59 20 -107 61q-50 43 -50 93z" />
<glyph unicode="&#x1fd;" horiz-adv-x="1666" d="M18 265h7q0 104 63 176q61 70 150 97q85 26 203 26q114 0 199 -28q-7 114 -170 114q-189 0 -282 -77q-93 53 -93 158q0 103 125 161q129 60 339 60q249 0 337 -126q102 126 317 126q178 0 307 -81t129 -224q0 -73 -40 -126q-39 -52 -109 -82t-147 -43q-75 -13 -167 -13 q-60 0 -143 15q24 -84 188 -84q177 0 294 77q38 -24 59 -72q22 -50 22 -93q0 -124 -129 -185q-128 -61 -323 -61q-168 0 -280 42q-105 40 -168 154q-45 -99 -142 -147q-100 -49 -211 -49q-139 0 -238 76q-97 75 -97 209zM452 299v4q0 -38 21 -59q22 -22 57 -22 q104 0 110 145q-4 54 -4 61q-69 -3 -125 -32q-59 -30 -59 -97zM745 1106q0 31 24 61l260 322q63 -11 118 -50q59 -42 79 -97q16 -37 10 -82q-6 -46 -39 -72l-294 -236q-61 21 -107 60q-51 44 -51 94zM1059 518q109 3 161 32q54 30 54 77q0 65 -72 65q-69 0 -104 -49 q-34 -47 -37 -122z" />
<glyph unicode="&#x218;" horiz-adv-x="1055" d="M23 229q0 129 101 192q59 -47 154 -82q88 -33 175 -33q36 0 49 2q36 6 41 7q23 7 32 18q11 14 11 36q0 29 -39 45q-43 18 -101 25q-44 6 -129 31q-63 19 -131 57q-62 35 -102 109t-43 181q0 185 144 294q143 108 412 108q211 0 321 -65q111 -65 111 -183q0 -58 -34 -105 q-36 -50 -103 -74q-146 102 -349 102q-118 0 -118 -48q0 -29 62 -50q58 -20 151 -45q92 -25 177 -61q91 -38 151 -115q63 -80 63 -190l-2 -3q-7 -204 -140 -309q-129 -103 -412 -103q-452 0 -452 259zM285 -518l2 -5q120 56 120 156q0 31 -24 82q-23 49 -23 75q0 65 59 106 t131 41q100 0 151 -68q52 -69 52 -156q0 -129 -88 -226q-87 -96 -221 -96q-119 0 -159 91z" />
<glyph unicode="&#x219;" horiz-adv-x="1060" d="M73 201q0 53 31 100q31 46 84 70q145 -91 323 -91q57 0 57 32q0 20 -48 30q-81 18 -119 25q-63 12 -139 38q-69 24 -119 84q-48 59 -48 149q0 149 133 235t381 86q196 0 301 -54q106 -55 106 -152q0 -51 -38 -97q-39 -47 -114 -70q-48 38 -140 66q-88 27 -172 27 q-68 0 -68 -30l-7 5q0 -17 53 -30l133 -34q82 -20 156 -49q80 -31 133 -91t53 -149q0 -315 -509 -315q-423 0 -423 215zM280 -518v-5q120 56 120 156q0 29 -24 80q-23 49 -23 77q0 65 59 106t133 41q99 0 150 -68q52 -69 52 -156q0 -129 -88 -226q-87 -96 -220 -96 q-119 0 -159 91z" />
<glyph unicode="&#x2c6;" horiz-adv-x="831" d="M104 928q-16 50 43 129l97 119q42 52 79 73q35 20 95 20q128 0 193 -41l222 -282q-13 -56 -66 -88q-52 -32 -117 -32q-82 0 -123 54l-86 149l-68 -110q-24 -35 -54 -96q-84 0 -140 26q-58 27 -75 79z" />
<glyph unicode="&#x2c7;" horiz-adv-x="831" d="M9 1147q13 57 66 89q54 33 117 33q82 0 123 -54l85 -156l71 109q22 32 54 97q81 0 140 -27q58 -27 75 -79q16 -50 -43 -129l-100 -118q-42 -50 -79 -72q-29 -17 -92 -17q-128 0 -193 41z" />
<glyph unicode="&#x2d8;" horiz-adv-x="752" d="M25 1090q0 58 38 102q37 42 116 50q86 -108 197 -108q110 0 199 108q81 -8 117 -50q37 -43 37 -101q0 -96 -98 -163t-255 -70l2 -1q-157 3 -254 69q-99 68 -99 164z" />
<glyph unicode="&#x2d9;" horiz-adv-x="483" d="M20 1054q0 86 64 150q65 65 174 65q99 0 151 -49t52 -129q0 -83 -65 -148t-174 -65l-2 -2q-98 0 -150 49q-50 47 -50 129z" />
<glyph unicode="&#x2da;" horiz-adv-x="578" d="M23 1072q0 98 74 170q71 70 209 70l4 -2q117 0 183 -56t66 -163q0 -109 -70 -170q-72 -63 -204 -63q-126 0 -195 58q-67 57 -67 156zM238 1077q0 -65 61 -65q23 0 43 20q18 18 18 52l-2 -3q0 64 -57 64q-25 0 -43 -18q-20 -20 -20 -50z" />
<glyph unicode="&#x2db;" horiz-adv-x="514" d="M20 -258q0 178 227 314l156 -43q-27 -21 -48 -61q-22 -42 -22 -76q0 -66 67 -66q35 0 66 11q32 -49 32 -97v4q0 -84 -66 -131q-69 -49 -190 -49q-104 0 -163 54t-59 140z" />
<glyph unicode="&#x2dc;" horiz-adv-x="815" d="M18 1052q0 160 188 168q53 0 167 -14t143 -14q94 0 124 75q72 -8 111 -50q40 -43 43 -110v-3q0 -84 -56 -127t-150 -43q-46 0 -144 14t-139 14q-100 0 -135 -68q-66 7 -109 50t-43 108z" />
<glyph unicode="&#x2dd;" horiz-adv-x="949" d="M20 1018q0 32 25 63l260 320q136 -20 181 -134q34 -104 -33 -158l-295 -231q-138 45 -138 140zM450 1020q0 33 23 62l260 321q136 -20 181 -134q34 -105 -32 -158l-296 -231q-55 20 -95 54q-41 35 -41 86z" />
<glyph unicode="&#x401;" horiz-adv-x="1145" d="M4 1059q0 -84 57 -168q81 9 136 9v-708q0 -115 52 -153q50 -37 149 -37h485q52 0 85 3q30 3 73 17q40 13 61 48q22 36 22 88q0 108 -56 182q-85 -23 -188 -23l-228 4q-16 0 -21 5q-6 6 -6 25v117h137q224 0 224 168q0 62 -24 120h-310q-15 0 -21 6t-6 25v113h244 q50 0 83 3q34 3 73 16t61 49q21 34 21 87q0 106 -55 178q-65 -18 -188 -18h-672q-93 0 -140 -43q-48 -44 -48 -113zM152 1432q0 68 63 123q61 54 167 54q99 0 145 -39q48 -40 48 -108q0 -71 -61 -125q-62 -54 -166 -54h-2q-96 0 -145 41t-49 108zM640 1432q0 69 62 123 t167 54q99 0 145 -39q49 -41 49 -108q0 -71 -61 -125q-62 -54 -167 -54h-2q-96 0 -145 41q-48 40 -48 108z" />
<glyph unicode="&#x402;" horiz-adv-x="1442" d="M-27 1018q0 108 59 156q58 48 214 48q61 0 270 -11q190 -10 269 -10q139 0 253 43q78 -135 78 -228q0 -100 -61 -145t-231 -45h-39q-20 -3 -20 -27v-222q56 96 154 147q96 50 205 50q177 0 279 -109t102 -296q0 -175 -105 -285q-105 -109 -305 -109q-124 0 -192 54 t-68 143q0 63 36 133q60 -16 109 -16q126 0 126 105q0 113 -140 113q-68 0 -129 -36q-60 -35 -70 -102v-61q7 -152 41 -251l-93 -23q-91 -23 -99 -25q-66 -14 -75 -16q-38 -7 -63 -7q-45 0 -75 21q-29 20 -43 65q-11 34 -18 84q-3 20 -7 102v591q-13 2 -54 2 q-121 0 -231 -59q-77 135 -77 226z" />
<glyph unicode="&#x403;" horiz-adv-x="1116" d="M14 1122q0 37 9 95h746q145 0 258 45q79 -141 79 -239q0 -102 -63 -157q-62 -54 -235 -54l-174 2q-19 -3 -19 -27v-475q8 -138 48 -253q-297 -73 -337 -73q-45 0 -75 21q-29 20 -43 65q-11 34 -18 84q-3 20 -7 102v651q-169 30 -169 213zM269 1414q0 32 23 61l260 322 q63 -11 118 -50q59 -42 79 -97q17 -38 11 -82q-6 -45 -40 -72l-294 -236q-59 20 -107 61q-50 43 -50 93z" />
<glyph unicode="&#x404;" horiz-adv-x="1139" d="M72 573q0 107 16 190q17 90 59 172q46 90 113 146q71 59 188 96q120 38 278 38q116 -3 197 -23q84 -21 150 -76q65 -54 65 -136q0 -122 -136 -165q-111 73 -269 76q-196 0 -226 -131l328 -2q75 0 75 -111v-66q0 -111 -75 -111h-337q7 -83 59 -113q53 -31 162 -31 q255 0 358 86q65 -57 65 -158q0 -90 -40 -148q-41 -59 -113 -86q-70 -26 -140 -34q-81 -9 -155 -9q-339 0 -481 139q-141 138 -141 457z" />
<glyph unicode="&#x405;" horiz-adv-x="1055" d="M22 235q0 129 100 191q59 -47 154 -82q86 -32 176 -32q35 0 48 2q36 6 41 7q23 7 32 18q11 14 11 36q0 28 -39 44q-43 18 -101 25q-44 6 -129 31q-61 18 -130 57q-63 35 -103 110q-40 74 -43 181q0 184 144 293q143 108 412 108q211 0 321 -65q111 -65 111 -182 q0 -59 -34 -106q-36 -51 -102 -74q-147 103 -350 103q-118 0 -118 -49q0 -28 63 -50q62 -21 150 -45q95 -26 178 -61q90 -38 150 -114q63 -80 63 -190l-2 -4q-7 -203 -140 -308q-131 -104 -412 -104q-451 0 -451 260z" />
<glyph unicode="&#x406;" horiz-adv-x="863" d="M52 1061q0 69 48 113q47 43 140 43h353q123 0 188 18q56 -74 56 -178q0 -131 -140 -139q-20 -3 -20 -24v-595q54 0 135 9q57 -84 57 -161q0 -67 -48 -108q-46 -39 -142 -39h-541q-56 74 -56 159q0 132 140 140q20 3 20 24l4 596q-56 0 -137 -9q-57 84 -57 151z" />
<glyph unicode="&#x407;" horiz-adv-x="863" d="M52 1061q0 69 48 113q47 43 140 43h353q123 0 188 18q56 -74 56 -178q0 -131 -140 -139q-20 -3 -20 -24v-595q54 0 135 9q57 -84 57 -161q0 -67 -48 -108q-46 -39 -142 -39h-541q-56 74 -56 159q0 132 140 140q20 3 20 24l4 596q-56 0 -137 -9q-57 84 -57 151z" />
<glyph unicode="&#x408;" horiz-adv-x="709" d="M20 -54q0 48 12 81q40 -4 43 -4q96 0 133 61t43 169v613q-84 14 -124 80q-39 65 -39 156q0 38 5 63q70 5 161 14q22 2 48.5 5.5t60 8t53.5 6.5q54 7 143 16q36 0 59 -16q28 -19 36 -34q14 -26 20 -54q9 -41 9 -59v-65l-4 -750q0 -109 -21 -201q-20 -87 -68 -167 q-44 -73 -124 -118q-77 -43 -183 -43q-115 0 -188 66q-75 68 -75 172z" />
<glyph unicode="&#x409;" horiz-adv-x="1845" d="M20 228q0 40 3 59h13q191 0 236 471q0 1 11 136q-168 30 -168 226q0 37 9 95h998q44 0 75 -22q30 -21 43 -64q15 -48 20 -82q3 -20 7 -103l-4 -206q52 76 138 117q87 41 178 41q156 0 242 -108q86 -109 86 -274q0 -145 -50 -251t-138 -166q-83 -57 -189 -88 q-99 -29 -216 -29q-61 0 -129 9q-49 6 -126 36q-70 27 -115 75q-44 47 -78 138q-33 88 -33 210v419q-3 25 -27 25h-102q-14 -360 -64 -557t-140 -276q-87 -77 -237 -77q-120 0 -182 68q-61 67 -61 178zM1254 604l2 -97q0 -174 111 -174q52 0 85 33q32 32 32 84q0 44 -22 79 q-19 31 -59 48q-35 15 -73 22q-29 5 -76 5z" />
<glyph unicode="&#x40a;" horiz-adv-x="1876" d="M13 1097q0 37 5 62q37 3 161 15q34 3 161 19q105 13 144 17q34 0 59 -17q28 -19 36 -34q14 -26 20 -53q8 -37 8 -59v-65v-195q0 -19 6 -25t21 -6h230v133q-7 134 -49 253q297 73 337 73q45 0 76 -22q30 -21 43 -64q13 -42 19 -82q3 -20 7 -103l-3 -209q51 75 138 116 t177 41q157 0 242 -107q86 -109 86 -274q0 -145 -50 -251q-51 -107 -138 -167q-84 -57 -188 -88q-95 -28 -217 -28q-61 0 -129 9q-47 6 -125 36q-70 27 -115 75q-44 47 -77 136q-31 83 -34 206h-257v-136q7 -134 49 -253q-297 -73 -337 -73q-45 0 -75 21q-29 20 -43 65 q-11 34 -18 84q-3 20 -7 102v611q-83 13 -124 81q-39 65 -39 156zM1285 600l2 -96q0 -174 111 -174q52 0 84 32t32 84q0 46 -21 79q-19 31 -59 48q-34 15 -74 22q-29 5 -75 5z" />
<glyph unicode="&#x40b;" horiz-adv-x="1476" d="M-25 1020q0 108 59 156q58 48 213 48q62 0 271 -11t269 -11q138 0 252 43q79 -137 79 -227q0 -100 -61 -145t-231 -45h-39q-20 -3 -20 -27l4 -242q50 89 129 147q92 66 225 66q129 0 203 -87q75 -89 75 -269v-106q3 -66 27 -93q23 -26 90 -34q-45 -196 -275 -196 q-284 0 -284 267v126q0 75 -51 75q-35 0 -48 -7q-77 -34 -90 -151q7 -166 36 -243q-264 -67 -328 -67q-44 0 -75 22q-30 21 -43 64q-10 33 -18 85q-3 20 -7 102v591q-13 2 -54 2q-121 0 -231 -59q-77 135 -77 226z" />
<glyph unicode="&#x40c;" horiz-adv-x="1299" d="M9 1100q0 38 5 63q74 5 162 14q22 2 48.5 5.5t59.5 8t53 6.5q54 7 143 16q36 0 59 -16q28 -19 36 -34q14 -26 20 -54q9 -41 9 -59v-64v-275h52q89 0 124 65t35 149q0 89 -48 184q100 106 247 106q123 0 181 -77q59 -79 59 -183q0 -211 -193 -340q48 -130 138 -230 q88 -98 175 -118q-6 -145 -87 -210q-82 -66 -199 -66q-80 0 -140 22q-56 21 -108 80q-48 55 -87 169q-37 108 -67 281h-77l-5 -237q8 -136 48 -252q-301 -74 -337 -74q-44 0 -75 22q-30 21 -43 64q-10 33 -18 85q-3 20 -7 102v611q-84 14 -124 80q-39 65 -39 156zM539 1333 q0 31 24 61l260 323q63 -11 118 -50q59 -42 79 -97q16 -37 10 -83q-6 -45 -39 -71l-294 -237q-59 20 -107 61q-51 44 -51 93z" />
<glyph unicode="&#x40e;" horiz-adv-x="1292" d="M7 1106q0 -88 41 -156t124 -81l-9 -201q0 -189 90 -274q86 -82 224 -82q223 0 349 231v-52q0 -148 -77 -215q-76 -66 -188 -66q-161 0 -229 59q-69 -63 -69 -154q0 -104 101 -162q96 -55 290 -55q597 0 597 613v435q-4 82 -7 102q-8 52 -18 85q-13 43 -43 64 q-31 22 -76 22q-17 0 -60 -8q-16 -3 -76 -16q-20 -4 -97 -25q-40 -11 -94 -23q40 -115 48 -253v-131q-67 -118 -151 -118q-82 0 -82 102v242v65q0 27 -7 59q-8 35 -18 54q-8 15 -36 34q-23 16 -59 16q-82 -9 -142 -16q-10 -1 -71 -9t-90 -11q-57 -6 -159 -13q-6 -30 -6 -62z M342 1468q0 58 38 102q37 42 116 50q86 -108 198 -108q110 0 198 108q81 -8 117 -50q38 -44 38 -101q0 -95 -99 -163q-98 -67 -254 -70l1 -1q-156 3 -254 70q-99 67 -99 163z" />
<glyph unicode="&#x40f;" horiz-adv-x="1356" d="M14 1095q0 33 6 63q70 5 161 14q22 2 48.5 5.5t59.5 8t53 6.5q48 6 144 16q36 0 59 -16q28 -19 36 -34q12 -23 19 -54q9 -41 9 -59v-65v-640q0 -19 6 -25q5 -5 21 -5h230v577q-7 134 -49 253q297 73 342 73q46 0 76 -21q29 -20 43 -65q13 -42 19 -82q5 -30 8 -102v-753 q0 -114 -51 -152q-52 -38 -147 -38h-161q-21 0 -28 -23l-56 -212q-24 -91 -81 -91h-84q-57 0 -81 91l-59 235l-182 -11q-95 0 -147 38q-51 38 -51 154v677q-82 13 -123 81q-40 67 -40 156z" />
<glyph unicode="&#x410;" horiz-adv-x="1200" d="M48 122q3 44 25 98l228 543q40 90 75 142l-1 -5q-83 -3 -131 -9q-45 94 -45 168q0 152 249 152h323q93 0 143 -37q51 -37 84 -133l265 -797q32 -105 76 -196q-202 -66 -301 -66q-62 0 -104 36q-39 33 -70 124l-24 71h-392l-82 -215h-198q-63 0 -93 38t-27 86zM557 507 q-7 -30 22 -30h172l-92 294z" />
<glyph unicode="&#x411;" horiz-adv-x="1168" d="M13 1050q0 70 48 113q47 43 140 43h700q124 0 189 18q55 -72 55 -195q0 -53 -21 -88q-22 -36 -61 -49t-72 -16t-82 -3h-276v-133q94 29 204 29q195 0 290 -102q95 -103 95 -260q0 -69 -16 -124q-17 -57 -43 -97t-72 -73q-42 -31 -86 -52q-33 -16 -104 -34 q-61 -16 -107 -22q-8 -1 -115 -10q-72 -6 -107 -6h-102q-41 0 -85 4q-30 3 -70 14q-37 11 -59 32q-22 23 -36 60q-14 39 -14 91v701q-55 0 -136 -9q-57 84 -57 168zM634 272q24 -3 27 -3q75 0 115 37q39 36 39 92q0 132 -132 140h-49v-266z" />
<glyph unicode="&#x412;" horiz-adv-x="1216" d="M11 1054q0 52 21 86q21 35 61 48q42 14 79 20q31 5 90 5h421q512 0 512 -315q0 -80 -37 -144q-36 -62 -110 -96q105 -24 160 -97q54 -72 54 -170q0 -78 -31 -145q-29 -63 -75 -104q-43 -39 -118 -70q-59 -25 -135 -45q-56 -15 -150 -23q-106 -9 -144 -9h-132l-2 -6 q-67 0 -108 6q-46 7 -82 23q-42 19 -61 59q-20 42 -20 108v709q-55 0 -136 -9q-57 84 -57 169zM633 276q32 -4 59 -4q154 0 154 113q0 102 -133 102h-80v-211zM633 695h61q130 0 130 111q0 94 -120 94h-71v-205z" />
<glyph unicode="&#x413;" horiz-adv-x="1116" d="M14 1122q0 37 9 95h746q145 0 258 45q79 -141 79 -239q0 -102 -63 -157q-62 -54 -235 -54l-174 2q-19 -3 -19 -27v-475q8 -138 48 -253q-297 -73 -337 -73q-45 0 -75 21q-29 20 -43 65q-11 34 -18 84q-3 20 -7 102v651q-169 30 -169 213z" />
<glyph unicode="&#x414;" horiz-adv-x="1372" d="M36 -50v201q0 150 115 150h19q79 82 124 251q46 172 59 355q-168 30 -168 213q0 37 9 95h944q44 0 75 -22q30 -21 43 -64q15 -48 20 -82q3 -20 7 -103v-643h18q115 0 115 -150l-4 -196q0 -102 27 -177q-193 -50 -238 -50q-82 0 -115 59q-32 57 -32 161v50h-640 q-20 0 -20 -28v-17q0 -98 27 -173q-197 -51 -238 -51q-81 0 -115 60q-32 57 -32 161zM541 297h280q13 0 19 8q6 7 6 27v573h-127q-19 0 -22 -22q-30 -454 -156 -586z" />
<glyph unicode="&#x415;" horiz-adv-x="1145" d="M13 1055q0 69 48 113q47 43 140 43h672q123 0 188 18q55 -72 55 -177q0 -54 -21 -88q-21 -35 -61 -48q-39 -13 -72 -16q-44 -4 -82 -4h-244v-113q0 -19 6 -25q5 -5 21 -5h310q23 -56 23 -120q0 -169 -224 -169h-136v-116q0 -19 6 -25t21 -6l219 -5q103 0 188 23 q55 -72 55 -183q0 -52 -21 -87q-22 -36 -61 -49t-72 -16q-44 -4 -82 -4h-486q-95 0 -147 38q-50 37 -50 154v708q-55 0 -136 -9q-57 84 -57 168z" />
<glyph unicode="&#x416;" horiz-adv-x="1800" d="M43 966q11 119 86 181q77 63 163 63q157 0 256 -126q101 -129 162 -403h12v206q-8 138 -48 253q295 73 335 73q42 0 72 -21q29 -20 43 -65q13 -42 19 -82q3 -20 7 -102v-237q69 32 104 106q34 71 34 161q0 69 -30 154q90 90 253 90q117 0 182 -72q65 -73 65 -168 q0 -105 -59 -194q-58 -87 -161 -145q39 -131 132 -265q91 -131 199 -188q-38 -99 -118 -153q-81 -54 -170 -54q-166 0 -253 117q-85 114 -169 462h-12v-247q7 -131 45 -253q-289 -73 -335 -73q-42 0 -72 21q-29 20 -43 65q-11 34 -18 84q-3 20 -7 102v276q-76 -35 -113 -120 q-38 -87 -38 -184l7 -6q0 -91 27 -166q-95 -95 -258 -95q-116 0 -184 78q-67 77 -67 181q0 115 68 221q66 103 183 168q-41 121 -131 237q-90 117 -168 120z" />
<glyph unicode="&#x417;" horiz-adv-x="1085" d="M23 272q0 131 77 189q59 -39 172 -70q106 -29 212 -29q132 0 132 81q0 70 -109 70l-100 -2q-95 0 -95 96v43q0 97 95 97h98q86 0 86 61q0 63 -109 63q-144 0 -312 -74q-111 46 -111 171q0 121 118 182q121 63 339 63q531 0 531 -313q0 -95 -51 -167q-51 -73 -157 -102 q133 -20 197 -97t64 -188q0 -100 -45 -172q-44 -70 -127 -115q-75 -40 -183 -61q-105 -20 -225 -20q-85 0 -178 15q-83 13 -157 46q-75 33 -119 92q-43 58 -43 141z" />
<glyph unicode="&#x418;" horiz-adv-x="1395" d="M13 1102q0 38 5 63q67 5 159 14q29 3 88.5 11t69.5 9q59 7 143 16q37 0 60 -16q27 -18 35 -34q14 -26 20 -54q9 -41 9 -59v-65v-464l303 627q261 63 294 63q45 0 75 -21q29 -20 43 -65q15 -48 20 -82q3 -20 7 -102v-635q8 -136 48 -252q-301 -74 -333 -74q-44 0 -75 22 q-30 21 -43 64q-11 34 -18 84q-3 20 -7 102v389l-300 -596q-5 -1 -16 -4t-35 -9.5t-45 -11.5q-108 -28 -126 -31q-54 -9 -75 -9q-44 0 -75 22q-30 21 -43 64q-11 34 -18 84q-3 20 -7 102v612q-84 14 -124 80q-39 65 -39 156z" />
<glyph unicode="&#x419;" horiz-adv-x="1395" d="M7 1104q0 33 6 63q67 5 159 14q29 3 88.5 11t69.5 9q59 7 143 16q36 0 59 -16q28 -19 36 -34q14 -26 20 -54q9 -41 9 -59v-65v-464l303 627q261 63 293 63q45 0 76 -22q30 -21 43 -64q13 -42 19 -82q4 -30 8 -103v-634q8 -138 48 -253q-297 -73 -333 -73q-46 0 -76 21 q-29 20 -43 65q-9 28 -17 84q-5 30 -8 102v389l-299 -597q-2 0 -97 -25q-99 -26 -125 -30q-54 -9 -75 -9q-46 0 -76 21q-29 20 -43 65q-11 34 -18 84q-3 20 -7 102v611q-82 13 -123 81q-40 67 -40 156zM597 1328q0 68 37 111t94 64q12 4 51 19.5t61 22.5q60 21 106 52 q50 35 63 80q82 -7 145 -70t63 -136q0 -67 -38 -113q-40 -48 -93 -70t-115 -43q-67 -22 -107 -50q-50 -35 -63 -77l-5 2q-81 7 -140 70q-59 62 -59 138z" />
<glyph unicode="&#x41a;" horiz-adv-x="1299" d="M9 1100q0 38 5 63q74 5 162 14q22 2 48.5 5.5t59.5 8t53 6.5q54 7 143 16q36 0 59 -16q28 -19 36 -34q14 -26 20 -54q9 -41 9 -59v-64v-275h52q89 0 124 65t35 149q0 89 -48 184q100 106 247 106q123 0 181 -77q59 -79 59 -183q0 -211 -193 -340q48 -130 138 -230 q88 -98 175 -118q-6 -145 -87 -210q-82 -66 -199 -66q-80 0 -140 22q-56 21 -108 80q-48 55 -87 169q-37 108 -67 281h-77l-5 -237q8 -136 48 -252q-301 -74 -337 -74q-44 0 -75 22q-30 21 -43 64q-10 33 -18 85q-3 20 -7 102v611q-84 14 -124 80q-39 65 -39 156z" />
<glyph unicode="&#x41b;" horiz-adv-x="1326" d="M23 229q0 34 4 60h12q192 0 237 471q0 1 11 136q-169 30 -169 226q0 37 9 95l1004 -4q45 0 75 -21q29 -20 43 -65q15 -48 20 -82q3 -20 7 -102v-635q8 -136 48 -252q-301 -74 -342 -74q-44 0 -75 22q-30 21 -43 64q-11 34 -18 84q-3 20 -7 102v606q0 20 -6 27t-19 7h-106 q-13 -355 -65 -557q-51 -198 -139 -276q-87 -77 -237 -77q-121 0 -183 68q-61 67 -61 177z" />
<glyph unicode="&#x41c;" horiz-adv-x="1598" d="M36 1100q0 40 5 65q79 6 248 27t256 21q75 0 118 -37q42 -36 72 -121l138 -399l120 399q34 97 86 130q53 34 143 26l136 -19q103 -14 133 -54t36 -160l32 -661q7 -160 47 -260l-95 -23l-101 -25q-56 -13 -75 -16q-41 -7 -64 -7q-42 0 -72 21q-29 20 -43 65q-11 36 -18 86 q-5 36 -5 100l10 441l-91 -251q-23 -59 -54 -93q-29 -32 -80 -32h-94q-46 0 -75 32t-59 93l-117 251l17 -387q7 -163 46 -260l-93 -23q-91 -23 -99 -25q-6 -1 -32.5 -7.5t-42.5 -9.5q-38 -7 -63 -7q-40 0 -71 22q-30 21 -43 64q-11 36 -18 86q-6 43 -6 101l26 614 q-83 13 -121 79q-37 64 -37 154z" />
<glyph unicode="&#x41d;" horiz-adv-x="1392" d="M14 1100q0 33 6 63q70 5 161 14q22 2 48.5 5.5t59.5 8t53 6.5q48 6 144 16q36 0 59 -16q28 -19 36 -34q12 -23 19 -54q9 -41 9 -59v-64v-196q0 -19 6 -25q5 -5 21 -5h269l-2 127q-8 138 -48 253q297 73 342 73t75 -21q29 -20 43 -65q15 -48 20 -82q3 -20 7 -102v-635 q7 -133 49 -252q-301 -74 -343 -74q-44 0 -75 22q-30 21 -43 64q-11 34 -18 84q-3 20 -7 102v155q0 20 -5 26q-6 8 -20 8h-271v-137q7 -133 49 -252q-301 -74 -337 -74q-44 0 -75 22t-44 64q-8 27 -17 85q-5 30 -8 102v611q-83 13 -123 80t-40 156z" />
<glyph unicode="&#x41e;" horiz-adv-x="1309" d="M79 566q0 139 37 253q38 116 113 208t199 143q125 52 285 52q608 0 608 -582q0 -132 -36 -253q-34 -112 -108 -210q-71 -93 -193 -147q-119 -53 -280 -53l-3 3q-622 0 -622 586zM514 599q0 -237 185 -237q190 0 190 238q0 112 -49 178q-48 64 -134 64q-192 0 -192 -242 v-1z" />
<glyph unicode="&#x41f;" horiz-adv-x="1347" d="M13 1122q0 37 9 95l1130 2q45 0 76 -22q30 -21 43 -64q13 -41 19 -83q3 -20 7 -102v-634q7 -134 49 -253q-301 -74 -342 -74q-45 0 -76 22q-30 21 -43 64q-10 33 -18 85q-3 20 -7 102v606q0 20 -5 26q-6 8 -20 8h-222v-588q8 -138 48 -253q-297 -73 -337 -73 q-45 0 -75 21q-29 20 -43 65q-11 34 -18 84q-3 20 -7 102v638q-168 30 -168 226z" />
<glyph unicode="&#x420;" horiz-adv-x="1234" d="M9 1054q0 52 21 86q21 35 61 48q42 14 79 20q31 5 90 5h410q590 -8 590 -421q0 -196 -122 -312q-120 -114 -385 -114q-19 0 -63 3q-12 1 -24.5 2t-19 1.5t-8.5 0.5l-4 -67q7 -133 49 -252q-301 -74 -337 -74q-44 0 -75 22q-30 21 -43 64q-10 33 -18 85q-5 30 -8 102v641 q-55 0 -136 -9q-57 84 -57 169zM634 622q9 -2 51 -2q150 0 150 147q0 129 -134 129h-67v-274z" />
<glyph unicode="&#x421;" horiz-adv-x="1152" d="M84 556q0 297 156 480t475 183q87 0 159 -13q78 -14 140 -43q64 -30 102 -84q38 -55 38 -127q0 -66 -38 -121q-37 -53 -104 -77q-162 90 -284 90q-212 0 -212 -244q0 -108 54 -166q54 -59 165 -59q155 0 319 100q53 -31 79 -83t26 -114q0 -82 -44 -142q-42 -58 -119 -93 q-66 -30 -150 -48q-80 -17 -158 -17l2 -7q-305 3 -455 156q-151 154 -151 429z" />
<glyph unicode="&#x422;" horiz-adv-x="1180" d="M16 1016q0 108 59 156q58 48 214 48q80 0 270 -10q209 -11 269 -11q140 0 254 43q79 -137 79 -228q0 -98 -63 -150q-60 -50 -231 -50h-39q-20 -3 -20 -27l2 -479q8 -136 48 -252q-301 -74 -337 -74q-44 0 -75 22q-30 21 -43 64q-11 34 -18 84q-3 20 -7 102v577 q-13 2 -54 2q-121 0 -231 -59q-77 135 -77 242z" />
<glyph unicode="&#x423;" horiz-adv-x="1292" d="M2 1095q0 38 5 63q70 5 160 14q29 3 90 11t71 9q54 7 143 16q36 0 59 -16q28 -19 36 -34q14 -26 20 -54q9 -41 9 -59v-65v-242q0 -102 82 -102q84 0 151 118v131q-8 138 -48 253q5 1 94 25q77 21 97 25q60 13 76 16q49 9 62 9q46 0 76 -21q29 -20 43 -65q13 -42 19 -82 q3 -20 7 -102v-436q0 -613 -596 -613q-190 0 -291 58q-98 56 -98 161q0 92 68 154q68 -59 229 -59q112 0 188 66q77 67 77 215v52q-126 -231 -349 -231q-134 0 -222 84t-88 274l-7 190q-83 13 -124 81q-39 65 -39 156z" />
<glyph unicode="&#x424;" horiz-adv-x="1594" d="M63 688q0 218 120 351q121 135 367 135h83v32q-10 109 -38 167q281 59 317 59q71 0 102 -58q30 -57 36 -161v-46q42 7 102 7v2q238 -3 353 -115q117 -114 117 -314q0 -218 -120 -351q-121 -134 -368 -134h-82q10 -112 41 -212q-244 -63 -322 -63q-42 0 -70 22 q-29 23 -42 64q-8 27 -17 85q-4 30 -8 100v9q-42 -7 -102 -7q-238 3 -353 115q-116 113 -116 313zM434 719q0 -72 34 -112q35 -41 102 -41q45 0 66 6v306h-55q-67 0 -108 -38q-39 -36 -39 -120v-1zM1050 557h59q67 0 108 38q39 36 39 122q0 71 -34 111q-35 41 -102 41 q-42 0 -70 -7v-305z" />
<glyph unicode="&#x425;" horiz-adv-x="1189" d="M39 183q0 109 77 202l230 258l-34 54q-69 107 -133 170q-60 58 -125 74v-6q6 144 75 207q70 64 174 64q110 0 184 -70q83 -78 203 -281q131 185 134 342q55 13 128 13q100 0 161 -54q63 -55 63 -167q0 -103 -78 -197l-209 -256q73 -127 143 -178q69 -50 194 -50 q3 -20 3 -57q0 -123 -64 -197q-65 -76 -187 -76q-118 0 -209 70q-93 72 -178 210l-46 72q-94 -121 -129 -194q-36 -75 -43 -150q-70 -16 -115 -16q-99 0 -159 52t-60 161z" />
<glyph unicode="&#x426;" horiz-adv-x="1412" d="M9 1091q0 38 5 63q74 5 162 14q22 2 48.5 5.5t59.5 8t53 6.5q54 7 143 16q36 0 59 -16q28 -19 36 -34q14 -26 20 -54q9 -41 9 -59v-64v-637q0 -20 5 -25t22 -5h229v573q-8 138 -48 253q301 74 342 74q44 0 75 -22q30 -21 43 -64q15 -47 20 -83q3 -20 7 -102v-737 q0 -18 18 -21q226 -40 226 -287q0 -168 -83 -252q-84 -86 -227 -86q-43 0 -124 14t-113 14q-59 0 -93 -25q-32 -23 -32 -86q-112 0 -169 66q-59 68 -59 158q0 110 74 170t204 60q61 0 145 -18t142 -18q77 0 77 62q0 47 -59 47l-857 -14q-97 0 -147 37t-50 154v678 q-84 14 -124 80q-39 65 -39 156z" />
<glyph unicode="&#x427;" horiz-adv-x="1311" d="M-5 1102q0 38 5 63q70 5 161 14q22 2 48.5 5.5t60 8t53.5 6.5q54 7 143 16q36 0 59 -16q28 -19 36 -34q14 -26 20 -54q9 -41 9 -59v-65v-259q0 -86 89 -86t145 71l-1 174q-7 134 -49 253q297 73 342 73q46 0 76 -21q29 -20 43 -65q13 -42 19 -82q5 -30 8 -102v-635 q8 -136 48 -252q-301 -74 -342 -74q-45 0 -76 22q-30 21 -43 64q-11 34 -18 84q-3 20 -7 102v239q-116 -204 -349 -204q-136 0 -226 80q-91 81 -91 260v237q-84 14 -124 80q-39 65 -39 156z" />
<glyph unicode="&#x428;" horiz-adv-x="1768" d="M5 1093q0 33 6 63q113 8 258 27q118 16 183 21q36 0 59 -16q28 -19 36 -34q12 -23 19 -54q9 -41 9 -59v-64v-645q0 -20 6 -26q5 -5 21 -5h127v582q-8 138 -48 253q9 2 118 31q85 23 124 32q47 11 75 11q44 0 75 -22q30 -21 43 -64q15 -47 20 -83q3 -20 7 -102v-613 q3 -21 27 -21h127v582q-8 138 -48 253q10 2 118 30q100 26 126 32q47 11 75 11q45 0 75 -21q29 -20 43 -65q15 -48 20 -82q3 -20 7 -102v-753q0 -115 -50 -152q-52 -38 -147 -38l-1150 -13q-95 0 -147 38q-51 37 -51 154v678q-83 13 -123 80t-40 156z" />
<glyph unicode="&#x429;" horiz-adv-x="1842" d="M11 1091q0 38 5 63q112 8 258 27q118 16 183 21q36 0 59 -16q28 -19 36 -34q14 -26 20 -54q9 -41 9 -59v-64v-645q0 -20 5 -25q6 -6 21 -6h128v583q-7 133 -49 252q12 2 119 31q92 25 123 32q47 11 76 11q44 0 75 -22q30 -21 43 -64q15 -47 20 -83q3 -20 7 -102v-613 q3 -21 27 -21h127v582q-7 134 -49 253q14 3 119 30q22 6 65 17.5t60 15.5q43 10 75 10q46 0 76 -21q29 -20 43 -65q13 -42 19 -82q5 -30 8 -102v-731q0 -24 17 -27q244 -40 244 -287q0 -167 -89 -253t-248 -86q-39 0 -141 15q-95 14 -129 14q-138 0 -138 -113 q-120 0 -183 66q-65 68 -65 158q0 111 81 170q83 60 220 60q65 0 162 -18t159 -18q84 0 84 61q0 48 -62 48l-1260 -14q-97 0 -147 37t-50 154v678q-84 14 -124 80q-39 65 -39 156z" />
<glyph unicode="&#x42a;" horiz-adv-x="1299" d="M-4 1059q0 69 49 113q47 43 140 43h412q36 0 59 -16q28 -19 36 -34q12 -23 19 -54q9 -41 9 -59v-65v-240q52 76 138 117q87 41 178 41q156 0 242 -108q86 -109 86 -274q0 -145 -50 -251t-138 -166q-83 -57 -189 -88q-99 -29 -216 -29q-61 0 -129 9q-49 6 -126 36 q-70 27 -115 75q-44 47 -78 138q-33 89 -33 210v409q0 20 -5 26q-6 8 -20 8h-84q-53 0 -127 -9q-58 85 -58 168zM711 613l2 -97q0 -174 111 -174q52 0 85 33q32 32 32 84q0 44 -22 79q-19 31 -59 48q-31 14 -73 21q-35 6 -76 6z" />
<glyph unicode="&#x42b;" horiz-adv-x="1761" d="M7 1098q0 33 6 63q35 2 155 15q24 3 156 19q48 6 138 16q43 0 68 -18q28 -20 38 -59q10 -38 13 -70q3 -30 3 -80v-240q51 75 133 116t166 41q149 0 232 -107q84 -108 84 -274q0 -141 -49 -251q-48 -109 -132 -167q-83 -58 -181 -88q-91 -28 -208 -28q-56 0 -124 9 q-53 7 -120 35q-62 26 -109 76q-44 47 -75 138t-31 209l-3 409q-79 13 -120 81q-40 67 -40 155zM573 505q0 -173 106 -173q49 0 81 32t32 84q0 158 -219 158v-101zM1204 1136q301 74 334 74q44 0 75 -22q30 -21 43 -64q15 -47 20 -83q3 -20 7 -102v-634q8 -138 48 -253 q-301 -74 -333 -74q-45 0 -76 22q-29 20 -43 65q-9 28 -17 84q-5 30 -8 102l-1 632q-7 134 -49 253z" />
<glyph unicode="&#x42c;" horiz-adv-x="1173" d="M11 1090q0 27 7 69q38 3 156 15q38 4 154 19l142 18q36 0 59 -16q27 -18 35 -34q14 -26 20 -54q9 -41 9 -59v-64v-240q51 75 138 116t178 41q156 0 241 -107q86 -109 86 -274q0 -145 -50 -251q-51 -107 -138 -167q-84 -57 -188 -88q-95 -28 -217 -28q-61 0 -129 9 q-51 7 -125 35q-68 26 -115 76q-46 49 -79 138q-32 86 -32 209v411q-78 20 -115 80q-37 61 -37 146zM586 607l2 -96q0 -174 111 -174q52 0 84 32t32 84q0 46 -21 79q-20 32 -59 49q-31 13 -74 21q-29 5 -75 5z" />
<glyph unicode="&#x42d;" horiz-adv-x="1093" d="M34 254q0 119 68 178l-2 7q155 -100 355 -100q240 0 247 141h-331q-75 0 -75 111v67q0 111 75 111h330q-3 65 -70 95q-68 30 -161 30q-92 0 -183 -23q-95 -24 -147 -56q-67 64 -67 163q0 246 441 246q180 0 303 -48t188 -140q65 -93 92 -196q27 -105 27 -241 q0 -308 -151 -465q-150 -156 -478 -156q-461 0 -461 276z" />
<glyph unicode="&#x42e;" horiz-adv-x="1792" d="M18 1104q0 38 5 63q69 5 156 14q28 3 86.5 10.5t73.5 9.5q66 8 141 16q25 0 50 -9q23 -8 36 -27q17 -24 22 -38q8 -22 11 -48q3 -30 3 -50v-56v-190q0 -20 5 -25t22 -5h65q45 208 186 333q141 124 369 124q283 0 418 -153q134 -152 134 -430q0 -288 -142 -475t-415 -190 l-8 4q-503 0 -560 468h-77v-136q8 -138 48 -253q-293 -74 -330 -74q-40 0 -71 22t-44 64q-8 27 -17 85q-5 30 -8 102v611q-83 13 -121 79q-38 65 -38 154zM1064 602q0 -236 165 -236q171 0 171 238q0 113 -43 177q-44 65 -119 65q-172 0 -172 -242z" />
<glyph unicode="&#x42f;" horiz-adv-x="1207" d="M16 281q129 31 226 190q-80 40 -124 119q-43 77 -43 172q0 123 49 216q48 92 138 144q89 51 193 75q109 25 228 25q205 0 340 -43q46 -14 72 -37q27 -24 41 -65q13 -38 16 -75q3 -32 6 -95l-6 -597q7 -134 49 -253q-277 -70 -335 -70q-45 0 -76 22q-30 21 -43 64 q-10 33 -18 85q-3 20 -7 102v115q-78 0 -97 3q-2 -11 -14 -54l-16 -55q-2 -6 -7 -24t-9 -30q-3 -10 -20 -54q-3 -8 -25 -48q-17 -31 -32 -43q-30 -24 -38 -32q-18 -17 -46 -29q-23 -10 -56 -16t-70 -6q-116 0 -193 70t-83 224zM496 771q0 -142 120 -142l104 2v279h-113 q-50 0 -80 -37q-31 -39 -31 -102z" />
<glyph unicode="&#x430;" d="M14 265q0 104 63 176q61 69 151 97q85 26 202 26q110 0 195 -28q-7 114 -166 114q-189 0 -282 -77q-93 53 -93 158q0 103 126 161q129 60 338 60q92 0 171 -11q71 -10 141 -38q68 -27 111 -70t70 -113q27 -71 27 -164l-4 -187q0 -75 60 -75q13 0 48 11q23 -59 23 -119 q0 -94 -66 -150q-69 -58 -177 -58q-100 0 -165 38q-66 39 -101 138q-95 -170 -328 -176q-150 0 -247 72t-97 215zM441 301q0 -38 21 -59q22 -22 58 -22q105 0 105 158l-1 45q-32 0 -77 -9q-37 -7 -72 -38q-34 -30 -34 -75z" />
<glyph unicode="&#x431;" horiz-adv-x="1154" d="M57 566q3 157 43 274q40 118 106 187q65 68 143 113q80 46 165 70q43 12 162 43q78 20 139 43q63 23 94 59l-9 -4q70 -23 114 -82q43 -58 43 -120q0 -79 -43 -126q-43 -48 -107 -64l-142 -36q-70 -18 -140 -41q-63 -20 -107 -86q-43 -64 -40 -163q41 103 135 161 q95 59 210 59q159 0 247 -91q89 -92 89 -275q0 -236 -150 -371q-149 -134 -421 -134q-531 0 -531 584zM491 448q0 -68 30 -113t95 -45q45 0 78 27q32 26 32 74q0 57 -50 86q-48 28 -119 28q-44 0 -66 -7v-50z" />
<glyph unicode="&#x432;" horiz-adv-x="1141" d="M-13 898q0 34 2 43h724q185 0 283 -68q97 -67 97 -178q0 -56 -32 -105q-34 -53 -86 -76l-4 -7q94 -19 138 -79q43 -58 43 -139q0 -316 -650 -316q-82 0 -122 5q-46 6 -100 20q-50 13 -81 41q-26 24 -48 74q-18 42 -18 113v473q-43 3 -77 20q-32 16 -45 48q-11 28 -18 61 q-6 30 -6 70zM554 538h62q90 0 90 80q0 77 -90 77h-62v-157zM557 229q19 -3 49 -3q111 0 111 86q0 77 -95 77h-65v-160z" />
<glyph unicode="&#x433;" horiz-adv-x="1080" d="M-11 943h798q101 3 188 37l2 -3q77 -135 77 -224q0 -149 -231 -156h-205q-13 0 -19 -6t-6 -19v-264q3 -66 27 -93q23 -26 90 -34q-43 -195 -276 -195q-285 0 -285 267v449q-54 3 -92 26q-34 21 -48 62q-13 38 -16 74q-4 44 -4 79z" />
<glyph unicode="&#x434;" horiz-adv-x="1297" d="M-7 -99v199q0 146 102 146h34q66 66 115 197q47 126 53 258q-175 6 -175 240h928q42 0 68 -16t40 -51q11 -27 18 -64q3 -16 7 -77v-487h25q104 0 104 -146l-2 -143q7 -98 43 -192q-35 -7 -93 -27q-42 -14 -110 -32q-45 -12 -98 -12q-40 0 -66 16q-27 17 -38 52 q-11 37 -14 64q-3 32 -6 77l-2 93h-526q-15 0 -20 -5t-5 -21v-15q7 -98 43 -192q-46 -10 -94 -26q-60 -20 -109 -33q-45 -12 -99 -12q-40 0 -66 16t-37 52q-13 42 -15 64q0 5 -5 77zM511 247h213q14 0 20 6q5 5 5 21l-4 421h-80q-13 0 -18 -5q-4 -4 -7 -23 q-45 -336 -129 -420z" />
<glyph unicode="&#x435;" horiz-adv-x="1148" d="M79 439q0 241 147 376q150 138 408 138q231 0 361 -80t130 -228q0 -73 -39 -125q-40 -54 -109 -83q-70 -30 -147 -43q-69 -12 -167 -12q-72 0 -150 14q24 -84 197 -84q177 0 294 77q38 -24 59 -72t21 -93q0 -124 -129 -185q-128 -61 -322 -61q-552 0 -552 461h-2z M525 520q110 3 165 32q57 30 57 75q0 65 -71 65t-108 -50q-38 -52 -41 -124z" />
<glyph unicode="&#x436;" horiz-adv-x="1718" d="M27 722q7 114 79 172t157 58q137 0 215 -92q79 -93 140 -301h27v131q-7 95 -43 193q312 72 346 72q38 0 59 -12q25 -14 38 -33q14 -20 21 -48q8 -34 11 -54q0 -3 5 -61v-183q60 16 94 69q32 49 32 112q0 62 -31 121q80 87 240 87q111 0 169 -61q59 -62 59 -145 q0 -160 -174 -265h-11q33 -96 106 -193q70 -93 154 -137q-17 -85 -86 -129q-72 -46 -157 -46q-148 0 -226 89q-78 88 -149 343h-27v-156q8 -100 45 -194q-42 -7 -124 -27q-81 -20 -138 -30q-60 -11 -82 -11q-44 0 -70 16q-25 15 -39 52q-10 26 -18 65q-3 15 -7 78v207 q-138 -24 -138 -223q0 -62 30 -127q-83 -93 -242 -93q-113 0 -172 68t-59 156q0 94 54 172t145 129q-42 89 -108 161q-61 67 -125 70z" />
<glyph unicode="&#x437;" horiz-adv-x="1042" d="M23 213q0 104 81 158q58 -35 156 -56q99 -21 188 -21q115 0 115 54q0 41 -92 41l-93 -4q-93 0 -93 86v34q0 86 93 86h88q64 0 64 36q0 38 -87 38q-137 0 -284 -61q-111 41 -111 145q0 201 430 201q491 0 491 -253q0 -63 -41 -118q-40 -54 -122 -84q99 -23 156 -85 q54 -58 54 -138q0 -102 -75 -173q-74 -70 -190 -97q-115 -27 -269 -27q-85 0 -167 11q-79 11 -145 37q-65 26 -107 76q-40 47 -40 114z" />
<glyph unicode="&#x438;" horiz-adv-x="1318" d="M-9 844v54q109 6 258 27q151 21 199 27q34 0 59 -11t38 -27t19 -43t6 -47v-50l-11 -331q31 59 86 177q23 50 53 112t31 65q48 94 144 115q112 25 224 38q57 0 86 -32q28 -31 34 -65q5 -28 5 -88v-519q6 -100 43 -196q-83 -17 -147 -32q-86 -21 -120 -27q-38 -7 -75 -7 q-73 0 -97 57t-27 156v310l-165 -362q-45 -91 -148 -118q-105 -29 -221 -43q-44 0 -70 16q-27 16 -37 48q-9 30 -13 58q-2 16 -2 64v486q-36 0 -64 11q-26 10 -43 32q-16 20 -27 41t-14 52q-4 44 -4 52z" />
<glyph unicode="&#x439;" horiz-adv-x="1318" d="M-14 846v54q121 7 258 26q151 21 199 27q36 0 59 -10t37 -27q14 -18 20 -43q5 -23 5 -47v-50l-10 -332q27 52 86 178q23 50 53 112t31 65q48 94 143 115q112 25 224 38q56 0 86 -33q28 -31 34 -64t6 -88v-520q6 -99 43 -195q-83 -17 -147 -32q-86 -21 -120 -27 q-38 -7 -75 -7q-73 0 -97 57t-27 156v310l-165 -362q-44 -90 -149 -118q-105 -29 -220 -43q-44 0 -70 16q-28 17 -38 48q-8 25 -12 58q-2 16 -2 64v486q-39 0 -65 10q-25 10 -43 33q-12 16 -26 41q-12 23 -15 52q-3 33 -3 52zM538 1084q0 68 37 111q39 45 93 65 q89 33 113 41q60 21 106 52q50 34 63 81q82 -7 145 -70t63 -136q0 -67 -38 -113q-40 -48 -93 -70t-115 -43q-67 -22 -107 -50q-50 -34 -63 -78l-5 2q-81 7 -140 70q-59 62 -59 138z" />
<glyph unicode="&#x43a;" horiz-adv-x="1265" d="M-11 898q111 3 285 27q171 24 210 27q34 0 59 -11t38 -27t19 -43t6 -47v-50v-215q150 19 150 165q0 70 -32 140q88 88 226 88q100 0 166 -56q69 -58 69 -161q0 -153 -151 -253q77 -198 242 -228q0 -132 -81 -204q-82 -73 -181 -73q-139 0 -217 91t-145 341h-46l-4 -162 q7 -101 43 -193l-122 -27q-109 -25 -147 -32q-60 -11 -86 -11q-44 0 -70 16q-25 15 -39 52q-11 27 -18 64q-3 15 -7 79v457q-43 3 -77 20q-32 16 -49 41q-14 21 -26 59q-9 31 -13 63q-2 18 -2 63z" />
<glyph unicode="&#x43b;" horiz-adv-x="1281" d="M16 211q0 33 11 86q23 -5 41 -5q61 0 102 41t58 117q13 59 21 127q3 24 7 124q-101 6 -145 79t-41 161h991q44 0 70 -16q25 -15 39 -49q11 -27 18 -62q3 -15 7 -76v-500q6 -106 43 -193q-296 -58 -356 -58q-42 0 -70 17q-26 16 -40 52q-11 27 -18 64q-3 15 -7 79v496 l-57 6q-14 0 -20 -7q-5 -6 -5 -33q-7 -371 -108 -523q-100 -151 -306 -151q-109 0 -172 60t-63 164z" />
<glyph unicode="&#x43c;" horiz-adv-x="1532" d="M-9 901q181 14 299 27q108 12 156 20q31 5 45 5q64 0 97 -23q35 -25 62 -81l146 -277l154 297q25 45 55 63q34 20 93 20l162 -11q93 -6 127 -43q35 -38 41 -129l18 -516q6 -107 41 -192q-299 -75 -338 -75q-142 0 -142 206l5 297l-91 -157q-20 -36 -43 -51 q-19 -12 -61 -12h-43q-40 0 -59 12q-21 13 -45 51l-107 157l10 -238q6 -104 42 -192q-299 -75 -339 -75q-142 0 -142 206l22 464q-47 3 -74 18q-29 16 -46 36q-16 20 -27 57q-10 34 -13 65q-1 6 -5 71z" />
<glyph unicode="&#x43d;" horiz-adv-x="1336" d="M-9 898q91 3 263 25q161 21 230 27q34 0 59 -11t38 -27t19 -43t6 -46v-51v-138q0 -14 5 -19q6 -6 20 -6h172v77q-7 96 -43 194q312 72 356 72q37 0 60 -13q24 -14 37 -32q15 -22 22 -49t10 -53q3 -25 6 -61v-493q8 -100 45 -194l-128 -28q-102 -23 -145 -31 q-61 -11 -86 -11q-42 0 -70 17q-25 15 -39 52q-11 27 -18 64q-3 15 -7 79v131q0 15 -6 21t-19 6h-172v-110q8 -101 44 -193l-127 -29q-82 -19 -145 -30q-61 -11 -86 -11q-44 0 -70 16q-25 15 -39 52q-11 27 -18 64q-3 15 -7 79v457q-43 3 -77 20q-32 16 -49 41 q-16 24 -27 59q-8 26 -12 63q-2 18 -2 63z" />
<glyph unicode="&#x43e;" d="M61 437q0 223 145 368t416 145q278 0 414 -124q134 -122 134 -340q0 -222 -141 -366t-409 -147l2 4q-288 0 -425 122q-136 121 -136 338zM486 461q0 -59 32 -101q33 -43 95 -43q54 0 91 40q38 41 38 107q0 69 -34 109t-88 40q-56 0 -93 -40q-38 -41 -38 -107z" />
<glyph unicode="&#x43f;" horiz-adv-x="1297" d="M-13 939h1086q44 0 70 -16q27 -16 40 -49q11 -27 18 -62q3 -15 7 -75v-484q7 -93 43 -196q-54 -11 -124 -28q-105 -26 -145 -33q-56 -10 -88 -10q-78 0 -102 57t-27 156v495l-134 -6q-15 0 -20 -5t-5 -22v-414q8 -101 44 -193q-33 -6 -123 -27q-31 -7 -79 -17.5 t-65 -14.5q-56 -13 -87 -13q-44 0 -70 16t-40 52q-10 26 -18 65q-3 15 -7 79v494q-55 3 -93 27t-54 66q-14 37 -21 77q-6 34 -6 81z" />
<glyph unicode="&#x440;" horiz-adv-x="1270" d="M-11 903q85 3 244 25q147 21 213 27q38 0 63 -14t32 -45q9 -39 11 -56q4 -32 4 -64v-56q52 119 145 176q95 59 208 59q161 0 252 -115q92 -116 92 -319q0 -249 -111 -396q-109 -145 -280 -145q-157 0 -263 111v-276q3 -71 26 -104q25 -36 86 -43q-45 -193 -258 -193 q-135 0 -216 97q-81 98 -81 297l-2 792q-165 3 -165 242zM593 504q0 -77 32 -126q32 -50 99 -50q51 0 79 36q27 34 27 84q0 74 -49 118q-47 43 -118 43q-41 0 -70 -12v-93z" />
<glyph unicode="&#x441;" horiz-adv-x="1078" d="M41 441q0 233 144 374q143 140 417 140q179 0 312 -89t133 -216q0 -72 -49 -121t-140 -49q-43 0 -82 13q-3 67 -48 100q-44 32 -108 32q-79 0 -113 -43q-36 -45 -36 -107q0 -152 192 -152q167 0 256 89q47 -31 70 -80q25 -53 25 -104q0 -116 -107 -183t-312 -67h-4 q-269 0 -410 124q-140 123 -140 339z" />
<glyph unicode="&#x442;" horiz-adv-x="1057" d="M-61 797q0 165 246 165q76 0 263 -10q206 -11 263 -11q141 0 242 39l-1 2q77 -135 77 -224q0 -158 -266 -158h-28q-18 -3 -18 -27v-263q3 -66 27 -93q23 -26 89 -34q-45 -196 -276 -196q-285 0 -285 267v364h-44q-120 0 -215 -57q-74 146 -74 236z" />
<glyph unicode="&#x443;" horiz-adv-x="1250" d="M-16 892q81 2 263 26q136 18 230 26q36 0 59 -10t37 -27q14 -18 20 -43q6 -27 6 -47v-50v-400q0 -75 62 -75q41 0 68 48t27 133v208q-7 101 -43 193q312 72 346 72q38 0 59 -12q25 -14 38 -33q14 -20 21 -48q9 -34 11 -54q0 -3 5 -61v-229q0 -133 -8 -256 q-7 -106 -33 -240q-25 -128 -66 -217q-43 -93 -108 -169t-163 -116t-225 -40q-146 0 -232 74q-82 70 -82 181q0 124 106 175q60 -52 147 -52q55 0 98 27q44 27 68 65q23 36 40 91q13 44 21 101q6 45 6 95l-9 -9q-65 -138 -142 -194q-75 -55 -188 -55q-272 0 -272 342v335 q-44 3 -78 20q-30 15 -48 41q-16 24 -27 59q-8 26 -12 63q-2 18 -2 62z" />
<glyph unicode="&#x444;" horiz-adv-x="1550" d="M52 437q0 239 142 368t381 129h36v46q-8 176 -61 264q38 9 122 35q21 6 67 21t67 21q55 16 81 16q120 0 120 -244v-170q54 9 113 9q222 0 332 -127q111 -128 111 -312q0 -239 -142 -368q-143 -129 -382 -129h-35v-184q3 -68 30 -102q28 -35 90 -43q-13 -97 -81 -145 q-69 -49 -161 -49q-137 0 -208 86q-70 85 -70 274l5 180q-63 -15 -129 -15q-213 0 -321 129q-107 128 -107 310zM425 470q0 -84 43 -137t122 -53h17v390q-89 0 -134 -57q-47 -60 -47 -143h-1zM1005 280h18q79 0 122 53t43 137h-2q0 85 -46 143q-45 57 -135 57v-390z" />
<glyph unicode="&#x445;" horiz-adv-x="1132" d="M20 161q0 87 66 163l183 181l-9 15q-72 98 -120 141q-44 40 -108 43q0 79 27 133q27 53 70 77q44 24 79 32q41 9 73 9q105 0 181 -50q79 -52 176 -199l36 52q46 69 46 143q0 20 -7 33q82 19 136 19q99 0 162 -46q62 -45 62 -145q0 -93 -66 -163l-165 -178q51 -74 95 -102 q42 -26 111 -29q32 0 54 7h-7q12 -36 12 -82q0 -106 -69 -172t-185 -66q-203 0 -355 222l-25 32l-50 -66q-62 -92 -65 -176q-76 -19 -116 -19q-98 0 -161 46q-61 45 -61 145z" />
<glyph unicode="&#x446;" horiz-adv-x="1379" d="M-18 892q110 3 287 27t204 27q34 0 59 -11q26 -11 38 -26q14 -18 20 -43q5 -22 5 -47v-50v-500q0 -17 5 -22t20 -5h172v441q-7 104 -45 193q315 72 360 72q43 0 69 -16q25 -15 39 -49q11 -27 18 -62q3 -14 7 -76v-587q0 -19 16 -22q139 -13 201 -89q61 -74 61 -189 q0 -165 -92 -243q-90 -77 -218 -77q-61 0 -178 25t-168 25q-137 0 -140 -124q-104 0 -165 70q-62 71 -62 163q0 99 73 172q72 72 203 72q82 0 197 -32q118 -33 161 -33q90 0 90 70q0 54 -54 54l-869 -7q-50 0 -79 16t-43 52q-11 27 -18 64q-3 15 -7 79v443q-43 3 -77 20 q-32 16 -49 41q-16 24 -27 59q-8 26 -12 63q-2 18 -2 62z" />
<glyph unicode="&#x447;" horiz-adv-x="1250" d="M-41 894q111 3 283 27t210 27q43 0 69 -16q28 -17 38 -45q11 -32 14 -54q4 -32 4 -64v-205q0 -73 52 -73q49 0 93 54v138q-7 104 -45 193q315 72 361 72q42 0 68 -16q25 -15 39 -49q11 -27 18 -62q3 -14 7 -76l-11 -446q3 -66 27 -93q23 -26 90 -34q-45 -195 -276 -195 q-285 0 -285 267v104q-106 -181 -315 -181q-117 0 -194 64q-78 64 -81 194v224q-45 3 -77 19q-29 15 -48 42q-16 24 -27 59q-8 26 -12 62q-2 18 -2 63z" />
<glyph unicode="&#x448;" horiz-adv-x="1698" d="M-18 883q104 6 256 27q147 20 205 27q34 0 59 -11q24 -11 37 -26q14 -18 20 -43q5 -22 5 -47v-50v-500q0 -16 6 -22q5 -5 20 -5h102v441q-7 104 -45 193q38 9 116 27l88 22q40 10 58 14q29 6 43 9q11 2 28 2q42 0 68 -16q27 -16 40 -49q11 -27 18 -62q3 -15 7 -76v-471 q0 -16 5 -21q6 -6 20 -6h102v439q-8 106 -45 194q17 4 36.5 8.5t43.5 10t37 8.5l88 21q48 12 57 14q29 7 43 9q11 2 29 2q42 0 68 -16t39 -48q11 -26 18 -63q3 -15 7 -75v-533q-4 -63 -7 -78q-8 -39 -18 -65q-14 -36 -43 -52t-79 -16l-1211 -18q-50 0 -79 16t-43 52 q-10 26 -18 65q-3 15 -7 79v442q-55 3 -93 27q-37 24 -54 65q-16 38 -22 75q-5 29 -5 80z" />
<glyph unicode="&#x449;" horiz-adv-x="1818" d="M-13 891q105 6 257 27q102 14 204 26q36 0 59 -10q25 -11 38 -27t19 -43t6 -47v-50v-500q0 -16 5 -21q6 -6 20 -6h102v441q-7 104 -45 193l117 27l88 22q48 12 57 14q29 7 43 9q11 2 29 2q42 0 68 -16q25 -15 39 -49q11 -27 18 -62q3 -14 7 -76v-471q0 -15 6 -21t19 -6 h102l-5 423q-8 106 -45 194q17 4 36.5 8.5t43.5 10t37 8.5l88 21q48 12 57 14q29 6 43 9q11 2 29 2q42 0 68 -16t39 -48q11 -26 18 -63q3 -15 7 -75v-584q0 -21 20 -24q156 -13 227 -89q70 -74 70 -189q0 -166 -104 -243t-249 -77q-72 0 -206 25t-188 25q-162 0 -165 -124 q-122 0 -186 70q-65 71 -65 160q0 105 83 175t227 70q92 0 223 -32t184 -32q104 0 104 69q0 48 -66 54h-1262q-50 0 -79 16t-43 52q-10 26 -18 65q-3 15 -7 79v442q-55 3 -93 27q-37 24 -54 65q-14 34 -21 75q-6 35 -6 81z" />
<glyph unicode="&#x44a;" horiz-adv-x="1222" d="M-23 792q0 68 45 108q46 41 134 41h371q44 0 70 -16q27 -17 37 -45q13 -37 15 -54q3 -24 3 -64v-133q50 50 124 84q70 32 143 32q149 0 237 -98q89 -100 89 -242q0 -96 -37 -170q-39 -77 -97 -122q-59 -45 -136 -75q-84 -32 -156 -42q-74 -10 -161 -10q-208 0 -330 84 q-120 83 -120 294l3 252q0 29 -23 29h-37q-54 0 -122 -9q-52 80 -52 156zM642 425q0 -71 26 -104q27 -34 70 -34q35 0 56 21t21 63q0 68 -50 97q-49 29 -123 32v-75z" />
<glyph unicode="&#x44b;" horiz-adv-x="1747" d="M-7 819v63v18q100 3 272 25q184 24 197 25q34 0 59 -11t38 -27q14 -18 20 -43q5 -23 5 -46v-51l-3 -143q105 115 247 115q148 0 236 -99q90 -101 90 -242q0 -120 -50 -204q-52 -87 -136 -131q-86 -45 -180 -66q-99 -22 -198 -22q-102 0 -178 16t-143 58t-101 116t-34 187 v292q-42 3 -69 18q-30 17 -43 35q-15 21 -22 58q-7 35 -7 59zM572 502l1 -72q0 -72 27 -107q27 -34 70 -34q67 0 67 86q0 124 -165 127zM1170 880l142 30q168 42 215 42q36 0 59 -13q26 -15 38 -32q14 -20 21 -49q9 -35 11 -53q0 -3 5 -61v-493q8 -100 45 -194l-127 -28 q-102 -23 -145 -31q-61 -11 -86 -11q-42 0 -70 17q-26 16 -40 52q-11 27 -18 64q-3 15 -7 79v487q-7 96 -43 194z" />
<glyph unicode="&#x44c;" horiz-adv-x="1168" d="M-4 819v63v18q102 3 273 25q184 24 197 25q34 0 59 -11t38 -27t19 -43t6 -46v-51v-141q51 51 123 84q70 32 144 32q148 0 236 -98q90 -101 90 -242q0 -94 -38 -170q-39 -78 -96 -122q-61 -47 -137 -76q-80 -31 -156 -41q-82 -11 -161 -11q-97 0 -177 17t-144 57 q-66 41 -100 116q-34 74 -34 187v285q-43 3 -70 18q-30 17 -43 35q-13 19 -21 58q-8 40 -8 59zM575 426q0 -72 27 -107q27 -34 70 -34q35 0 56 21t21 63q0 68 -50 97q-49 29 -124 32v-72z" />
<glyph unicode="&#x44d;" horiz-adv-x="985" d="M16 197q0 47 25 92q23 42 65 64q90 -79 243 -79q202 0 205 102h-219q-93 0 -93 86v34q0 86 93 86h219q-7 88 -205 88q-139 0 -220 -55q-77 30 -77 127q0 210 392 210q158 0 269 -38t169 -108q62 -75 84 -152q25 -87 25 -190q0 -487 -561 -487q-55 0 -129 9q-54 7 -129 30 q-64 20 -107 68q-42 47 -42 113h-7z" />
<glyph unicode="&#x44e;" horiz-adv-x="1661" d="M-11 900q91 3 253 25q154 21 220 27q34 0 59 -11t38 -27q14 -18 20 -43q5 -23 5 -47v-50v-138q0 -14 6 -20q5 -5 19 -5h61q44 153 172 249q124 93 319 93q256 0 382 -123q125 -122 125 -341q0 -221 -130 -364q-131 -144 -371 -147l-2 -5q-232 0 -362 100t-151 284h-66 v-110q7 -98 45 -193q-48 -8 -124 -27q-96 -24 -134 -31q-54 -10 -83 -10q-44 0 -70 16q-25 15 -39 52q-11 27 -18 64q-3 15 -7 79v457q-43 3 -77 20q-32 16 -49 41q-14 21 -26 59q-9 31 -13 63q-2 18 -2 63zM1045 455q0 -59 28 -100q30 -43 86 -43q49 0 81 39t32 108 q0 70 -32 109t-81 39q-50 0 -82 -39t-32 -107v-6z" />
<glyph unicode="&#x44f;" horiz-adv-x="1164" d="M11 183q80 34 172 156q-151 85 -151 252q0 125 90 210q88 84 218 117q125 32 298 32q151 0 323 -40q56 -13 86 -46t37 -65q8 -36 11 -91v-464q8 -100 45 -194q-317 -63 -355 -63q-42 0 -70 17q-25 15 -39 52q-11 27 -18 64q-4 22 -8 79v82l-59 -5q-45 -172 -120 -237 q-74 -64 -204 -64q-101 0 -174 52q-71 51 -82 156zM459 593q0 -97 105 -97h81v190h-88q-43 0 -71 -25q-27 -24 -27 -68z" />
<glyph unicode="&#x451;" horiz-adv-x="1148" d="M77 439l2 -9q0 -460 552 -460q192 0 322 62q129 62 129 187q0 45 -21 93q-20 46 -59 71q-117 -77 -294 -77q-173 0 -197 85q83 -15 150 -15q80 0 167 15q77 13 147 43q68 29 109 84q40 53 40 125q0 148 -131 228q-132 81 -360 81q-260 0 -409 -137q-147 -135 -147 -376z M204 1131q0 68 63 123q62 54 167 54q99 0 145 -39q48 -41 48 -108q0 -71 -61 -125q-62 -54 -166 -54h-2q-96 0 -145 41t-49 108zM527 509l2 -2q3 72 41 124q37 50 107 50q72 0 72 -65q0 -45 -57 -75q-55 -29 -165 -32zM686 1131q0 68 63 123q61 54 167 54q99 0 145 -39 q48 -41 48 -108q0 -71 -61 -125q-62 -54 -166 -54h-2q-96 0 -145 41t-49 108z" />
<glyph unicode="&#x452;" horiz-adv-x="1309" d="M43 1030q0 103 145 103h6v146q223 63 306 63q70 0 97 -59q26 -57 34 -152l206 -2q43 0 95 13q43 -50 43 -112q0 -102 -145 -102h-199v-267q121 237 344 237q126 0 199 -90q71 -87 71 -269v-417q0 -100 -10 -181q-11 -87 -43 -174q-32 -86 -81 -152q-47 -63 -129 -104 q-80 -40 -183 -40q-111 0 -183 63q-69 60 -69 156q0 47 19 97q32 -18 70 -18q55 0 90 30q36 31 52 86q14 49 21 111q6 54 6 128v376q0 75 -51 75q-48 0 -86 -68q-37 -67 -37 -172v-84q8 -100 45 -194q-45 -8 -128 -27q-92 -21 -139 -30q-60 -11 -81 -11q-44 0 -70 16 q-25 15 -39 52q-10 26 -18 65q-3 15 -7 79v731h-13q-43 0 -95 -13q-43 50 -43 111z" />
<glyph unicode="&#x453;" horiz-adv-x="1080" d="M-11 943h798q101 3 188 37l2 -3q77 -135 77 -224q0 -149 -231 -156h-205q-13 0 -19 -6t-6 -19v-264q3 -66 27 -93q23 -26 90 -34q-43 -195 -276 -195q-285 0 -285 267v449q-54 3 -92 26q-34 21 -48 62q-13 38 -16 74q-4 44 -4 79zM238 1142q0 30 24 60l259 323 q64 -11 119 -50q59 -42 79 -97q16 -37 10 -82q-6 -46 -39 -72l-294 -237q-59 20 -107 61q-51 44 -51 94z" />
<glyph unicode="&#x454;" horiz-adv-x="989" d="M20 457q0 95 27 179q27 83 86 156t170 117q108 43 263 43q175 0 283 -54t108 -153q0 -47 -29 -86t-75 -59q-80 61 -242 61q-68 0 -107 -16t-45 -68l215 -5q93 0 93 -86v-34q0 -86 -93 -86h-221q6 -53 51 -74t150 -21q130 0 219 78q40 -21 64 -64q25 -45 25 -91 q0 -219 -392 -219q-298 0 -425 106q-125 104 -125 376z" />
<glyph unicode="&#x455;" horiz-adv-x="1060" d="M73 201q0 53 31 100q31 46 84 70q145 -91 323 -91q57 0 57 32q0 20 -48 30q-81 18 -119 25q-63 12 -139 38q-69 24 -119 84q-48 59 -48 149q0 149 133 235t381 86q196 0 301 -54q106 -55 106 -152q0 -51 -38 -97q-39 -47 -114 -70q-48 38 -140 66q-88 27 -172 27 q-68 0 -68 -30l-7 5q0 -17 53 -30l133 -34q82 -20 156 -49q80 -31 133 -91t53 -149q0 -315 -509 -315q-423 0 -423 215z" />
<glyph unicode="&#x456;" horiz-adv-x="702" d="M-4 900q0 -45 2 -63q4 -32 13 -63q11 -35 27 -59q16 -23 48 -39q29 -15 79 -18v-457q4 -64 7 -79q8 -39 18 -65q14 -37 39 -52q26 -16 70 -16q25 0 86 11q63 11 145 30l128 29q-37 94 -45 194l-6 519v52q0 24 -5 47q-6 29 -18 43q-14 17 -37 27q-25 11 -60 11 q-60 -5 -227 -27q-172 -22 -264 -25zM124 1174q0 90 68 147q65 55 181 55q104 0 161 -48q56 -47 56 -131l-2 2q0 -91 -61 -145t-179 -54q-224 0 -224 174z" />
<glyph unicode="&#x457;" horiz-adv-x="953" d="M0 1149q0 68 63 123q61 54 166 54q100 0 146 -39q48 -41 48 -108q0 -71 -61 -125q-62 -54 -167 -54h-1q-97 0 -146 41q-48 41 -48 108zM120 900q0 -45 2 -63q4 -37 12 -63q11 -35 27 -59q15 -22 49 -39q29 -15 79 -18v-457q4 -64 7 -79q8 -39 18 -65q14 -37 39 -52 q26 -16 70 -16q25 0 86 11q63 11 145 30l127 29q-36 91 -44 194l-6 519v52q0 24 -5 47q-6 29 -18 43q-13 16 -38 27t-59 11q-63 -6 -228 -27q-172 -22 -263 -25zM482 1149q0 68 63 123q61 54 166 54q100 0 146 -39q48 -41 48 -108q0 -71 -61 -125q-62 -54 -167 -54h-1 q-97 0 -146 41q-48 41 -48 108z" />
<glyph unicode="&#x458;" horiz-adv-x="688" d="M-73 -310q0 -96 69 -156q72 -63 183 -63q99 0 183 42q82 41 129 104q49 66 81 152q32 87 43 174q10 81 10 181v647v52q0 24 -5 46q-6 29 -18 43q-13 16 -38 27t-59 11q-60 -5 -227 -27q-172 -22 -262 -25q0 -45 2 -63q4 -37 12 -63q11 -35 27 -59q15 -22 49 -39 q29 -15 79 -18v-475q0 -82 -2 -111q-2 -33 -11 -108q-7 -61 -25 -102q-17 -38 -50 -64q-34 -27 -81 -27q-38 0 -70 18q-19 -50 -19 -97zM133 1172q0 90 68 147q65 55 181 55q104 0 161 -48q56 -47 56 -131l-2 2q0 -91 -61 -145q-62 -54 -179 -54q-224 0 -224 174z" />
<glyph unicode="&#x459;" horiz-adv-x="1761" d="M5 206q0 33 11 86q22 -5 41 -5q52 0 88 32q37 33 56 72q19 41 30 105q13 81 15 106q1 12 1.5 27t1.5 35.5t2 34.5q-101 6 -145 79t-41 161h983q44 0 70 -16q27 -16 40 -49q11 -27 18 -62q3 -15 7 -75v-106q51 51 123 84q70 32 144 32q148 0 236 -98q90 -101 90 -242 q0 -92 -36 -170t-93 -122q-62 -47 -136 -76q-79 -31 -154 -41q-79 -11 -158 -11q-98 0 -178 17q-79 17 -143 57q-66 41 -100 116q-34 74 -34 187v333l-65 -2q-14 0 -20 -7q-5 -6 -5 -32q-7 -372 -107 -523t-307 -151q-110 0 -172 59q-63 60 -63 165zM1165 432q0 -74 27 -108 t70 -34q33 0 55 22t22 63q0 66 -51 96t-123 33v-72z" />
<glyph unicode="&#x45a;" horiz-adv-x="1811" d="M-18 896q92 3 264 25q163 21 229 27q34 0 59 -11t38 -27t19 -43t6 -46v-50v-138q0 -15 5 -20q6 -6 20 -6h163v78q-7 95 -43 193q312 72 353 72q36 0 59 -13q26 -15 38 -32q14 -20 21 -48q9 -34 11 -54q0 -3 5 -61v-113q47 47 126 82q75 33 145 33q148 0 236 -99 q90 -101 90 -242q0 -92 -36 -170t-93 -122q-59 -45 -136 -75q-79 -31 -154 -41q-79 -11 -158 -11q-203 0 -326 79q-121 78 -129 272l-9 -7q0 16 -5 21q-6 6 -20 6h-163v-109q8 -100 45 -194l-128 -29q-82 -19 -145 -30q-61 -11 -86 -11q-44 0 -70 16q-25 15 -39 52 q-10 26 -18 65q-3 15 -7 79v456q-43 3 -77 20q-32 16 -49 41q-16 23 -27 60q-8 26 -12 62q-2 18 -2 63zM1219 426q0 -74 26 -107q27 -34 70 -34q35 0 56 21t21 63q0 68 -50 97q-49 29 -123 32v-72z" />
<glyph unicode="&#x45b;" horiz-adv-x="1311" d="M27 1030q0 103 145 103h5v146q223 63 307 63q70 0 97 -59q26 -57 34 -152h208q47 0 95 12q43 -50 43 -111q0 -102 -146 -102h-199v-267q122 237 345 237q125 0 198 -90q72 -88 72 -269v-236q3 -67 27 -94q23 -26 90 -34q-45 -195 -275 -195q-285 0 -285 267v251 q0 75 -50 75q-48 0 -86 -68q-37 -67 -37 -172v-84q8 -103 44 -194q-42 -7 -127 -27q-88 -20 -140 -30q-60 -11 -80 -11q-44 0 -70 16t-40 52q-8 21 -17 65q-4 22 -8 79v731h-12q-43 0 -95 -13q-43 50 -43 111z" />
<glyph unicode="&#x45c;" horiz-adv-x="1265" d="M-11 898q111 3 285 27q171 24 210 27q34 0 59 -11t38 -27t19 -43t6 -47v-50v-215q150 19 150 165q0 70 -32 140q88 88 226 88q100 0 166 -56q69 -58 69 -161q0 -153 -151 -253q77 -198 242 -228q0 -132 -81 -204q-82 -73 -181 -73q-139 0 -217 91t-145 341h-46l-4 -162 q7 -101 43 -193l-122 -27q-109 -25 -147 -32q-60 -11 -86 -11q-44 0 -70 16q-25 15 -39 52q-11 27 -18 64q-3 15 -7 79v457q-43 3 -77 20q-32 16 -49 41q-14 21 -26 59q-9 31 -13 63q-2 18 -2 63zM514 1079q0 31 24 61l259 322q64 -11 119 -50q59 -42 79 -97q16 -37 10 -82 q-6 -46 -39 -72l-294 -236q-61 21 -108 61q-50 43 -50 93z" />
<glyph unicode="&#x45e;" horiz-adv-x="1250" d="M-11 896q0 -45 2 -63q3 -30 13 -62q12 -40 26 -60q15 -22 49 -39q29 -15 79 -18v-335q0 -342 272 -342q110 0 188 57q80 58 144 194l-2 -13q0 -50 -6 -95q-7 -52 -21 -98q-18 -59 -39 -92q-24 -37 -67 -64t-98 -27q-87 0 -147 52q-106 -51 -106 -176q0 -109 82 -179 q84 -72 232 -72q125 0 225 41q96 39 163 117q64 74 108 170q44 95 68 219q25 126 32 240q9 139 9 256v230q-5 61 -5 62q-2 20 -11 54q-7 28 -21 48q-13 19 -38 33q-21 12 -59 12q-34 0 -346 -72q36 -92 43 -193v-208q0 -83 -27 -131t-68 -48q-63 0 -63 75v400v52q0 23 -5 46 q-6 29 -18 43q-13 16 -38 27t-59 11q-60 -5 -227 -27q-172 -22 -264 -25zM305 1208q0 59 37 102q36 42 117 50q85 -107 197 -107q111 0 199 107q77 -7 114 -50q38 -44 38 -100q0 -96 -98 -163t-255 -70l4 -2q-157 3 -255 70t-98 163z" />
<glyph unicode="&#x45f;" horiz-adv-x="1297" d="M-13 892q112 3 302 27q191 24 207 27q35 0 60 -11q24 -11 37 -26q14 -18 20 -43q5 -22 5 -47v-50v-500q0 -16 6 -22q5 -5 19 -5h171v441q-7 104 -45 193q315 72 360 72q42 0 68 -16q25 -15 39 -49q11 -27 18 -62q4 -22 8 -76v-544q-4 -57 -8 -79q-8 -39 -18 -65 q-14 -36 -43 -52t-78 -16h-196q-17 -3 -23 -21l-56 -212q-24 -91 -80 -91h-84q-57 0 -81 91l-59 235h-212q-49 0 -78 16q-30 17 -44 52q-8 21 -17 65q-5 23 -8 78v443q-55 3 -96 27q-39 23 -59 65q-20 41 -27 77q-8 40 -8 78z" />
<glyph unicode="&#x490;" horiz-adv-x="1118" d="M14 1122q0 37 9 95h653q191 0 191 163q124 -14 181 -97q58 -85 58 -199q0 -141 -81 -206q-80 -64 -217 -64h-174q-19 -3 -19 -27v-475q8 -138 48 -253q-297 -73 -337 -73q-45 0 -75 21q-29 20 -43 65q-11 34 -18 84q-3 20 -7 102v651q-169 30 -169 213z" />
<glyph unicode="&#x491;" horiz-adv-x="1114" d="M13 941h707q54 0 81 12q30 13 43 40q13 26 16 48q4 28 4 59q114 -8 175 -82q63 -77 63 -174q0 -100 -61 -170t-172 -70h-210q-14 0 -19 -5q-6 -6 -6 -20v-273q3 -66 27 -93q23 -26 90 -34q-43 -195 -276 -195q-285 0 -285 267v450q-177 3 -177 240z" />
<glyph unicode="&#x1e82;" horiz-adv-x="1677" d="M-5 980q17 108 86 165q71 59 165 59q75 0 125 -28q53 -30 88 -78q34 -47 61 -139q26 -87 43 -183q10 -56 34 -238l109 315q16 47 31 77q11 22 32 43q22 22 54 22h100q47 0 68 -33q26 -41 47 -109l107 -360q104 263 104 408q0 118 -56 178q30 62 92 97q61 34 134 34 q100 0 171 -68q69 -66 69 -205q0 -150 -113 -466l-25 -75q-12 -36 -26 -86l-20 -70q-10 -35 -18 -82q-5 -29 -5 -70q0 -34 5 -59q-140 -51 -244 -54q-92 -3 -163 59q-69 60 -102 177l-88 377l-111 -351q-34 -103 -12 -205l-11 -12q-113 -54 -240 -54q-158 0 -215 113 q-58 115 -103 475q-21 173 -55 272q-38 110 -118 154zM676 1195q0 32 23 61l260 323q63 -11 118 -50q59 -42 79 -97q17 -38 11 -83q-6 -44 -40 -71l-294 -237q-59 20 -107 61q-50 43 -50 93z" />
<glyph unicode="&#x1ef3;" horiz-adv-x="1232" d="M-16 892q81 2 263 26q136 18 230 26q36 0 59 -10t37 -27q14 -18 20 -43q6 -27 6 -47v-50v-400q0 -75 62 -75q41 0 68 48t27 133v208q-7 101 -43 193q312 72 346 72q38 0 59 -12q25 -14 38 -33q14 -20 21 -48q9 -34 11 -54q0 -3 5 -61v-229q0 -133 -8 -256 q-7 -106 -33 -240q-25 -128 -66 -217q-43 -93 -108 -169t-163 -116t-225 -40q-146 0 -232 74q-82 70 -82 181q0 124 106 175q60 -52 147 -52q55 0 98 27q44 27 68 65q23 36 40 91q13 44 21 101q6 45 6 95l-9 -9q-65 -138 -142 -194q-75 -55 -188 -55q-272 0 -272 342v335 q-44 3 -78 20q-30 15 -48 41q-16 24 -27 59q-8 26 -12 63q-2 18 -2 62zM335 1328q24 56 81 97t118 48l260 -323q25 -28 25 -60q0 -51 -50 -94q-47 -40 -108 -61l-294 237q-67 50 -32 156z" />
<glyph unicode="&#x2000;" horiz-adv-x="939" />
<glyph unicode="&#x2001;" horiz-adv-x="1878" />
<glyph unicode="&#x2002;" horiz-adv-x="939" />
<glyph unicode="&#x2003;" horiz-adv-x="1878" />
<glyph unicode="&#x2004;" horiz-adv-x="626" />
<glyph unicode="&#x2005;" horiz-adv-x="469" />
<glyph unicode="&#x2006;" horiz-adv-x="313" />
<glyph unicode="&#x2007;" horiz-adv-x="313" />
<glyph unicode="&#x2008;" horiz-adv-x="234" />
<glyph unicode="&#x2009;" horiz-adv-x="375" />
<glyph unicode="&#x200a;" horiz-adv-x="104" />
<glyph unicode="&#x2010;" horiz-adv-x="802" d="M22 541q0 89 48 122t154 36h323q123 0 191 32q40 -98 40 -204q0 -86 -47 -120q-42 -31 -150 -34l-328 -4q-124 0 -192 -32q-39 95 -39 204z" />
<glyph unicode="&#x2011;" horiz-adv-x="802" d="M22 541q0 89 48 122t154 36h323q123 0 191 32q40 -98 40 -204q0 -86 -47 -120q-42 -31 -150 -34l-328 -4q-124 0 -192 -32q-39 95 -39 204z" />
<glyph unicode="&#x2012;" horiz-adv-x="802" d="M22 541q0 89 48 122t154 36h323q123 0 191 32q40 -98 40 -204q0 -86 -47 -120q-42 -31 -150 -34l-328 -4q-124 0 -192 -32q-39 95 -39 204z" />
<glyph unicode="&#x2013;" horiz-adv-x="1152" d="M25 498q0 97 57 145q58 49 205 49q64 0 312 -11t272 -11q114 0 199 41q55 -68 55 -175q0 -97 -57 -145q-58 -49 -204 -49q-64 0 -312 11t-272 11q-114 0 -199 -41q-56 69 -56 175z" />
<glyph unicode="&#x2014;" horiz-adv-x="1304" d="M13 498q0 97 57 145q58 49 204 49q61 0 402 -11t360 -11q114 0 199 41q55 -68 55 -175q0 -97 -57 -145q-58 -49 -204 -49q-61 0 -402 11t-360 11q-114 0 -199 -41q-55 68 -55 175z" />
<glyph unicode="&#x2018;" horiz-adv-x="503" d="M18 918q0 126 90 225q88 97 220 97q119 0 159 -91l-3 1q-120 -56 -120 -155q0 -34 23 -83t23 -75q0 -63 -59 -104q-56 -39 -131 -39q-99 0 -150 68q-52 69 -52 156z" />
<glyph unicode="&#x2019;" horiz-adv-x="503" d="M16 776q120 56 120 156q0 31 -23 80t-23 78q0 64 59 105t132 41q100 0 151 -68q52 -69 52 -156q0 -128 -88 -225t-220 -97q-120 0 -160 91v-5z" />
<glyph unicode="&#x201c;" horiz-adv-x="956" d="M20 919q0 128 89 226q88 97 221 97q118 0 159 -92l-3 2q-120 -56 -120 -156q0 -33 23 -82t23 -75q0 -63 -59 -104q-58 -40 -131 -40q-99 0 -150 68q-52 69 -52 156zM466 918q0 126 90 225q88 97 220 97q119 0 159 -91l-3 1q-120 -56 -120 -155q0 -34 23 -83t23 -75 q0 -63 -59 -104q-56 -39 -131 -39q-99 0 -150 68q-52 69 -52 156z" />
<glyph unicode="&#x201d;" horiz-adv-x="956" d="M22 776q120 56 120 156q0 29 -24 80q-23 49 -23 78q0 64 59 105t133 41q99 0 150 -68q52 -69 52 -156q0 -128 -88 -225t-220 -97q-119 0 -159 91v-5zM464 771q120 56 120 155q0 32 -23 81t-23 77q0 65 59 106t132 41q100 0 151 -68q52 -69 52 -156q0 -129 -88 -226 q-87 -96 -220 -96q-120 0 -160 91v-5z" />
<glyph unicode="&#x201e;" horiz-adv-x="956" d="M22 -111v-4q120 56 120 156q0 33 -24 81q-23 46 -23 75q0 65 59 106t133 41q99 0 150 -68q52 -69 52 -156q0 -129 -88 -226q-87 -96 -220 -96q-119 0 -159 91zM464 -115v-3q120 56 120 156q0 34 -23 80t-23 76q0 64 59 105t132 41q100 0 151 -68q52 -69 52 -156 q0 -128 -88 -225t-220 -97q-120 0 -160 91z" />
</font>
</defs>
</svg>
