<?xml version="1.0" encoding="utf-8"?>
<!-- Generator: Adobe Illustrator 18.0.0, SVG Export Plug-In . SVG Version: 6.00 Build 0)  -->
<!DOCTYPE svg PUBLIC "-//W3C//DTD SVG 1.1//EN" "http://www.w3.org/Graphics/SVG/1.1/DTD/svg11.dtd">
<svg version="1.1" id="Слой_1" xmlns="http://www.w3.org/2000/svg" xmlns:xlink="http://www.w3.org/1999/xlink" x="0px" y="0px"
	 viewBox="0 0 39.6 39.7" enable-background="new 0 0 39.6 39.7" xml:space="preserve">
<g>
	<path fill="#FFFFFF" d="M19.9,0C8.9,0,0,8.9,0,19.9c0,11,8.9,19.9,19.9,19.9c11,0,19.9-8.9,19.9-19.9C39.7,8.9,30.8,0,19.9,0
		L19.9,0z M28.7,15.3c0,0.2,0,0.4,0,0.6c0,6-4.6,13-13,13c-2.6,0-5-0.8-7-2.1c0.4,0,0.7,0.1,1.1,0.1c2.1,0,4.1-0.7,5.7-2
		c-2,0-3.7-1.4-4.3-3.2c0.3,0.1,0.6,0.1,0.9,0.1c0.4,0,0.8-0.1,1.2-0.2c-2.1-0.4-3.7-2.3-3.7-4.5c0,0,0,0,0-0.1
		c0.6,0.3,1.3,0.5,2.1,0.6c-1.2-0.8-2-2.2-2-3.8c0-0.8,0.2-1.6,0.6-2.3c2.3,2.8,5.6,4.6,9.4,4.8c-0.1-0.3-0.1-0.7-0.1-1
		c0-2.5,2-4.6,4.6-4.6c1.3,0,2.5,0.6,3.3,1.4c1-0.2,2-0.6,2.9-1.1c-0.3,1.1-1.1,2-2,2.5c0.9-0.1,1.8-0.4,2.6-0.7
		C30.4,13.9,29.6,14.7,28.7,15.3L28.7,15.3z M28.7,15.3"/>
</g>
</svg>
