<?xml version="1.0" encoding="utf-8"?>
<!-- Generator: Adobe Illustrator 18.0.0, SVG Export Plug-In . SVG Version: 6.00 Build 0)  -->
<!DOCTYPE svg PUBLIC "-//W3C//DTD SVG 1.1//EN" "http://www.w3.org/Graphics/SVG/1.1/DTD/svg11.dtd">
<svg version="1.1" id="Layer_1" xmlns="http://www.w3.org/2000/svg" xmlns:xlink="http://www.w3.org/1999/xlink" x="0px" y="0px"
	 viewBox="0 0 92.6 21.7" enable-background="new 0 0 92.6 21.7" xml:space="preserve">
<g>
	<g>
		<path fill-rule="evenodd" clip-rule="evenodd" fill="#FFFFFF" d="M4.1,6.4C1.7,6.9-0.2,9.3,0,11.8c0.2,2.5,2.3,4.7,4.8,4.8
			c1.8,0.1,3.7,0,5.5,0c0-2.4,0.2-4.7-0.2-6.8C9.7,7.2,6.8,5.9,4.1,6.4z M8.5,14.5c-1.3,0-2.4,0-3.5,0c-1.7,0-2.8-1.4-2.8-3
			c0-1.6,1.1-2.9,2.7-3.1c1.7-0.2,3.1,0.7,3.5,2.3c0.1,0.3,0.1,0.6,0.1,0.9C8.5,12.5,8.5,13.4,8.5,14.5z M17.2,6.5
			c-0.3,0-0.6-0.1-0.9,0C14,6.5,11.7,8,11.5,10.1c-0.1,0.5-0.1,1.6-0.1,1.6s0,4.9,0,7.3c0.6,0,1.3,0,1.8,0c0-0.8,0-1.5,0-2.4
			c1.3,0,2.6,0.1,3.8,0c2.5-0.1,4.6-2.3,4.7-4.8C21.8,9.2,19.8,6.8,17.2,6.5z M17.1,14.6c-0.5,0.1-0.5,0.2-1.1,0.2
			c-0.8,0-1.9,0-2.4,0c-0.2,0-0.4,0-0.5,0c0,0,0-0.2,0-0.4c0-0.6,0-1.7,0-2.6c0-0.8,0-1,0.3-1.5c0.6-1.1,1.4-1.7,2.7-1.8
			c1.8-0.2,3.3,1,3.5,2.6C19.8,12.9,18.9,14.1,17.1,14.6z M28.5,6.5c-2.6-0.3-5.5,1.3-5.7,3.6c-0.1,0.5-0.1,1.6-0.1,1.6s0,4.9,0,7.3
			c0.6,0,1.3,0,1.8,0c0-0.8,0-1.5,0-2.4c1.3,0,2.6,0.1,3.8,0c2.5-0.1,4.6-2.3,4.7-4.8C33.2,9.2,31.1,6.8,28.5,6.5z M28.5,14.6
			c-0.5,0.1-0.5,0.2-1.1,0.2c-0.8,0-1.9,0-2.4,0c-0.2,0-0.4,0-0.5,0c0,0,0-0.2,0-0.4c0-0.6,0-1.7,0-2.6c0-0.8,0-1,0.3-1.5
			c0.6-1.1,1.4-1.7,2.7-1.8c1.8-0.2,3.3,1,3.5,2.6C31.1,12.9,30.2,14.1,28.5,14.6z M46.9,0.6c-5.9,0-10.7,4.7-10.7,10.6
			c0,5.8,4.8,10.6,10.7,10.6c5.9,0,10.7-4.7,10.7-10.6C57.7,5.3,52.9,0.6,46.9,0.6z M46.9,20.4c-5.2,0-9.4-4.2-9.4-9.3
			c0-5.1,4.2-9.3,9.4-9.3c5.2,0,9.4,4.2,9.4,9.3C56.4,16.3,52.2,20.4,46.9,20.4z M47.3,7.9c1.2,0,2.3,0.7,2.8,1.6l1.4-1.3
			c-0.8-1.1-2-1.9-3.4-2.1V4.5h-1.5v1.7c-2.4,0.4-4.3,2.4-4.3,4.9c0,2.5,1.9,4.6,4.4,4.9h-0.1v1.7h1.5v-1.7c1.4-0.2,2.7-1,3.4-2.1
			l-1.3-1.3c-0.5,1-1.6,1.7-2.8,1.7c-1.8,0-3.2-1.4-3.2-3.2C44.1,9.3,45.6,7.9,47.3,7.9z M68,7c-2-0.9-4.4-0.4-5.9,1.2
			c-1.6,1.7-1.9,4-0.8,6c1.1,2,3.1,2.9,5.3,2.6c0-1.9,0-1.3,0-1.9c-1.6-0.1-3-0.4-3.6-2.3c2.8,0,5.4,0,8,0C71.4,10,70.2,8,68,7z
			 M63.1,10.7c0.5-1.4,1.5-2,2.8-2c1.4,0,2.4,0.6,3,2C66.9,10.7,65.1,10.7,63.1,10.7z M82.7,11.1c-0.2-2.3-2.3-4.3-4.6-4.5
			c-2.7-0.2-5.2,1.3-5.6,3.6c-0.3,2.1-0.2,4.4-0.2,6.6c0.7,0,1.3,0,2,0c0-1.5-0.1-3,0-4.4c0-2.4,1.3-3.7,3.3-3.7
			c2,0,3.1,1.3,3.1,3.7c0,1.5,0.1,2.9,0.1,4.5c0.5,0,1,0,2,0c0-0.6,0-1,0-1.4C82.7,13.9,82.8,12.4,82.7,11.1z M88.5,10.4
			c0.7,0,1.5,0,2.3,0c0-0.6,0-1.2,0-1.8c-0.8,0-1.5,0-2.4,0c0-1.4,0-2.8,0-4.1c-0.7,0-1.3,0-2.1,0c0,1.4,0,2.9,0,4.1
			c-0.8,0-1.5,0-2.1,0c0,0.7,0,1.3,0,1.9c0.7,0,1.3,0,2,0.1c0.3,2.2,0.7,3.6,1.6,4.6c1.1,1.1,2.9,1.7,4.7,1.4c0-0.6,0-1.1,0-1.7
			C89.4,14.6,88.2,13.4,88.5,10.4z"/>
	</g>
</g>
</svg>
