<?xml version="1.0" encoding="utf-8"?>
<!-- Generator: Adobe Illustrator 18.0.0, SVG Export Plug-In . SVG Version: 6.00 Build 0)  -->
<!DOCTYPE svg PUBLIC "-//W3C//DTD SVG 1.1//EN" "http://www.w3.org/Graphics/SVG/1.1/DTD/svg11.dtd">
<svg version="1.1" id="Слой_1" xmlns="http://www.w3.org/2000/svg" xmlns:xlink="http://www.w3.org/1999/xlink" x="0px" y="0px"
	 viewBox="0 0 77.7 77.7" enable-background="new 0 0 77.7 77.7" xml:space="preserve">
<g>
	<path fill="#958F51" d="M38.9,0C17.4,0,0,17.4,0,38.9c0,21.4,17.4,38.9,38.9,38.9c21.4,0,38.9-17.4,38.9-38.9
		C77.7,17.4,60.3,0,38.9,0L38.9,0z M38.9,69.5C22,69.5,8.3,55.7,8.3,38.9C8.3,22,22,8.3,38.9,8.3c16.9,0,30.6,13.7,30.6,30.6
		C69.5,55.7,55.7,69.5,38.9,69.5L38.9,69.5z M38.9,69.5"/>
	<path fill="#958F51" d="M59.1,37.7H41.7v-21c0-1.8-1.4-3.2-3.2-3.2c-1.8,0-3.2,1.4-3.2,3.2v24.2c0,1.8,1.4,3.2,3.2,3.2h20.7
		c1.8,0,3.2-1.4,3.2-3.2C62.3,39.1,60.9,37.7,59.1,37.7L59.1,37.7z M59.1,37.7"/>
</g>
</svg>
