<?xml version="1.0" encoding="utf-8"?>
<!-- Generator: Adobe Illustrator 18.0.0, SVG Export Plug-In . SVG Version: 6.00 Build 0)  -->
<!DOCTYPE svg PUBLIC "-//W3C//DTD SVG 1.1//EN" "http://www.w3.org/Graphics/SVG/1.1/DTD/svg11.dtd">
<svg version="1.1" id="Слой_1" xmlns="http://www.w3.org/2000/svg" xmlns:xlink="http://www.w3.org/1999/xlink" x="0px" y="0px"
	 viewBox="0 0 39.8 39.7" enable-background="new 0 0 39.8 39.7" xml:space="preserve">
<g>
	<path fill="#FFFFFF" d="M20,23.8c2.2,0,4-1.8,4-4c0-0.9-0.3-1.7-0.8-2.3c-0.7-1-1.9-1.7-3.2-1.7c-1.3,0-2.5,0.7-3.2,1.7
		C16.3,18.2,16,19,16,19.9C16,22.1,17.8,23.8,20,23.8L20,23.8z M20,23.8"/>
	<path fill="#FFFFFF" d="M28.7,15v-3.8h-0.5l-3.3,0l0,3.8L28.7,15z M28.7,15"/>
	<path fill="#FFFFFF" d="M20,0C9,0,0.1,8.9,0.1,19.9c0,11,8.9,19.9,19.9,19.9c11,0,19.9-8.9,19.9-19.9C39.8,8.9,30.9,0,20,0L20,0z
		 M31.3,17.5v9.3c0,2.4-2,4.4-4.4,4.4H13.1c-2.4,0-4.4-2-4.4-4.4V12.9c0-2.4,2-4.4,4.4-4.4h13.9c2.4,0,4.4,2,4.4,4.4V17.5z
		 M31.3,17.5"/>
	<path fill="#FFFFFF" d="M26.2,19.9c0,3.4-2.8,6.2-6.2,6.2c-3.4,0-6.2-2.8-6.2-6.2c0-0.8,0.2-1.6,0.5-2.3h-3.4v9.3
		c0,1.2,1,2.2,2.2,2.2h13.9c1.2,0,2.2-1,2.2-2.2v-9.3h-3.4C26,18.3,26.2,19,26.2,19.9L26.2,19.9z M26.2,19.9"/>
</g>
</svg>
