<?xml version="1.0" encoding="utf-8"?>
<!-- Generator: Adobe Illustrator 18.0.0, SVG Export Plug-In . SVG Version: 6.00 Build 0)  -->
<!DOCTYPE svg PUBLIC "-//W3C//DTD SVG 1.1//EN" "http://www.w3.org/Graphics/SVG/1.1/DTD/svg11.dtd">
<svg version="1.1" id="Layer_1" xmlns="http://www.w3.org/2000/svg" xmlns:xlink="http://www.w3.org/1999/xlink" x="0px" y="0px"
	 viewBox="0 0 100.9 67.5" enable-background="new 0 0 100.9 67.5" xml:space="preserve">
<g>
	<defs>
		<path id="SVGID_1_" d="M94.3,19.9c-2.6,0-6.5,7.3-6.5,9.6c0,2.3,4.5,5,6.3,5c2.4,0,6.8-6.3,6.8-8.9
			C100.9,22.9,96.9,19.9,94.3,19.9z M66.7,49.3c0,1.5-2.8,6.9-5.6,6.9c-0.8,0-1.2-1.3-1.2-2.4c0-6.4,3.5-10.1,4-10.1
			c-0.9,3.2,0.6,5.5,2.6,5.6C66.6,49.3,66.6,49.3,66.7,49.3L66.7,49.3L66.7,49.3z M36.9,56.2c-0.8,0-1.2-1.3-1.2-2.4
			c0-6.4,3.5-10.1,4-10.1c-0.9,3.2,0.6,5.5,2.7,5.6v0h0.1C42.5,50.8,39.7,56.2,36.9,56.2z M34.1,10.6c1.4,0,2.4,0.9,2.4,2.1
			c0,4.3-6.3,10.4-13.5,16C26.3,19.1,30.7,10.6,34.1,10.6z M89.9,52.4c-1.3,0-3.2,3.2-5,3.2c-0.5,0-1.1-1-1.1-2
			c0-4.5,5.1-10.6,6.7-13.5c0.4-0.8,0.2-1.8-0.2-2.3c-1.1-1.3-3.2-3.6-5.9-3.6c-1.5,0-1.8,0.1-3.4,1.4c-0.1,0.1-0.3,0.2-0.4,0.4
			c0,0,0,0,0,0c-0.1,0.1-0.2,0.2-0.4,0.4c-1.1,1.3-4.6,4.9-5.6,4.3C74,37.7,70.8,34,65.9,34c-2.1,0-4.4,1.2-6.7,3.2l0,0
			c0,0-7.1,7.3-8.5,5.4c0-0.2,0-0.4,0-0.5c0-3.2-3.3-8.1-9-8.1c-4.1,0-9.5,5-12.8,11c-0.1,0.2-0.3,0.5-0.4,0.8
			c-1.3,2.4-5.5,9.8-7.5,9.8c-1.7,0-2.8-1.8-2.8-5.1c0-2.4,0.6-6,1.5-10.1c11.6-7.9,25.8-19.5,25.8-29.1C45.4,5.6,41,0,34.8,0
			c-12.1,0-21,20-24.7,37.7c-4.6,3-7.9,4.9-7.9,4.9S-1,44.9,0.7,48c1.4,2.4,4,1.6,4,1.6s1.5-0.8,3.9-2.3c-0.2,2.1-0.3,4.1-0.3,5.9
			c0,7.8,4.5,13.7,10.6,13.7c1.9,0,4.9-3.7,7.3-7.3c1.2,4.4,4.2,7.2,8.7,7.3c6.1,0.1,12.5-8.5,14.8-17.8c0.5,0,1-0.1,1.5-0.2
			c-0.8,2.2-1.3,4.5-1.3,6.6c0,6.7,3.5,11.3,9.2,11.4c6.3,0.1,12.9-9,15-18.7c0.5-0.2,1-0.3,1.5-0.6c-0.9,3.6-1.4,7.1-1.4,9.8
			c0,5.1,3.8,10,8.3,10c5.9,0,11.4-10.5,11.4-11.5C93.9,54.9,91.3,52.4,89.9,52.4z"/>
	</defs>
	<use xlink:href="#SVGID_1_"  overflow="visible" fill-rule="evenodd" clip-rule="evenodd" fill="#7B7B7B"/>
	<clipPath id="SVGID_2_">
		<use xlink:href="#SVGID_1_"  overflow="visible"/>
	</clipPath>
	<g clip-path="url(#SVGID_2_)">
		<defs>
			<rect id="SVGID_3_" x="-94.5" y="-711.8" width="1212.7" height="909.5"/>
		</defs>
		<use xlink:href="#SVGID_3_"  overflow="visible" fill="#7B7B7B"/>
		<clipPath id="SVGID_4_">
			<use xlink:href="#SVGID_3_"  overflow="visible"/>
		</clipPath>
		<rect x="-2.8" y="-3" clip-path="url(#SVGID_4_)" fill="#7B7B7B" width="106.6" height="73.4"/>
	</g>
</g>
</svg>
