<?xml version="1.0" encoding="utf-8"?>
<!-- Generator: Adobe Illustrator 18.0.0, SVG Export Plug-In . SVG Version: 6.00 Build 0)  -->
<!DOCTYPE svg PUBLIC "-//W3C//DTD SVG 1.1//EN" "http://www.w3.org/Graphics/SVG/1.1/DTD/svg11.dtd">
<svg version="1.1" id="Слой_1" xmlns="http://www.w3.org/2000/svg" xmlns:xlink="http://www.w3.org/1999/xlink" x="0px" y="0px"
	 viewBox="0 0 339.2 310.4" enable-background="new 0 0 339.2 310.4" xml:space="preserve">
<g>
	<path fill="#FFFFFF" d="M28,56.8c-16,0-28-12-28-28S12,0,28,0h282.4c16,0,28.8,12.8,28.8,28.8s-12.8,28-28.8,28H28z M28,56.8"/>
	<path fill="#FFFFFF" d="M310.4,126.4c16,0,28.8,12.8,28.8,28.8s-12.8,28-28.8,28H28c-16,0-28-12-28-28s12-28.8,28-28.8H310.4z
		 M310.4,126.4"/>
	<path fill="#FFFFFF" d="M310.4,253.6c16,0,28.8,12,28.8,28c0,16-12.8,28.8-28.8,28.8H28c-16,0-28-12.8-28-28.8c0-16,12-28,28-28
		H310.4z M310.4,253.6"/>
</g>
</svg>
