<?xml version="1.0" encoding="utf-8"?>
<!-- Generator: Adobe Illustrator 18.0.0, SVG Export Plug-In . SVG Version: 6.00 Build 0)  -->
<!DOCTYPE svg PUBLIC "-//W3C//DTD SVG 1.1//EN" "http://www.w3.org/Graphics/SVG/1.1/DTD/svg11.dtd">
<svg version="1.1" id="Layer_1" xmlns="http://www.w3.org/2000/svg" xmlns:xlink="http://www.w3.org/1999/xlink" x="0px" y="0px"
	 viewBox="0 0 513.5 80.7" enable-background="new 0 0 513.5 80.7" xml:space="preserve">
<g>
	<polygon fill="#FFFFFF" points="258.4,23.7 256.4,23.7 256.4,80.7 258.4,80.7 267.4,80.7 300.4,80.7 304.4,69.7 267.4,69.7 
		267.4,57.7 288.4,57.7 288.4,46.7 267.4,46.7 267.4,34.7 304.4,34.7 304.4,23.7 267.4,23.7 	"/>
	<polygon fill="#FFFFFF" points="145.9,66.7 141.3,55.7 131.2,55.7 140.4,36.5 161.4,80.7 173.5,80.7 146.4,23.7 146.5,23.7 
		134.2,23.7 134.3,23.7 107.2,80.7 119.3,80.7 126,66.7 	"/>
	<polygon fill="#FFFFFF" points="227.9,80.7 241.5,80.7 215.5,48.9 239.7,24.7 224.7,24.7 199.4,50 199.4,23.7 188.4,23.7 
		188.4,80.7 199.4,80.7 199.4,65 208,56.4 	"/>
	<path fill="#FFFFFF" d="M426.4,23.7L426.4,23.7l-29,0v11h28.9c5.8,0,10.5,4.7,10.5,10.5c0,5.8-4.7,10.5-10.5,10.5v0h-17.9v-9.9h-11
		v35h11V66.6h18v0c11.8-0.1,21.3-9.6,21.3-21.5C447.7,33.3,438.2,23.8,426.4,23.7z"/>
	<path fill="#FFFFFF" d="M513.5,45.2c0-11.7-9.4-21.2-21-21.4v0h-29.3v11H492c5.8,0,10.5,4.7,10.5,10.5c0,5.8-4.7,10.5-10.5,10.5v0
		h-17.9v-9.9h-11v35h11V66.6h18.3v0C504.1,66.4,513.5,56.9,513.5,45.2z"/>
	<polygon fill="#FFFFFF" points="355.5,23.7 343.2,23.7 343.3,23.7 328,55.7 328,55.7 328,55.7 316.2,80.7 328.3,80.7 335,66.7 
		354.1,66.7 349.5,55.7 340.2,55.7 349.4,36.5 370.4,80.7 382.5,80.7 355.4,23.7 	"/>
	<polygon fill="#FFFFFF" points="70.3,80.6 70.3,80.7 82.4,80.7 82.3,80.6 111.5,15.2 116.9,17.7 112.5,0 96.1,8 101.6,10.6 
		76.3,67 57.3,23.7 45.3,23.7 26.2,67 12.2,35 0,35 20.2,80.6 20.2,80.7 32.3,80.7 32.3,80.6 51.3,37.4 	"/>
</g>
</svg>
