<?xml version="1.0" encoding="utf-8"?>
<!-- Generator: Adobe Illustrator 18.0.0, SVG Export Plug-In . SVG Version: 6.00 Build 0)  -->
<!DOCTYPE svg PUBLIC "-//W3C//DTD SVG 1.1//EN" "http://www.w3.org/Graphics/SVG/1.1/DTD/svg11.dtd">
<svg version="1.1" id="Слой_1" xmlns="http://www.w3.org/2000/svg" xmlns:xlink="http://www.w3.org/1999/xlink" x="0px" y="0px"
	 viewBox="0 0 78.2 78.2" enable-background="new 0 0 78.2 78.2" xml:space="preserve">
<g>
	<path fill="#FFFFFF" d="M20.5,42h3.1v16.8h2.9V42h3.2v-2.7h-9.2V42z M20.5,42"/>
	<path fill="#FFFFFF" d="M45.3,44c-1,0-1.9,0.5-2.7,1.6v-6.4H40v19.5h2.6v-1.4c0.9,1.1,1.8,1.6,2.7,1.6c1,0,1.8-0.6,2.1-1.6
		c0.2-0.6,0.3-1.6,0.3-2.9v-5.8c0-1.4-0.1-2.3-0.3-2.9C47.1,44.6,46.4,44,45.3,44L45.3,44z M45.1,54.6c0,1.3-0.4,2-1.1,2
		c-0.4,0-0.9-0.2-1.3-0.6v-8.9c0.4-0.4,0.9-0.6,1.3-0.6c0.8,0,1.1,0.7,1.1,2V54.6z M45.1,54.6"/>
	<path fill="#FFFFFF" d="M35.1,55.3c-0.6,0.8-1.1,1.2-1.7,1.2c-0.4,0-0.6-0.2-0.6-0.6c0-0.1,0-0.4,0-1V44.2h-2.6v11.5
		c0,1,0.1,1.7,0.2,2.2c0.3,0.7,0.9,1.1,1.7,1.1c1,0,2-0.6,3-1.8v1.6h2.6V44.2h-2.6V55.3z M35.1,55.3"/>
	<path fill="#FFFFFF" d="M37.3,30.8c0.9,0,1.3-0.7,1.3-2v-6.2c0-1.4-0.4-2-1.3-2c-0.9,0-1.3,0.7-1.3,2v6.2
		C36.1,30.1,36.5,30.8,37.3,30.8L37.3,30.8z M37.3,30.8"/>
	<path fill="#FFFFFF" d="M39.1,0C17.5,0,0,17.5,0,39.1c0,21.6,17.5,39.1,39.1,39.1c21.6,0,39.1-17.5,39.1-39.1
		C78.2,17.5,60.7,0,39.1,0L39.1,0z M43.4,18.3h2.7v10.8c0,0.6,0,0.9,0,1c0.1,0.4,0.3,0.6,0.6,0.6c0.5,0,1.1-0.4,1.7-1.2V18.3h2.7V33
		h-2.7v-1.6c-1.1,1.2-2.1,1.8-3,1.8c-0.9,0-1.4-0.4-1.7-1.1c-0.1-0.4-0.2-1.1-0.2-2.2V18.3z M33.4,23.1c0-1.6,0.3-2.7,0.8-3.5
		c0.7-1,1.8-1.5,3.1-1.5c1.3,0,2.4,0.5,3.1,1.5c0.6,0.7,0.8,1.9,0.8,3.5v5.1c0,1.6-0.3,2.7-0.8,3.5c-0.7,1-1.8,1.5-3.1,1.5
		c-1.3,0-2.4-0.5-3.1-1.5c-0.6-0.7-0.8-1.9-0.8-3.5V23.1z M26.3,13.3l2.1,7.7l2-7.7h3L29.8,25v8h-3v-8c-0.3-1.4-0.9-3.5-1.8-6.2
		c-0.6-1.8-1.3-3.7-1.9-5.5H26.3z M60.1,60c-0.5,2.3-2.4,4-4.7,4.3c-5.4,0.6-10.9,0.6-16.3,0.6c-5.5,0-10.9,0-16.3-0.6
		c-2.3-0.3-4.2-2-4.7-4.3c-0.8-3.3-0.8-6.9-0.8-10.3c0-3.4,0-7,0.8-10.3c0.5-2.3,2.4-4,4.7-4.3c5.4-0.6,10.9-0.6,16.3-0.6
		c5.5,0,10.9,0,16.3,0.6c2.3,0.3,4.2,2,4.7,4.3c0.8,3.3,0.8,6.9,0.8,10.3C60.9,53.1,60.9,56.7,60.1,60L60.1,60z M60.1,60"/>
	<path fill="#FFFFFF" d="M53.7,44c-1.3,0-2.4,0.5-3.2,1.5c-0.6,0.7-0.8,1.9-0.8,3.4v5.1c0,1.5,0.3,2.7,0.8,3.4
		c0.8,1,1.8,1.5,3.2,1.5c1.4,0,2.5-0.5,3.2-1.6c0.3-0.5,0.5-1,0.6-1.6c0-0.3,0.1-0.8,0.1-1.7v-0.4H55c0,1.1,0,1.6-0.1,1.8
		c-0.2,0.7-0.5,1.1-1.2,1.1c-0.9,0-1.3-0.7-1.3-2V52h5.3v-3c0-1.6-0.3-2.7-0.8-3.4C56.1,44.5,55.1,44,53.7,44L53.7,44z M55,49.8
		h-2.6v-1.3c0-1.3,0.4-2,1.3-2c0.9,0,1.3,0.7,1.3,2V49.8z M55,49.8"/>
</g>
</svg>
